{"glyphs":{"0":{"ha":750,"x_min":39,"x_max":726,"o":"m 639 561 q 726 415 726 518 q 708 333 726 381 q 606 172 681 253 q 357 6 513 71 q 189 -37 251 -37 q 39 97 39 -37 q 265 474 39 283 q 508 583 378 565 q 540 585 525 585 q 639 561 593 585 m 435 475 q 252 396 350 475 q 106 193 154 317 q 85 93 85 138 q 131 14 85 36 q 184 4 150 4 q 281 31 218 4 q 468 171 378 74 q 548 290 528 236 q 568 365 568 343 q 525 454 568 433 q 435 475 482 475 z "},"1":{"ha":431,"x_min":17,"x_max":533,"o":"m 40 365 q 52 371 40 365 q 178 465 64 378 q 368 592 293 553 q 475 631 443 631 q 519 622 507 631 q 532 610 532 614 q 531 606 532 607 l 524 604 q 518 604 521 604 q 441 558 483 604 q 356 428 399 511 q 277 265 313 344 q 205 98 242 185 q 154 -18 168 11 q 60 39 86 -8 q 53 74 53 51 q 67 138 53 97 q 243 457 128 307 q 38 336 164 404 q 17 338 17 324 q 40 365 17 351 z "},"2":{"ha":810,"x_min":-37,"x_max":838,"o":"m 613 108 q 708 52 676 88 q 740 -18 740 17 q 731 -53 740 -53 q 725 -45 722 -53 q 728 -33 728 -37 q 697 3 728 -15 q 417 47 619 47 q 237 35 297 47 q 136 10 176 22 q 71 -11 96 -3 q 14 -25 46 -19 q -36 4 -36 -32 q -8 63 -36 35 q 185 144 51 119 q 260 167 233 154 q 572 311 496 268 q 694 460 694 382 q 659 536 694 504 q 582 574 624 568 q 503 581 540 581 q 305 536 390 581 q 219 458 219 492 q 264 435 219 435 q 356 449 300 435 q 517 528 468 476 q 525 528 522 533 q 528 515 528 521 q 471 447 528 483 q 349 395 414 411 q 227 379 283 379 q 150 407 171 379 q 142 431 142 418 q 183 495 142 457 q 315 569 224 533 q 601 632 472 632 q 821 543 771 632 q 838 492 838 519 q 822 431 838 464 q 699 306 792 365 q 329 154 606 247 q 613 108 488 151 z "},"3":{"ha":835,"x_min":-7,"x_max":819,"o":"m 329 571 q 644 631 440 631 q 783 593 732 631 q 818 526 818 568 q 761 434 818 483 q 638 363 704 385 q 739 326 700 357 q 788 218 788 288 q 699 43 788 129 q 354 -114 590 -62 q 221 -129 279 -129 q 118 -122 163 -129 q -6 -22 7 -104 q -7 -6 -7 -14 q 172 163 -7 89 q 425 199 263 199 q 531 181 513 199 q 533 169 538 174 q 519 166 529 165 q 488 167 510 167 q 350 142 465 167 q 154 83 235 117 q 53 24 74 49 q 32 -14 32 -1 q 99 -72 32 -51 q 200 -86 142 -86 q 492 -14 335 -86 q 675 169 675 69 q 619 267 675 221 q 481 321 563 314 q 439 343 439 324 q 510 372 439 368 q 635 406 581 376 q 690 489 690 436 q 621 579 690 553 q 544 592 590 592 q 428 575 499 592 q 339 518 358 558 q 335 503 335 510 q 357 476 335 486 q 438 450 404 454 q 446 440 447 449 q 393 435 440 435 q 294 457 346 435 q 263 494 263 471 q 329 571 263 535 z "},"4":{"ha":592,"x_min":0,"x_max":692,"o":"m 385 225 q 335 48 335 99 q 376 -22 335 -3 q 344 -33 388 -33 q 236 29 263 -33 q 225 97 225 53 q 261 219 225 140 q 121 195 179 211 q 35 179 63 179 q 3 193 7 179 q 0 200 0 196 q 19 231 0 213 q 88 287 38 250 q 215 385 138 324 q 354 492 293 446 q 654 658 581 658 q 681 651 672 658 q 690 640 690 644 q 676 635 690 635 q 547 531 619 635 q 410 283 474 428 q 558 249 507 276 q 608 182 608 222 q 606 162 608 172 q 597 153 603 151 q 592 160 590 154 q 594 169 594 165 q 542 208 594 192 q 385 225 490 225 m 421 496 q 107 260 375 465 q 292 285 176 278 q 355 393 307 314 q 421 496 403 472 z "},"5":{"ha":850,"x_min":4,"x_max":915,"o":"m 310 376 q 446 392 390 392 q 657 340 592 392 q 707 242 707 297 q 689 174 707 210 q 338 -40 614 19 q 210 -56 264 -56 q 122 -53 157 -56 q 6 29 17 -40 q 4 44 4 36 q 160 190 4 126 q 383 221 239 221 q 475 199 476 221 q 464 194 474 193 q 436 194 454 194 q 316 172 418 194 q 138 118 214 150 q 32 33 32 74 q 38 17 32 25 q 194 -32 64 -32 q 421 18 325 -32 q 592 190 592 106 q 540 278 592 235 q 439 321 508 304 q 286 338 369 338 q 272 338 279 338 l 244 307 q 208 299 229 290 q 210 331 189 310 q 413 524 332 436 q 386 563 392 542 q 392 615 374 604 q 420 621 399 624 q 458 611 442 618 q 550 581 508 592 q 651 571 592 571 q 778 583 710 571 q 906 657 906 608 q 910 668 906 667 q 915 658 914 664 q 865 563 914 604 q 750 504 815 521 q 586 475 638 475 q 438 507 494 475 q 373 441 417 485 q 310 376 329 397 z "},"6":{"ha":674,"x_min":32,"x_max":686,"o":"m 139 189 q 114 76 114 117 q 140 28 114 36 q 167 22 153 22 q 270 59 208 22 q 371 136 332 96 q 525 364 525 294 q 503 386 525 386 q 481 382 494 386 q 293 260 408 360 q 229 194 249 221 q 201 180 208 169 q 217 217 193 190 q 407 376 308 321 q 565 431 506 431 q 626 412 597 431 q 654 358 654 393 q 519 125 654 253 q 300 0 429 39 q 186 -19 235 -19 q 69 25 107 -19 q 32 131 32 69 q 65 275 32 192 q 299 571 133 442 q 650 732 464 700 q 672 733 658 733 q 685 722 685 733 q 665 710 685 714 q 370 520 538 681 q 139 189 203 360 z "},"7":{"ha":503,"x_min":40,"x_max":618,"o":"m 154 607 l 149 574 q 235 561 201 561 q 307 563 268 561 q 451 577 346 565 q 584 589 557 589 q 618 574 611 589 q 614 574 615 574 q 465 469 557 574 q 299 267 396 394 q 165 19 165 92 q 192 -28 165 -14 q 192 -33 196 -31 q 163 -39 186 -39 q 91 -10 111 -39 q 71 43 71 19 q 164 211 71 107 q 332 384 229 286 q 443 492 435 482 q 305 475 414 475 q 138 533 196 475 q 106 474 129 511 q 42 418 54 396 q 40 422 40 419 q 46 431 40 425 q 88 495 69 451 q 107 584 107 539 q 128 629 107 629 q 153 611 143 629 q 154 607 154 608 z "},"8":{"ha":633,"x_min":4,"x_max":788,"o":"m 763 700 q 775 718 763 718 q 788 697 788 718 q 735 582 783 646 q 738 558 738 572 q 732 529 738 543 q 722 511 726 515 q 713 522 713 504 q 710 551 713 543 q 415 313 624 454 q 521 253 483 290 q 558 176 558 217 q 497 69 558 117 q 363 0 435 21 q 238 -21 292 -21 q 231 -21 233 -21 q 75 0 138 -21 q 4 78 4 25 q 75 189 4 133 q 200 271 135 235 l 303 326 q 179 426 179 369 q 247 547 179 490 q 568 656 378 656 q 718 610 665 656 q 763 700 761 658 m 149 63 q 246 6 149 6 q 456 71 371 6 q 514 165 514 117 q 390 294 514 242 l 281 219 q 149 63 149 124 m 342 347 q 689 579 586 482 q 610 599 657 599 q 501 576 564 599 q 336 471 388 536 q 308 405 308 436 q 342 347 308 374 z "},"9":{"ha":613,"x_min":19,"x_max":624,"o":"m 294 -31 q 280 -52 294 -31 q 245 -112 265 -74 q 215 -178 225 -150 q 206 -219 206 -206 q 209 -248 206 -232 q 233 -275 213 -264 q 234 -281 240 -278 q 226 -285 228 -285 q 142 -199 142 -274 q 274 106 142 -74 q 483 368 369 238 q 489 383 494 382 q 265 190 344 239 q 138 142 185 142 q 63 164 92 142 q 19 256 19 196 q 131 486 19 368 q 338 611 214 575 q 446 628 393 628 q 544 603 499 628 q 624 476 624 554 q 522 261 624 381 q 476 203 501 235 q 417 133 450 172 q 354 52 385 93 q 294 -31 324 11 m 129 221 q 163 182 129 182 q 211 194 182 182 q 410 349 289 228 q 477 419 467 406 q 500 447 488 432 q 532 500 517 469 q 547 546 547 531 q 503 578 547 578 q 373 531 451 578 q 249 429 294 483 q 129 221 129 289 z "}," ":{"ha":371,"x_min":0,"x_max":0,"o":""},"!":{"ha":540,"x_min":64,"x_max":551,"o":"m 507 753 q 551 722 551 753 q 472 633 551 700 q 408 576 435 603 q 345 497 382 549 q 281 397 308 446 q 236 300 254 347 q 231 190 197 206 q 236 183 239 188 q 225 182 233 178 q 176 271 176 207 q 181 304 176 286 q 244 495 194 396 q 336 643 293 594 q 507 753 435 753 m 108 -10 q 78 1 92 -10 q 65 25 65 13 q 89 92 65 67 q 158 126 122 126 q 187 116 174 126 q 200 78 200 106 q 172 21 200 51 q 108 -10 143 -10 z "},"\"":{"ha":436,"x_min":6,"x_max":418,"o":"m 166 589 q 184 589 166 589 q 213 569 201 589 q 225 528 225 550 q 206 461 225 507 q 131 367 186 415 q 11 314 68 314 q 6 318 6 314 q 11 324 6 322 q 121 381 71 329 q 179 494 171 433 q 101 454 147 454 q 74 464 85 454 q 64 485 64 474 q 96 554 64 522 q 166 589 131 589 m 372 494 q 294 454 332 454 q 267 464 278 454 q 257 485 257 474 q 261 515 257 497 q 292 558 265 532 q 358 589 322 589 q 405 569 393 589 q 417 528 417 550 q 397 461 417 507 q 322 367 378 415 q 204 314 261 314 q 197 318 197 314 q 203 324 197 322 q 314 381 264 329 q 372 494 364 433 z "},"#":{"ha":989,"x_min":13,"x_max":993,"o":"m 763 636 l 842 635 q 965 641 938 635 q 993 633 993 647 q 899 600 993 606 q 785 597 857 599 q 675 593 714 594 q 531 379 592 472 q 832 396 744 379 q 852 385 851 400 q 821 361 853 369 q 501 333 738 340 q 375 110 411 192 q 364 97 369 97 q 356 99 358 97 q 358 153 342 108 q 453 332 374 197 q 358 332 418 332 q 196 333 297 332 q 69 110 103 185 q 58 97 64 97 q 50 99 53 97 q 53 155 36 108 q 149 335 69 201 q 46 344 51 338 q 30 361 44 346 q 15 385 15 376 q 28 393 15 393 l 181 386 q 307 585 236 476 q 44 599 53 588 q 28 614 43 600 q 14 637 14 628 q 26 646 14 646 l 339 635 q 532 896 515 896 l 571 901 q 586 895 586 901 q 579 881 586 889 q 397 633 485 756 q 522 632 461 632 q 644 633 583 632 q 838 896 818 896 l 876 901 q 892 895 892 901 q 885 881 892 889 q 704 635 813 788 q 763 636 728 636 m 615 590 q 364 585 449 585 q 228 385 336 546 q 481 379 389 379 q 615 590 540 476 z "},"$":{"ha":736,"x_min":100,"x_max":803,"o":"m 628 444 q 601 489 601 465 q 610 532 601 513 q 747 692 644 622 q 717 704 740 704 q 647 682 694 704 q 479 424 571 572 l 507 411 q 588 305 588 371 q 519 207 588 239 q 408 181 478 185 q 335 176 338 176 q 255 19 271 60 q 233 -21 239 -21 q 226 -6 226 -21 q 304 176 226 36 q 176 204 238 176 q 100 288 114 232 q 286 238 154 238 q 339 240 313 238 l 444 419 q 372 467 403 436 q 342 529 342 499 q 376 617 342 576 q 461 682 410 658 q 653 744 536 718 q 736 851 725 851 l 746 853 l 753 851 q 760 844 760 851 q 747 818 760 835 q 697 751 733 801 q 718 753 704 753 q 801 699 801 753 q 801 685 801 694 q 772 644 800 675 q 710 583 743 613 q 651 514 678 553 q 628 444 625 475 m 600 667 q 456 574 511 628 q 397 495 400 519 q 409 459 394 471 q 454 435 424 447 q 600 667 496 504 m 508 308 q 531 352 531 328 q 499 396 531 376 q 469 408 492 401 q 372 244 438 357 q 508 308 446 254 z "},"%":{"ha":907,"x_min":67,"x_max":874,"o":"m 822 372 q 872 285 872 346 q 806 146 872 217 q 632 38 740 75 q 537 19 581 19 q 472 54 493 19 q 461 96 461 74 q 467 149 461 118 q 516 236 474 181 q 603 328 558 292 q 753 386 672 386 q 822 372 788 386 m 454 747 q 494 742 467 742 q 593 764 521 742 q 692 786 665 786 q 718 775 718 786 q 704 744 718 764 q 369 249 553 543 q 122 -194 186 -44 q 109 -210 115 -210 q 103 -194 103 -210 q 305 220 103 -125 q 608 700 507 565 q 553 689 586 689 q 474 717 521 689 q 481 679 481 699 q 410 536 481 615 q 239 431 346 467 q 143 413 188 413 q 78 450 99 413 q 68 490 68 468 q 74 544 68 513 q 124 631 81 575 q 211 722 167 688 q 358 779 279 779 l 429 765 q 454 747 446 756 m 308 714 q 181 652 249 714 q 97 515 114 590 q 94 489 94 500 q 119 443 94 456 q 152 438 131 438 q 224 458 174 438 q 319 528 275 479 q 388 657 388 600 q 362 702 388 690 q 308 714 336 714 m 488 94 q 540 43 488 43 q 618 65 567 43 q 722 143 669 86 q 781 263 781 208 q 756 308 781 296 q 703 321 731 321 q 574 258 642 321 q 490 119 506 194 q 488 94 488 106 z "},"&":{"ha":888,"x_min":1,"x_max":881,"o":"m 404 13 q 197 -4 276 -18 q 15 96 54 21 q 1 142 1 122 q 4 175 1 163 q 58 267 13 218 q 183 360 103 315 l 256 400 q 546 794 281 631 q 721 860 650 860 q 764 853 744 860 q 810 793 810 836 q 708 638 810 718 q 588 553 653 592 l 346 408 q 346 367 346 399 q 358 285 346 336 q 589 365 464 344 q 696 376 650 376 q 825 304 810 376 q 826 286 826 294 q 775 188 826 239 q 472 32 685 97 q 658 -125 557 -83 q 764 -154 726 -154 q 816 -138 801 -154 q 831 -105 831 -122 q 811 -64 831 -87 q 689 -10 769 -10 q 663 -12 681 -10 q 646 -10 646 -14 q 665 6 642 1 q 735 11 703 11 q 861 -37 824 11 q 881 -83 881 -60 q 864 -129 881 -106 q 761 -176 832 -176 q 644 -150 706 -176 q 404 13 501 -89 m 793 278 q 713 317 793 317 q 371 233 576 317 q 458 50 400 135 q 735 196 628 103 q 793 278 793 246 m 129 33 q 226 15 174 15 q 386 31 313 15 q 285 193 315 113 q 228 155 238 165 q 217 145 218 144 q 217 154 215 146 q 269 225 221 185 l 272 226 q 253 351 253 292 l 213 326 q 97 217 136 274 q 57 110 57 160 q 129 33 57 60 m 624 629 q 656 657 624 629 q 688 730 688 685 q 640 775 688 775 q 511 724 586 775 q 351 451 368 626 q 436 500 376 467 q 624 629 561 574 z "},"'":{"ha":207,"x_min":6,"x_max":226,"o":"m 166 589 q 184 589 166 589 q 213 569 201 589 q 225 528 225 550 q 206 461 225 507 q 131 367 186 415 q 11 314 68 314 q 6 318 6 314 q 11 324 6 322 q 121 381 71 329 q 179 494 171 433 q 101 454 147 454 q 74 464 85 454 q 64 485 64 474 q 96 554 64 522 q 166 589 131 589 z "},"(":{"ha":503,"x_min":89,"x_max":574,"o":"m 528 900 q 559 910 546 910 q 572 899 572 910 q 554 876 572 889 q 408 717 479 828 q 242 236 269 500 q 238 178 238 206 q 267 42 238 96 q 321 14 278 21 q 333 3 328 13 q 331 -10 339 -6 q 171 -14 263 -35 q 107 25 122 -3 q 89 111 89 57 q 100 226 89 165 q 135 363 111 288 q 197 516 158 438 q 283 665 235 594 q 528 900 390 825 z "},")":{"ha":554,"x_min":42,"x_max":526,"o":"m 88 -61 q 56 -72 69 -72 q 43 -62 43 -72 q 61 -39 43 -51 q 207 122 136 11 q 375 601 346 338 q 378 660 378 632 q 349 796 378 742 q 294 824 339 817 q 282 835 288 825 q 285 847 276 844 q 360 860 314 860 q 449 850 406 860 q 508 813 493 840 q 526 727 526 781 q 515 612 526 674 q 481 476 504 550 q 419 323 457 401 q 333 174 381 244 q 88 -61 225 14 z "},"*":{"ha":742,"x_min":31,"x_max":694,"o":"m 694 328 q 682 317 694 317 q 421 274 540 303 q 614 122 511 219 q 619 101 626 110 q 601 100 611 93 q 371 228 514 160 q 257 -21 318 78 q 246 -32 251 -32 q 234 -28 240 -32 q 233 -12 228 -24 q 306 239 271 85 q 49 206 182 211 q 31 219 31 206 q 43 231 31 229 q 292 301 133 247 q 125 493 204 385 q 124 515 115 508 q 142 513 133 521 q 340 344 208 443 q 511 586 421 485 q 524 593 517 593 q 535 588 532 593 q 533 574 538 582 q 406 328 438 429 q 585 347 532 347 q 692 336 683 347 q 694 328 694 332 z "},"+":{"ha":608,"x_min":121,"x_max":607,"o":"m 264 13 q 249 -1 264 -1 q 235 15 235 -1 q 307 243 243 117 q 132 217 246 236 q 121 235 121 215 q 127 273 121 254 q 143 292 133 292 q 339 301 240 301 q 468 468 397 397 q 490 476 476 476 q 520 472 503 476 q 529 460 538 467 q 396 301 456 383 q 597 281 528 300 q 607 269 607 278 q 601 254 607 261 q 585 247 594 247 q 470 253 526 253 q 360 247 414 253 q 264 13 271 111 z "},",":{"ha":318,"x_min":-14,"x_max":207,"o":"m 147 125 q 164 125 147 125 q 194 106 182 125 q 206 65 206 86 q 186 -3 206 43 q 111 -97 167 -49 q -4 -150 56 -146 q -14 -144 -12 -150 q -8 -140 -11 -142 q 103 -83 53 -135 q 161 31 153 -31 l 154 25 q 83 -10 119 -10 q 56 0 67 -10 q 46 22 46 10 q 50 51 46 33 q 81 94 54 69 q 147 125 111 125 z "},"-":{"ha":608,"x_min":121,"x_max":500,"o":"m 128 217 q 124 217 128 217 q 121 235 121 217 q 127 273 121 254 q 143 292 133 292 q 324 301 239 301 q 483 290 410 301 q 500 276 500 288 q 486 265 500 265 q 276 243 386 263 q 128 217 135 217 z "},".":{"ha":281,"x_min":64,"x_max":201,"o":"m 108 -10 q 78 1 92 -10 q 65 25 65 13 q 89 92 65 67 q 158 126 122 126 q 187 116 174 126 q 200 78 200 106 q 172 21 200 51 q 108 -10 143 -10 z "},"/":{"ha":826,"x_min":14,"x_max":690,"o":"m 622 811 l 671 818 q 690 808 690 818 q 682 792 689 801 q 307 269 504 561 q 50 -164 110 -24 q 33 -179 43 -179 q 22 -175 29 -179 q 15 -158 15 -171 q 176 162 15 -100 q 472 617 338 424 q 622 811 607 811 z "},":":{"ha":354,"x_min":63,"x_max":326,"o":"m 325 325 q 297 253 325 285 q 229 222 269 222 q 204 233 218 222 q 190 271 190 244 q 219 328 190 297 q 288 358 247 358 q 313 348 300 358 q 325 325 325 338 m 107 -10 q 78 1 92 -10 q 64 25 64 13 q 88 92 64 67 q 157 126 121 126 q 185 116 172 126 q 199 78 199 106 q 171 21 199 51 q 107 -10 143 -10 z "},";":{"ha":354,"x_min":6,"x_max":226,"o":"m 179 31 q 101 -10 139 -10 q 74 1 85 -10 q 64 22 64 11 q 96 90 64 61 q 166 125 131 125 q 213 106 201 125 q 225 65 225 86 q 206 -3 225 43 q 130 -97 186 -49 q 14 -150 74 -146 q 6 -144 6 -150 q 11 -140 8 -142 q 121 -83 71 -135 q 179 31 171 -31 z "},"<":{"ha":411,"x_min":43,"x_max":415,"o":"m 165 208 q 81 249 119 249 q 43 251 43 249 q 97 289 43 258 q 270 409 189 344 q 371 517 351 474 q 397 533 378 533 q 415 530 415 533 q 414 525 415 526 q 161 303 371 432 q 232 246 197 288 q 281 150 267 204 q 283 125 283 138 q 254 53 283 86 q 221 19 225 19 q 224 38 213 19 q 233 79 233 58 q 165 208 233 149 z "},"=":{"ha":608,"x_min":71,"x_max":500,"o":"m 486 286 q 277 264 383 283 q 132 239 171 244 q 122 256 122 238 q 127 293 121 274 q 143 314 133 313 q 315 322 229 322 q 483 313 400 322 q 500 298 500 310 q 486 286 500 286 m 435 154 q 451 140 451 151 q 436 128 451 128 q 228 106 333 125 q 81 81 92 81 q 71 99 71 81 q 77 135 71 117 q 93 156 83 154 q 263 164 178 164 q 435 154 349 164 z "},">":{"ha":408,"x_min":26,"x_max":399,"o":"m 276 335 q 360 294 322 294 q 397 292 397 294 q 385 277 397 285 q 315 234 374 269 q 174 133 257 199 q 71 26 90 68 q 38 10 64 11 q 26 18 25 11 q 281 239 72 110 q 210 296 246 254 q 161 392 175 338 q 158 418 158 406 q 188 491 158 458 q 221 524 217 524 q 218 506 229 524 q 208 464 208 485 q 276 335 208 394 z "},"?":{"ha":776,"x_min":36,"x_max":815,"o":"m 801 803 q 814 743 814 767 q 768 622 814 674 q 673 535 722 571 q 563 464 624 500 q 449 399 501 428 q 267 249 267 297 q 273 231 267 238 q 278 218 279 225 q 270 209 276 211 q 257 211 264 207 q 240 246 240 226 q 376 396 240 303 q 631 585 481 471 q 731 738 731 678 q 703 790 731 768 q 572 824 660 824 q 360 785 453 824 q 208 713 267 747 q 111 644 149 678 q 81 557 42 579 q 104 553 89 553 q 259 597 163 553 q 428 688 356 640 q 522 772 500 735 q 524 778 522 774 q 531 776 526 782 q 536 757 536 769 q 518 719 536 744 q 311 535 426 585 q 131 488 207 488 q 44 525 67 488 q 36 553 36 539 q 44 592 36 568 q 94 658 51 615 q 203 742 136 701 q 338 808 271 782 q 649 888 539 888 q 801 803 765 888 m 232 93 q 204 22 232 53 q 136 -10 176 -10 q 111 1 125 -10 q 97 39 97 13 q 126 96 97 65 q 194 126 154 126 q 219 116 207 126 q 232 93 232 106 z "},"@":{"ha":842,"x_min":0,"x_max":832,"o":"m 535 438 q 488 353 499 378 q 478 305 478 328 q 497 282 478 282 q 549 301 515 282 q 652 398 608 340 q 696 506 696 456 q 603 639 696 589 q 419 681 524 681 q 227 631 313 681 q 94 512 142 582 q 47 374 47 442 q 83 246 47 306 q 186 160 119 186 q 300 135 253 135 q 706 321 550 135 q 808 561 808 446 q 761 651 808 631 q 756 660 750 656 q 768 663 763 665 q 831 553 831 635 q 826 503 831 529 q 686 242 803 368 q 294 57 514 57 q 154 82 221 57 q 50 160 88 107 q 0 324 0 229 q 86 553 0 447 q 215 660 139 618 q 473 724 333 724 q 692 660 613 724 q 743 556 743 618 q 722 465 743 518 q 631 347 700 413 q 529 264 563 281 q 471 247 496 247 q 421 268 446 247 q 396 329 396 289 q 403 371 396 342 q 325 281 369 313 q 242 247 276 247 q 156 314 181 247 q 149 349 149 331 q 188 465 149 408 q 300 546 228 522 q 365 556 332 556 q 434 538 399 556 q 486 494 469 521 q 525 483 508 494 q 542 460 542 471 q 535 438 542 449 m 265 275 q 278 275 265 275 q 323 303 290 275 q 369 351 356 332 q 392 382 383 371 q 408 402 401 393 q 425 425 415 411 q 454 493 454 469 q 441 515 454 507 q 409 522 428 522 q 367 510 390 522 q 292 439 322 488 q 240 315 240 354 q 265 275 240 275 z "},"A":{"ha":1431,"x_min":-39,"x_max":1896,"o":"m 1358 -124 q 1361 -129 1361 -125 q 1350 -133 1358 -139 q 1229 115 1229 -49 q 1256 260 1229 183 q 1353 446 1283 338 q 1488 633 1422 554 q 1613 781 1553 713 q 1676 856 1674 850 q 1699 850 1693 881 q 1700 828 1700 840 q 1693 806 1700 815 q 1526 567 1607 700 q 1333 157 1392 342 q 1311 4 1311 83 q 1358 -124 1311 -75 m 203 363 q 751 457 431 457 q 1068 407 910 457 q 1179 523 1106 446 q 1296 644 1253 600 q 1500 835 1421 774 q 1744 939 1633 939 q 1836 923 1794 939 q 1886 898 1878 907 q 1894 888 1894 889 q 1892 883 1894 886 q 1883 886 1889 879 q 1781 911 1857 911 q 1508 799 1651 911 q 1338 647 1406 715 q 1195 501 1269 578 q 1094 397 1121 424 q 1246 263 1233 346 q 1245 251 1247 254 q 1240 251 1243 249 q 1235 260 1236 254 q 1157 301 1224 286 q 1019 322 1097 315 q 521 -24 738 50 q 297 -65 403 -65 q 35 -9 108 -65 q -37 115 -37 47 q -28 169 -37 142 q 203 363 14 283 m 899 328 q 510 289 714 328 q 101 124 196 233 q 72 58 72 89 q 111 -7 72 22 q 270 -42 157 -42 q 515 -4 383 -42 q 985 325 713 57 q 899 328 942 328 z "},"B":{"ha":893,"x_min":25,"x_max":976,"o":"m 508 478 q 617 483 560 483 q 745 468 674 483 q 856 411 817 453 q 899 310 899 367 q 868 199 899 254 q 775 86 838 143 q 308 -81 592 -81 q 173 -65 232 -81 q 96 -37 114 -49 q 52 -4 78 -25 q 40 17 26 17 q 82 4 47 17 q 210 -8 117 -8 q 411 13 304 -8 q 594 78 518 35 q 715 175 671 121 q 769 307 769 240 q 750 381 769 343 q 672 438 731 418 q 568 458 614 458 q 463 453 522 458 q 313 415 404 447 q 190 339 221 383 q 138 256 160 294 q 93 175 115 218 q 58 110 71 132 q 38 90 50 90 q 26 100 26 90 q 134 312 26 146 q 340 606 242 478 q 456 735 439 735 q 469 727 464 735 q 474 711 475 719 q 265 449 300 493 q 883 692 774 533 q 900 742 900 718 q 878 786 900 765 q 712 826 833 826 q 392 770 590 826 q 117 647 194 714 q 100 617 93 629 q 103 604 107 606 q 92 608 99 603 q 54 651 63 625 q 46 688 46 676 q 53 707 46 700 q 330 860 113 793 q 663 928 547 928 q 953 849 893 928 q 976 783 976 818 q 915 671 976 729 q 508 478 774 539 z "},"C":{"ha":999,"x_min":33,"x_max":1206,"o":"m 481 451 l 515 446 q 713 505 582 446 q 954 651 844 564 q 1064 806 1064 739 q 1022 865 1064 849 q 929 882 979 882 q 579 789 767 882 q 256 569 392 696 q 72 244 72 399 q 106 128 72 178 q 194 50 139 78 q 428 -1 299 -1 q 571 11 486 -1 q 823 81 718 38 q 1033 210 928 124 q 1040 213 1039 213 q 1047 206 1047 213 q 1042 192 1047 200 q 751 8 938 79 q 403 -64 565 -64 q 90 58 194 -64 q 33 222 33 126 q 235 590 33 408 q 599 825 386 726 q 994 924 811 924 q 1169 869 1107 924 q 1206 788 1206 836 q 1137 651 1206 719 q 972 533 1068 582 q 778 452 875 485 q 644 416 682 419 q 585 413 606 413 q 544 414 565 413 q 472 444 472 421 q 481 451 472 451 z "},"D":{"ha":1171,"x_min":-8,"x_max":1265,"o":"m 1199 656 q 903 800 1121 768 q 781 810 840 810 q 347 731 560 810 q 103 592 186 671 q 49 500 49 543 q 63 456 49 474 q 69 433 76 438 q 56 436 63 429 q 21 538 21 476 q 100 701 21 638 q 402 845 208 788 q 767 903 596 903 q 1047 856 938 903 q 1264 540 1264 764 q 1104 192 1264 358 q 561 -64 915 -4 q 367 -82 454 -82 q -1 43 63 -82 q -8 60 -8 57 q 14 54 -8 71 q 287 -4 97 -4 q 674 52 476 -4 q 1015 217 872 108 q 1178 379 1122 297 q 1236 533 1236 465 q 1199 656 1236 600 m 628 764 l 646 764 q 656 760 656 764 q 644 739 656 750 q 391 412 526 608 q 218 115 256 215 q 208 104 214 104 q 196 118 196 104 q 399 478 196 193 q 628 764 601 764 z "},"E":{"ha":1158,"x_min":22,"x_max":1233,"o":"m 1129 733 q 1014 797 1129 797 q 625 695 871 797 q 240 465 379 593 q 110 312 156 386 q 64 182 64 238 q 94 83 64 126 q 332 -12 147 3 q 397 -14 353 -14 q 521 1 442 -14 q 924 144 726 39 q 1214 385 1121 250 q 1232 399 1232 411 q 1229 382 1232 393 q 975 135 1192 276 q 361 -74 657 -74 q 89 28 189 -74 q 22 203 22 93 q 71 386 22 297 q 481 779 189 608 q 790 914 653 881 q 957 931 878 931 q 1094 894 1036 931 q 1156 781 1156 854 q 1128 676 1156 733 q 1117 668 1119 660 q 1122 694 1114 676 q 1129 733 1129 711 m 788 421 q 796 405 796 411 q 794 394 796 399 q 765 397 786 383 q 614 432 718 432 q 358 397 485 432 q 283 382 304 382 q 242 411 251 382 q 240 415 240 413 q 267 451 240 431 q 367 486 293 472 q 471 497 413 497 q 597 489 529 497 q 788 421 742 471 z "},"F":{"ha":924,"x_min":-4,"x_max":1069,"o":"m 861 472 q 963 694 963 614 q 908 783 963 751 q 801 807 868 807 q 546 778 679 807 q 140 653 294 724 q 26 557 26 601 q 57 513 26 533 q 54 506 65 506 q 38 510 43 506 q -4 582 -4 538 q 22 670 -4 626 q 106 746 47 714 q 425 869 239 822 q 799 921 625 921 q 1035 853 982 921 q 1069 767 1069 810 q 1053 683 1069 725 q 954 517 1022 599 l 903 456 q 940 428 924 444 q 947 401 954 411 q 922 402 940 390 q 876 424 904 414 q 660 160 685 194 q 619 106 635 126 q 599 79 604 86 q 582 54 594 72 q 565 25 569 36 q 553 -3 560 14 q 542 -69 542 -29 q 575 -108 542 -108 q 597 -105 585 -108 q 610 -108 610 -101 q 594 -120 610 -115 q 559 -125 578 -125 q 522 -108 540 -125 q 503 -57 503 -92 q 528 24 503 -22 q 604 140 553 69 q 731 305 656 210 q 832 433 807 400 q 733 438 797 438 q 556 414 668 438 q 512 403 539 411 q 472 393 485 396 q 413 394 421 382 q 393 421 393 406 q 419 458 393 436 q 504 490 446 479 q 625 501 563 501 q 861 472 765 501 z "},"G":{"ha":1267,"x_min":10,"x_max":1265,"o":"m 1117 721 q 1001 786 1117 786 q 612 683 858 786 q 228 453 365 581 q 97 299 143 374 q 51 170 51 225 q 82 71 51 115 q 319 -25 135 -10 q 385 -26 340 -26 q 508 -11 429 -26 q 879 115 696 22 q 1167 328 1063 207 q 1180 381 1175 356 q 1160 404 1185 407 q 1115 382 1139 401 q 1088 376 1092 363 q 1101 403 1083 389 q 1188 436 1149 436 q 1246 415 1228 436 q 1264 361 1264 393 q 1183 150 1264 290 q 977 -145 1065 -51 q 786 -292 889 -239 q 576 -344 683 -344 q 395 -296 468 -344 q 307 -143 322 -247 q 312 -133 306 -132 q 321 -142 318 -133 q 397 -271 335 -221 q 538 -321 458 -321 q 842 -149 675 -321 q 1140 264 1049 67 q 867 65 1039 161 q 349 -86 593 -86 q 75 15 178 -86 q 10 192 10 81 q 58 375 10 286 q 467 767 176 597 q 778 901 639 868 q 945 919 865 919 q 1082 882 1025 919 q 1143 768 1143 842 q 1115 664 1143 721 q 1104 656 1107 647 q 1109 683 1101 665 q 1117 721 1117 700 z "},"H":{"ha":1128,"x_min":35,"x_max":1467,"o":"m 1453 911 q 1467 904 1467 911 q 1451 874 1467 894 q 1134 404 1304 681 q 899 -26 964 128 q 881 -37 888 -50 q 879 -22 879 -33 q 1030 289 879 35 q 1303 726 1181 543 q 1442 910 1426 910 l 1453 911 m 897 782 q 910 775 910 782 q 894 744 910 765 q 654 399 782 594 q 783 382 719 394 q 992 249 992 339 q 989 243 992 243 q 983 250 986 243 q 831 297 969 285 q 729 301 789 301 q 586 293 669 301 q 313 -194 381 -33 q 299 -210 306 -210 q 293 -196 293 -210 q 547 290 293 -126 q 429 272 467 279 q 107 139 185 229 q 83 85 83 110 q 111 38 83 60 q 108 32 119 32 l 96 36 q 36 143 36 82 q 93 260 36 203 q 378 379 176 343 q 604 400 499 400 q 617 400 610 400 q 885 781 861 781 l 897 782 z "},"I":{"ha":826,"x_min":10,"x_max":1056,"o":"m 1044 724 q 978 783 1044 767 q 815 800 911 800 q 563 772 718 800 q 190 644 297 724 q 144 579 144 611 q 189 517 144 547 q 188 510 199 511 q 171 515 178 510 q 121 582 136 539 q 114 625 114 601 q 199 757 114 710 q 465 856 306 819 q 767 893 625 893 q 956 858 861 893 q 1031 804 1006 839 q 1056 731 1056 769 q 1048 699 1056 699 q 1042 708 1040 700 q 1044 724 1044 717 m 897 782 q 910 775 910 782 q 894 744 910 765 q 474 110 689 474 q 633 77 564 100 q 743 9 701 54 q 785 -93 785 -36 q 774 -129 785 -131 q 769 -119 767 -129 q 771 -106 771 -110 q 722 -47 771 -74 q 467 0 635 0 q 410 -1 439 0 q 313 -194 339 -128 q 299 -210 306 -210 q 293 -194 293 -210 q 375 -3 293 -158 q 183 -50 281 -11 q 118 -76 143 -65 q 61 -92 93 -86 q 21 -86 29 -99 q 10 -62 10 -78 q 16 -27 10 -46 q 42 14 22 -8 q 208 97 83 65 q 340 115 276 115 q 440 113 404 115 q 717 553 567 326 q 885 781 868 781 l 897 782 z "},"J":{"ha":938,"x_min":-243,"x_max":1047,"o":"m 1047 744 q 1047 697 1047 744 q 972 496 1047 650 q 765 172 897 342 q 463 -154 633 1 q -78 -446 143 -446 q -231 -356 -189 -446 q -242 -297 -242 -328 q -174 -92 -242 -199 q 208 254 -43 110 q 374 619 232 436 q 692 892 517 803 q 846 932 771 932 q 976 892 921 932 q 1047 744 1047 839 m 313 71 q 232 106 261 71 q -140 -272 -94 -117 q -146 -314 -146 -294 q -83 -386 -146 -365 q -37 -393 -60 -393 q 101 -364 33 -393 q 489 -78 279 -290 q 828 356 699 133 q 958 708 958 579 q 890 850 958 815 q 821 864 864 864 q 714 844 778 864 q 408 629 528 781 q 264 283 289 478 q 529 353 406 353 q 661 289 646 353 q 664 271 665 274 q 656 271 663 268 q 618 276 644 276 q 268 129 497 276 q 317 86 285 89 q 326 78 326 85 q 313 71 326 71 z "},"K":{"ha":926,"x_min":-42,"x_max":1213,"o":"m 1196 921 q 1211 911 1211 921 q 1189 886 1211 894 q 336 374 856 771 q 576 418 471 418 q 761 382 681 418 q 904 189 904 321 q 797 -10 904 88 q 633 -117 732 -69 q 596 -132 603 -132 q 590 -129 589 -132 q 648 -68 593 -117 q 735 44 703 -19 q 768 165 768 108 q 740 272 768 221 q 522 381 688 369 q 501 381 513 381 q 358 358 431 381 q 269 335 285 335 q 254 340 254 335 q 269 360 254 346 q 731 697 407 486 q 1189 921 1056 907 q 1196 921 1193 921 m 513 842 q 558 817 558 842 q 543 785 558 804 q 221 314 406 604 q -22 -112 36 24 q -35 -129 -29 -129 q -40 -115 -40 -129 q 182 364 -40 -43 q 476 829 404 771 q 513 842 492 842 z "},"L":{"ha":1022,"x_min":3,"x_max":1342,"o":"m 1342 790 q 1153 556 1342 667 q 988 479 1081 513 q 579 400 769 400 q 465 407 506 400 q 433 359 457 396 q 401 309 410 322 q 373 267 392 296 q 343 225 354 239 q 279 153 310 183 q 150 106 231 106 q 113 112 133 106 q 88 124 92 118 q 86 132 85 131 q 92 131 88 133 q 113 127 97 128 q 153 131 129 126 q 275 200 210 138 q 435 411 313 238 q 297 500 318 435 q 299 510 294 510 q 306 504 303 511 q 408 479 322 479 q 481 482 440 479 l 485 482 q 658 691 569 600 q 842 836 746 782 q 1150 924 999 924 q 1264 901 1222 924 q 1342 790 1342 861 m 1017 -67 q 1004 -104 1017 -104 q 997 -94 993 -104 q 1000 -79 1000 -85 q 925 -17 1000 -43 q 604 26 806 26 q 231 -22 390 26 q 144 -50 178 -39 q 56 -68 86 -68 q 4 -32 4 -68 q 125 86 4 36 q 474 139 257 139 q 944 50 806 139 q 1017 -67 1017 3 m 1226 783 q 1242 838 1242 810 q 1097 900 1242 900 q 1002 882 1072 900 q 864 829 932 864 q 519 486 699 742 q 911 586 699 508 q 1226 783 1164 678 z "},"M":{"ha":1839,"x_min":-4,"x_max":2063,"o":"m 493 -28 q 488 -17 488 -28 q 565 100 488 3 q 656 210 576 114 q 765 344 735 306 q 917 568 879 492 q 956 694 956 644 q 767 808 956 808 q 247 700 567 808 q 24 558 24 624 q 56 513 24 535 q 55 506 65 507 q 38 510 44 506 q -4 582 -4 538 q 22 670 -4 626 q 106 746 47 714 q 425 869 239 822 q 799 921 625 921 q 1035 853 982 921 q 1069 767 1069 810 q 1053 683 1069 725 q 954 517 1022 599 q 860 405 940 499 q 736 256 781 311 q 1442 783 1238 783 q 1525 733 1500 783 q 1539 685 1539 706 q 1536 638 1539 664 q 1419 378 1532 568 q 1722 653 1589 554 q 1997 772 1883 772 q 2063 717 2063 772 q 1993 560 2063 663 q 1583 -240 1583 -42 q 1619 -308 1583 -303 q 1667 -294 1642 -312 q 1683 -297 1676 -287 q 1678 -317 1690 -306 q 1649 -329 1665 -329 q 1610 -326 1632 -329 q 1551 -309 1588 -324 q 1491 -260 1515 -294 q 1467 -185 1467 -226 q 1482 -78 1467 -125 q 1833 469 1519 32 q 1928 658 1928 601 q 1883 701 1928 701 q 1743 640 1824 701 q 1358 276 1571 510 q 1214 56 1300 182 q 1185 38 1201 38 q 1129 63 1129 38 q 1132 74 1129 68 q 1390 586 1363 474 q 1399 647 1399 625 q 1397 681 1399 668 q 1347 721 1388 721 q 1238 675 1307 721 q 942 429 1118 599 q 603 78 765 260 q 593 74 599 74 q 493 -28 513 -28 z "},"N":{"ha":813,"x_min":-107,"x_max":1132,"o":"m -87 -194 q -100 -210 -94 -210 q -106 -196 -106 -210 q 139 274 -106 -115 q 467 763 383 664 q 549 911 503 876 q 578 918 558 918 q 644 900 599 918 q 689 857 689 882 q 678 838 689 846 q 581 639 615 785 q 546 342 546 493 q 588 60 546 161 q 848 549 644 207 q 1075 892 1051 892 q 1088 893 1076 892 q 1131 886 1131 899 q 1121 864 1131 881 q 826 433 979 679 q 601 29 674 188 q 667 -35 629 -17 q 699 -43 683 -43 q 722 -38 714 -43 q 733 -35 731 -33 q 736 -42 736 -37 q 733 -49 736 -46 q 675 -72 701 -72 q 533 8 592 -72 q 446 207 475 88 q 417 433 417 326 q 443 672 417 553 q 133 208 294 471 q -87 -194 -28 -56 z "},"O":{"ha":974,"x_min":188,"x_max":1122,"o":"m 1122 715 q 1122 651 1122 715 q 1066 469 1122 588 q 913 226 1010 350 q 626 -17 790 72 q 449 -62 540 -62 q 251 25 325 -62 q 189 199 189 99 q 290 501 189 338 q 474 715 365 621 q 671 838 583 808 q 779 854 728 854 q 868 819 831 854 q 910 708 910 782 q 894 619 910 665 q 885 614 890 603 q 886 635 882 619 q 890 669 890 651 q 818 731 890 731 q 559 631 714 731 q 326 424 404 531 q 219 158 219 276 q 364 6 219 29 q 407 1 385 1 q 592 40 483 1 q 908 260 786 110 q 1068 704 1068 458 q 1048 840 1068 796 q 1010 892 1028 883 q 978 897 992 901 q 965 900 964 893 q 1000 914 967 914 q 1067 886 1033 914 q 1122 715 1122 842 z "},"P":{"ha":749,"x_min":-22,"x_max":1008,"o":"m -22 -33 q 128 250 -22 18 q 36 292 72 264 q -6 361 -6 325 q 13 415 -6 397 q 32 421 32 432 q 24 404 32 415 q 15 381 15 393 q 51 308 15 336 q 142 271 88 279 q 360 574 250 432 q 488 717 469 717 q 502 707 496 717 q 508 688 508 697 q 190 264 333 471 q 219 263 204 263 q 513 319 343 263 q 770 434 683 375 q 899 553 857 493 q 940 665 940 614 q 908 757 940 717 q 817 812 875 797 q 717 826 760 826 q 376 765 567 826 q 117 647 185 704 q 100 617 93 629 q 103 604 107 606 q 92 608 99 603 q 54 651 63 625 q 46 688 46 676 q 53 707 46 700 q 292 843 104 781 q 667 924 481 906 q 747 926 699 926 q 859 908 794 926 q 961 847 924 890 q 1008 718 1008 794 q 917 510 1008 614 q 789 406 864 450 q 509 289 672 339 q 231 239 346 239 q 174 242 201 239 q 17 -24 50 64 q -7 -46 8 -46 q -22 -33 -22 -46 z "},"Q":{"ha":883,"x_min":-92,"x_max":1047,"o":"m 899 -297 q 819 -233 899 -260 q 517 -194 703 -194 q 222 -221 347 -194 q 96 -256 176 -231 q -43 -289 -14 -289 q -92 -258 -92 -289 q 11 -149 -92 -197 q 124 -110 58 -126 q 38 47 38 -79 q 38 63 38 54 q 228 531 50 292 q 632 885 407 771 q 811 931 724 931 q 967 881 896 931 q 1046 692 1046 824 q 911 367 1046 550 q 688 135 821 243 q 476 2 556 26 q 342 -22 397 -22 q 251 13 286 -22 q 215 110 215 49 q 244 232 215 165 q 255 240 250 244 q 251 214 260 236 q 243 168 243 192 q 313 115 243 115 q 608 224 425 115 q 882 443 792 333 q 1021 729 1021 610 q 889 861 1021 839 q 849 865 871 865 q 660 826 772 865 q 264 535 413 744 q 103 67 115 326 q 103 40 103 53 q 122 -60 103 -25 q 174 -99 142 -96 l 185 -97 q 377 -79 281 -79 q 565 -89 474 -79 q 883 -192 801 -111 q 918 -274 918 -228 q 914 -307 918 -290 q 901 -324 910 -324 q 896 -313 893 -322 q 899 -297 899 -304 z "},"R":{"ha":815,"x_min":-22,"x_max":986,"o":"m -21 -51 q 179 307 -21 15 q 172 353 172 332 q 207 401 172 374 q 260 429 242 429 q 264 429 263 429 q 410 619 346 542 q 485 697 474 697 q 502 688 496 697 q 508 669 508 679 q 281 372 397 532 l 283 363 l 333 367 q 563 415 439 374 q 765 508 686 456 q 929 713 929 619 q 875 781 929 753 q 706 808 821 808 q 392 752 590 808 q 117 629 194 696 q 101 599 94 610 q 103 586 107 588 q 90 590 99 585 q 53 632 61 607 q 46 669 46 657 q 53 688 46 682 q 258 813 99 754 q 551 891 417 872 q 751 910 686 910 q 858 901 815 910 q 933 864 900 893 q 985 743 985 821 q 928 601 985 667 q 781 484 871 536 q 564 390 692 432 q 290 342 415 342 q 469 117 335 231 q 690 4 603 4 q 751 21 725 4 q 782 63 778 38 q 789 67 782 69 q 792 60 792 63 q 633 -33 781 -33 q 457 11 549 -33 q 301 122 365 56 q 199 260 236 189 q 17 -42 51 46 q -6 -64 8 -64 q -21 -51 -21 -64 z "},"S":{"ha":819,"x_min":-11,"x_max":1154,"o":"m 1064 800 q 1025 818 1053 818 q 973 811 997 818 q 915 792 949 804 q 828 750 861 769 q 594 594 703 683 q 481 460 486 504 q 518 403 478 425 q 599 363 553 382 q 665 335 644 344 q 776 188 776 279 q 753 110 776 147 q 640 13 715 51 q 478 -40 564 -25 q 331 -56 389 -56 q 119 -10 225 -56 q -11 131 14 35 q 131 65 40 85 q 303 46 221 46 q 484 65 425 47 q 587 108 543 83 q 667 165 631 132 q 704 237 704 197 q 651 308 704 276 q 567 343 647 311 q 445 414 488 375 q 403 503 403 453 q 519 695 403 597 q 774 847 636 793 q 1010 901 913 901 q 1115 877 1078 901 q 1153 810 1153 853 q 1153 797 1153 804 q 1001 618 1149 754 q 906 506 947 568 q 865 397 865 444 q 865 389 865 393 q 822 478 822 422 q 865 600 822 528 q 1064 800 928 706 z "},"T":{"ha":601,"x_min":-25,"x_max":1238,"o":"m 1194 704 q 1042 794 1194 769 q 838 808 953 808 q 586 794 724 808 q 86 694 244 760 q 19 585 -40 644 q 17 578 26 578 q 0 585 7 578 q -24 640 -24 608 q -10 699 -24 671 q 38 758 3 728 q 121 808 72 789 q 467 892 269 867 q 669 906 582 906 q 1086 842 921 906 q 1222 750 1194 799 q 1238 700 1238 725 q 1222 649 1238 675 q 1183 619 1204 624 q 1164 626 1163 615 q 1181 661 1167 639 q 1194 704 1194 683 m 378 71 q 368 -15 368 8 q 417 -106 368 -93 q 432 -108 424 -108 l 469 -93 q 481 -90 481 -83 q 472 -103 481 -97 q 414 -122 450 -122 q 400 -122 407 -122 q 276 19 276 -112 q 308 183 276 92 q 403 370 340 275 q 675 760 465 465 q 701 782 692 782 q 714 778 710 782 q 718 769 718 774 q 717 763 718 765 q 378 71 421 322 z "},"U":{"ha":936,"x_min":6,"x_max":1171,"o":"m 1140 796 q 1169 783 1169 796 q 1165 775 1169 779 q 839 267 1038 651 q 717 -71 717 32 q 767 -149 717 -136 q 784 -150 772 -150 q 806 -140 796 -150 q 819 -135 817 -131 q 813 -146 821 -140 q 747 -174 781 -174 q 628 -68 628 -174 q 722 203 628 25 q 461 -40 581 18 q 384 -60 421 -60 q 317 -31 347 -60 q 269 74 269 10 q 335 299 269 156 q 461 561 401 442 q 538 783 538 715 q 436 869 538 869 q 143 775 318 869 q 69 731 90 747 q 39 714 49 714 q 15 735 24 714 q 6 776 6 756 q 16 813 6 797 q 35 836 26 829 q 265 917 100 889 q 435 932 349 932 q 585 896 521 932 q 650 789 650 860 q 646 753 650 772 q 500 444 632 685 q 342 122 368 203 q 326 45 326 78 q 341 -8 326 13 q 386 -29 356 -29 q 636 142 482 -29 q 792 341 728 246 q 940 569 856 436 q 1058 749 1025 703 q 1140 796 1090 796 z "},"V":{"ha":672,"x_min":14,"x_max":1339,"o":"m 446 88 q 1275 907 986 907 q 1336 883 1319 907 q 1339 876 1339 879 q 1333 871 1339 872 q 1319 871 1326 869 q 1308 872 1313 872 q 1108 788 1228 872 q 870 572 989 703 q 636 293 751 442 q 338 -132 413 7 q 327 -142 332 -142 q 316 -138 322 -142 q 315 -124 310 -135 q 385 -8 379 -17 q 268 -47 300 -47 q 263 -44 264 -47 q 393 658 393 438 q 379 773 393 718 q 338 850 365 828 q 281 872 310 872 q 185 816 233 872 q 90 655 136 760 q 43 433 43 550 q 44 397 43 415 q 38 379 46 379 q 32 388 35 381 q 14 468 14 422 q 57 708 14 626 q 164 840 100 790 q 332 913 254 913 q 418 886 376 913 q 524 571 524 818 q 446 88 524 374 z "},"W":{"ha":1131,"x_min":11,"x_max":1743,"o":"m 969 769 q 1050 621 1050 769 q 953 197 1050 472 q 1518 869 1293 733 q 1683 922 1607 922 q 1740 899 1724 922 q 1742 894 1742 896 q 1729 888 1742 888 q 1711 888 1717 888 q 1557 828 1647 888 q 1379 677 1467 768 q 1189 456 1292 586 q 883 31 1029 251 q 801 -10 875 14 q 722 -35 728 -35 q 715 -33 715 -35 q 739 21 715 -32 q 781 120 763 74 q 826 236 800 167 q 910 490 886 392 q 933 624 933 589 q 894 683 933 683 q 639 485 815 683 q 433 217 528 361 q 306 -39 372 71 q 219 -79 296 -54 q 134 -104 142 -104 q 128 -101 126 -104 q 343 358 293 225 q 415 566 393 490 q 438 702 438 642 q 410 797 438 763 q 350 832 383 832 q 278 808 317 832 q 119 628 197 763 q 32 360 40 493 q 26 342 31 343 q 18 349 21 340 q 11 406 11 369 q 31 528 11 443 q 92 676 50 614 q 192 782 133 738 q 417 865 299 865 q 518 821 481 865 q 558 685 558 774 q 497 372 558 557 q 640 547 558 463 q 814 701 721 632 q 969 769 907 769 z "},"X":{"ha":694,"x_min":-199,"x_max":1111,"o":"m 182 329 q 131 594 131 467 q 160 765 131 721 q 240 811 175 794 q 280 818 264 818 q 296 806 296 818 q 290 789 296 799 q 254 626 254 733 q 274 425 254 518 q 1094 922 769 922 q 1110 917 1110 922 q 1106 911 1110 911 q 1099 911 1101 911 q 601 646 932 911 q 286 369 449 525 q 376 129 321 236 q 486 -7 432 22 q 535 -24 515 -24 q 619 4 596 -24 q 626 7 622 7 q 631 3 629 7 q 629 -4 632 0 q 518 -43 599 -43 q 350 50 438 -43 q 200 285 263 143 q -171 -124 -60 29 q -191 -142 -183 -142 q -199 -135 -199 -142 q -187 -112 -199 -128 q 182 329 -24 108 z "},"Y":{"ha":1267,"x_min":11,"x_max":1228,"o":"m 797 658 q 786 634 797 658 q 754 572 775 610 q 650 394 733 535 q 524 166 567 254 q 481 35 481 78 q 515 -8 481 -8 q 635 60 554 -8 q 783 208 715 129 q 881 331 851 288 q 1158 833 1106 657 q 1179 868 1168 865 q 1199 860 1192 879 q 1226 671 1226 783 q 1189 403 1226 558 q 742 -336 1068 -104 q 463 -435 606 -435 q 224 -345 321 -435 q 104 -65 126 -256 q 107 -47 103 -51 q 117 -47 111 -42 q 124 -62 122 -51 q 224 -299 143 -207 q 411 -390 306 -390 q 649 -275 529 -390 q 772 -135 724 -203 q 894 42 832 -53 q 1176 769 1176 471 q 1176 797 1176 783 q 1064 543 1143 685 q 813 194 951 344 q 492 -39 596 -39 q 439 17 439 -39 q 465 123 439 54 q 522 250 492 192 q 652 483 581 363 q 738 652 724 603 q 753 729 753 701 q 604 831 753 831 q 206 747 456 831 q 33 638 33 688 q 58 601 33 619 q 57 597 65 597 q 43 600 49 596 q 13 656 13 621 q 97 783 13 733 q 343 878 199 842 q 625 918 499 918 q 833 813 822 918 q 833 784 833 801 q 826 737 833 767 q 797 658 819 707 z "},"Z":{"ha":1032,"x_min":-12,"x_max":1079,"o":"m 1001 -32 q 728 47 1001 47 q 165 -4 517 47 q 75 -19 99 -15 q 46 -24 51 -24 q -3 8 18 -24 q -12 39 -12 22 q 10 72 -12 56 q 100 124 60 106 l 104 126 q 567 519 304 326 q 1021 774 829 713 q 796 821 968 821 q 363 746 528 821 q 269 656 269 704 q 293 604 269 631 q 291 599 299 599 q 276 604 283 599 q 247 666 247 632 q 272 740 247 700 q 678 911 368 890 q 783 913 718 913 q 918 900 849 913 q 1074 781 1074 869 q 1074 771 1074 775 q 1079 760 1079 765 q 1071 749 1079 754 q 1063 718 1069 735 q 1053 699 1057 701 q 1049 701 1050 697 q 1053 715 1049 704 q 1056 739 1057 725 l 1051 736 q 579 464 813 628 q 168 143 346 300 q 431 169 253 169 q 961 74 821 169 q 1018 -17 1018 35 q 1010 -56 1018 -37 q 996 -75 1003 -75 q 994 -60 986 -75 q 1001 -32 1001 -46 z "},"[":{"ha":554,"x_min":0,"x_max":850,"o":"m 331 -110 l 158 -114 q 60 -102 108 -114 q 1 -65 11 -90 q 0 -60 0 -64 q 59 88 0 -33 q 225 381 118 208 q 483 731 360 599 q 545 783 504 753 q 614 816 586 813 q 690 819 642 819 q 838 811 739 819 q 850 800 850 810 q 832 782 850 783 q 628 772 706 782 q 513 688 575 768 q 272 294 383 518 q 161 -17 161 71 q 165 -49 161 -35 q 220 -71 178 -62 q 336 -81 263 -79 q 348 -89 346 -82 q 345 -103 350 -96 q 331 -110 340 -110 z "},"\\":{"ha":757,"x_min":26,"x_max":703,"o":"m 44 818 l 94 811 q 244 617 110 811 q 522 192 379 424 q 701 -156 701 -99 q 694 -175 701 -171 q 683 -179 686 -179 q 667 -164 674 -179 q 410 269 607 -24 q 35 792 213 561 q 26 810 26 803 q 44 818 26 818 z "},"]":{"ha":554,"x_min":-69,"x_max":779,"o":"m 449 817 l 593 822 q 778 774 761 822 q 779 768 779 772 q 720 620 779 742 q 555 326 661 499 q 342 27 449 154 q 160 -110 235 -100 q 88 -112 136 -112 q -57 -104 39 -112 q -69 -93 -69 -103 q -51 -75 -69 -76 q 153 -65 57 -75 q 268 21 206 -58 q 508 413 396 188 q 619 728 619 639 q 615 757 619 744 q 560 778 603 771 q 443 788 517 786 q 432 803 429 790 q 449 817 435 817 z "},"^":{"ha":463,"x_min":1,"x_max":447,"o":"m 418 474 q 434 476 422 474 q 446 469 446 478 q 416 452 446 460 q 350 444 386 444 q 282 467 314 444 q 229 554 231 501 q 117 485 175 510 q 19 460 58 460 q 3 465 3 460 q 8 479 3 469 q 20 488 14 489 q 28 488 26 488 q 125 521 64 488 q 243 600 186 554 q 295 655 257 624 q 336 686 333 686 q 331 665 342 686 q 319 619 319 643 q 360 503 319 547 q 418 474 388 474 z "},"_":{"ha":772,"x_min":0,"x_max":772,"o":"m 772 -174 l 0 -174 l 0 -104 l 772 -104 l 772 -174 z "},"`":{"ha":425,"x_min":47,"x_max":333,"o":"m 314 486 q 332 477 332 483 q 319 471 332 471 q 169 505 244 471 q 72 563 94 539 q 49 597 49 588 q 54 615 49 607 q 90 631 60 624 q 125 639 119 639 q 128 633 131 639 q 125 621 125 628 q 188 544 125 593 q 314 486 251 496 z "},"a":{"ha":669,"x_min":-8,"x_max":740,"o":"m 510 214 q 502 205 510 214 q 478 175 494 196 q 438 118 463 154 q 414 57 414 82 q 435 32 414 32 q 506 58 457 32 q 721 225 603 114 q 739 229 735 239 q 739 224 739 228 q 733 214 739 219 q 386 -11 494 -11 q 333 10 354 -11 q 311 61 311 32 q 336 150 311 90 q 202 30 274 72 q 90 -12 131 -12 q 22 12 50 -12 q -7 72 -7 36 q 85 274 -7 175 q 257 378 154 347 q 347 393 303 393 q 431 369 390 393 q 483 311 472 344 q 543 281 525 311 q 546 267 546 276 q 535 244 546 257 q 510 214 525 232 m 408 351 q 339 333 379 351 q 204 228 268 303 q 103 53 103 108 q 126 24 103 24 q 191 49 146 24 q 310 147 236 74 q 342 178 314 151 q 389 224 369 204 q 454 322 454 292 q 408 351 454 351 z "},"b":{"ha":556,"x_min":-75,"x_max":544,"o":"m 544 322 q 447 111 544 225 q 289 -14 375 26 q 209 -35 243 -35 q 147 -16 175 -35 q 119 42 119 3 q 131 118 119 81 q 54 14 82 44 q 1 -17 26 -17 q -6 -17 -1 -17 q -75 13 -42 -17 q 65 218 15 139 q -14 147 33 186 q -31 144 -26 138 q -21 164 -36 150 q 38 214 21 199 q 168 386 92 267 q 381 794 381 715 q 353 824 381 822 q 350 826 350 824 q 353 829 350 829 q 426 744 417 826 q 426 732 426 739 q 246 307 426 624 q 386 404 315 376 q 451 418 421 418 q 507 404 481 418 q 544 322 544 374 m 353 332 q 297 314 331 332 q 192 211 238 282 q 138 54 138 129 q 165 -11 138 4 q 203 -21 181 -21 q 261 -3 226 -21 q 367 99 319 26 q 419 256 419 181 q 353 332 419 332 z "},"c":{"ha":475,"x_min":-7,"x_max":539,"o":"m 403 329 q 375 356 403 356 q 302 334 351 356 q 192 242 253 313 q 118 86 118 154 q 157 17 118 35 q 186 11 169 11 q 320 60 243 11 q 519 221 397 108 q 539 221 539 240 q 531 206 539 213 q 281 13 361 50 q 156 -24 201 -24 q -6 94 -6 -24 q 101 298 -6 213 q 322 383 207 383 q 419 350 394 383 q 435 315 435 333 q 425 276 435 296 q 394 256 415 256 q 388 283 372 256 q 403 329 403 310 z "},"d":{"ha":547,"x_min":-33,"x_max":813,"o":"m 403 64 q 376 -54 376 -8 q 396 -124 376 -100 q 397 -131 400 -129 q 393 -133 394 -133 q 389 -132 392 -133 q 344 -24 344 -96 q 374 140 344 47 q 261 19 317 67 q 125 -36 194 -36 q 42 -6 81 -36 q 3 92 3 24 q 15 168 1 125 q -20 138 -12 143 q -31 138 -28 132 q -33 148 -33 143 q -24 160 -33 153 q 72 263 -15 168 q 194 351 124 319 q 329 383 265 383 q 415 363 388 383 q 442 313 442 343 q 549 513 492 418 q 639 644 607 608 q 726 683 674 683 q 813 654 779 683 q 699 535 783 636 q 533 317 614 433 q 403 64 453 201 m 414 326 q 379 354 414 354 q 332 343 361 354 q 203 246 267 318 q 124 74 124 156 q 156 15 124 25 q 169 13 163 13 q 339 126 226 13 q 390 189 369 156 q 419 263 401 221 q 399 260 407 254 q 403 288 392 267 q 414 326 414 310 z "},"e":{"ha":475,"x_min":-7,"x_max":540,"o":"m 324 217 q 397 299 397 257 q 347 340 397 340 q 297 328 324 340 q 185 236 239 301 q 118 86 118 156 q 133 37 118 60 q 185 14 147 14 q 350 83 250 14 q 522 221 450 151 q 539 222 539 238 q 531 206 539 213 q 462 142 479 158 q 393 85 444 126 q 310 28 342 44 q 142 -24 211 -24 q 34 8 74 -24 q -6 94 -6 39 q 100 298 -6 213 q 321 383 206 383 q 425 350 399 383 q 436 315 436 333 q 424 274 436 296 q 330 198 399 231 q 200 165 261 165 q 174 169 176 165 q 178 176 172 174 q 193 178 183 178 q 324 217 249 178 z "},"f":{"ha":349,"x_min":-6,"x_max":653,"o":"m 651 569 q 647 564 651 564 q 640 571 642 564 q 608 620 632 603 q 567 638 585 638 q 536 639 550 639 q 443 611 486 639 q 253 411 361 558 q 356 383 329 404 q 397 326 407 344 q 372 333 394 319 q 304 346 350 346 q 197 329 258 346 q 56 42 101 189 q 36 -64 36 -22 q 54 -126 36 -106 q 56 -133 60 -132 q 50 -135 51 -135 q 47 -133 49 -135 q -4 -1 -4 -92 q 81 285 -4 89 q 70 285 74 282 q 62 297 67 288 q 54 322 57 307 q 55 351 51 336 q 75 381 58 365 q 140 407 94 397 q 339 663 243 597 q 471 706 403 706 q 588 672 539 706 q 651 569 651 628 z "},"g":{"ha":571,"x_min":-411,"x_max":553,"o":"m -129 -381 q -330 -328 -250 -381 q -410 -178 -410 -275 q -406 -172 -410 -172 q -393 -183 -396 -172 q -325 -306 -381 -254 q -256 -344 -300 -329 q -183 -360 -212 -360 q -146 -360 -154 -360 q 124 -204 8 -351 q 219 -66 178 -135 q 310 88 261 3 q 392 217 358 172 q 283 106 349 168 q 171 15 218 43 q 83 -12 124 -12 q 15 12 43 -12 q -14 72 -14 36 q 78 274 -14 175 q 250 378 147 347 q 340 393 296 393 q 424 369 383 393 q 476 311 465 344 q 525 292 499 311 q 551 265 551 274 q 540 251 551 257 q 400 57 496 229 q 182 -239 307 -108 q 37 -342 119 -304 q -129 -381 -46 -381 m 86 56 q 119 24 86 24 q 185 53 146 24 q 382 235 279 115 q 429 319 429 289 q 422 340 429 331 q 389 349 414 349 q 309 319 364 349 q 197 231 254 290 q 113 126 139 172 q 86 56 86 79 z "},"h":{"ha":557,"x_min":-26,"x_max":750,"o":"m 382 339 q 356 357 382 357 q 240 290 308 357 q 180 221 224 274 q 94 100 136 168 l 60 24 l 64 38 q 58 21 61 32 l 58 21 q 18 -7 51 4 q 6 -10 11 -10 q 3 11 -8 -10 q 42 110 8 25 q 96 247 75 196 q -6 150 42 188 q -25 147 -19 139 q -26 153 -26 149 q -14 168 -26 157 q 119 304 71 242 q 252 540 156 389 q 450 789 349 690 q 597 881 518 857 q 665 892 633 892 q 723 874 696 892 q 750 810 750 857 q 708 683 750 747 q 561 541 667 619 q 365 424 456 463 q 346 426 349 417 q 360 442 343 435 q 541 556 440 478 q 676 688 642 633 q 710 777 710 743 q 681 811 710 811 q 575 756 647 811 q 351 515 468 669 q 149 204 233 361 q 219 296 188 260 q 371 383 297 383 q 453 322 440 383 q 454 299 454 314 q 444 253 454 283 q 385 144 433 224 q 338 47 338 64 q 349 31 338 31 q 394 50 364 31 q 597 214 472 99 q 613 219 614 231 q 604 199 613 208 q 392 22 501 93 q 299 -11 340 -11 q 278 -8 288 -11 q 224 52 224 3 q 263 163 224 101 q 314 228 269 172 q 382 339 382 311 z "},"i":{"ha":378,"x_min":-33,"x_max":422,"o":"m 281 424 q 273 430 281 424 q 268 460 265 436 q 293 510 271 483 q 353 536 315 536 q 376 526 364 536 q 386 491 389 515 q 364 445 383 467 q 320 417 344 424 q 281 424 296 411 m 263 350 q 167 202 206 292 q 129 76 129 113 q 158 40 129 40 q 252 82 186 40 q 403 200 318 124 q 421 196 421 217 q 418 190 421 193 q 306 94 351 132 q 197 23 260 57 q 93 -11 133 -11 q 19 11 43 -11 q -6 60 -6 33 q 13 139 -6 110 q 74 219 31 168 q 26 178 58 207 q -19 139 -7 149 q -32 144 -32 129 q -10 172 -32 154 q 87 264 13 190 q 188 351 161 338 q 233 365 215 365 q 258 360 250 365 q 263 350 267 356 z "},"j":{"ha":219,"x_min":-744,"x_max":271,"o":"m 164 424 q 156 430 164 424 q 151 460 149 436 q 176 510 154 483 q 236 536 199 536 q 258 526 247 536 q 269 506 269 517 q 268 481 269 494 q 247 445 267 467 q 203 417 228 424 q 164 424 179 411 m 163 292 q 81 49 163 213 q -76 -194 -1 -115 q -261 -328 -150 -272 q -478 -383 -372 -383 q -656 -335 -583 -383 q -743 -181 -743 -275 q -737 -174 -743 -174 q -729 -183 -731 -175 q -656 -310 -715 -261 q -509 -358 -596 -358 q -296 -260 -422 -358 q -71 -25 -169 -162 q 88 238 32 113 q 14 167 64 207 q 7 167 11 164 q 4 183 -3 174 q 113 328 101 261 q 96 356 113 350 q 94 365 89 360 q 108 369 100 369 q 160 321 147 369 q 163 292 163 308 z "},"k":{"ha":463,"x_min":-31,"x_max":739,"o":"m 74 126 q 36 -28 36 35 q 54 -111 36 -90 q 56 -119 58 -117 q 51 -121 53 -121 q 47 -119 50 -121 q -3 -37 3 -82 q -6 -4 -6 -22 q 42 194 -6 76 q -31 142 -28 125 q -11 170 -29 154 q 71 264 7 186 q 435 779 210 572 q 646 888 551 888 q 736 824 724 888 q 739 803 739 814 q 503 525 739 685 q 353 440 421 469 q 333 442 336 433 q 347 458 331 451 q 493 546 411 488 q 640 673 575 604 q 706 779 706 742 q 679 803 706 803 q 603 772 653 803 q 299 475 464 688 q 129 233 196 343 q 329 404 226 363 q 394 418 368 418 q 440 410 421 418 q 478 354 478 393 q 396 224 478 285 q 288 176 349 190 q 197 161 228 161 q 146 169 167 161 q 262 71 190 113 q 378 29 333 29 q 424 43 407 29 q 440 66 440 57 q 444 75 440 75 q 447 72 447 75 q 374 6 447 24 q 297 -1 343 -1 q 192 28 250 -1 q 74 126 103 69 m 381 313 q 335 361 381 361 q 217 303 282 361 q 122 207 153 244 q 133 186 125 200 q 172 176 150 176 q 242 190 193 176 q 335 237 290 203 q 381 313 381 271 z "},"l":{"ha":408,"x_min":-11,"x_max":549,"o":"m 104 57 q 142 19 104 19 q 212 38 164 19 q 336 117 260 56 q 439 205 413 178 q 471 231 465 232 q 475 223 476 231 q 468 210 474 215 q 272 36 350 89 q 128 -17 194 -17 q 49 10 71 -17 q 26 71 26 36 q 71 221 26 133 q -10 165 -10 135 q -1 178 -10 171 q 139 331 64 231 q 354 646 276 510 q 368 685 368 672 q 336 696 368 714 q 297 682 300 678 q 301 693 294 686 q 393 740 335 718 q 489 764 451 763 q 547 728 547 764 q 527 672 547 707 q 412 534 507 638 q 296 404 317 431 q 114 106 153 217 q 104 57 104 76 z "},"m":{"ha":719,"x_min":-79,"x_max":753,"o":"m 647 310 q 560 140 647 258 q 507 53 507 69 q 524 36 507 36 q 574 57 542 36 q 732 188 653 111 q 747 193 743 199 q 751 185 751 188 q 721 153 751 182 q 653 92 690 124 q 561 26 617 60 q 469 -8 506 -8 q 394 58 394 -8 q 403 114 394 82 q 560 324 421 168 q 578 354 578 343 q 550 365 578 365 q 463 317 522 365 q 411 267 442 300 q 340 163 381 235 q 279 35 299 90 q 246 10 271 10 q 232 11 240 10 q 211 36 206 18 q 340 278 319 229 q 361 347 361 326 q 344 368 361 368 q 133 128 271 368 q 53 17 83 50 q -3 -17 22 -17 q -8 -17 -6 -17 q -79 13 -44 -17 q -39 67 -71 25 q 85 233 32 153 q -17 140 25 174 q -33 139 -31 129 q -26 156 -35 149 q 1 181 -18 164 q 27 204 21 199 q 51 226 33 210 q 76 251 68 242 q 133 329 115 297 q 140 362 140 346 q 133 383 139 378 q 128 394 126 388 q 139 406 128 406 q 151 403 144 406 q 194 318 194 383 q 179 233 194 279 q 239 318 207 276 q 353 392 296 392 q 392 347 392 392 q 333 199 392 306 q 424 308 392 274 q 565 385 497 385 q 647 322 638 385 q 647 310 647 315 z "},"n":{"ha":547,"x_min":-79,"x_max":571,"o":"m 372 311 q 392 346 392 333 q 366 358 392 358 q 285 310 340 358 q 160 161 233 265 q 55 20 88 57 q -3 -17 22 -17 q -8 -17 -6 -17 q -79 13 -44 -17 q -39 67 -71 25 q 85 233 32 153 q -17 140 25 174 q -33 139 -31 129 q -26 156 -35 149 q 1 181 -18 164 q 27 204 21 199 q 51 226 33 210 q 76 251 68 242 q 133 329 115 297 q 140 362 140 346 q 133 383 139 378 q 128 394 126 388 q 139 406 128 406 q 151 403 144 406 q 194 326 194 383 q 169 203 194 268 q 251 304 224 274 q 393 385 324 385 q 474 326 461 385 q 475 301 475 318 q 462 254 475 283 q 400 158 449 225 q 344 74 351 92 q 339 49 336 57 q 351 39 342 40 q 408 61 368 36 q 556 185 465 101 q 571 182 571 200 q 564 168 571 175 q 364 13 429 43 q 244 0 288 -26 q 218 47 218 17 q 229 107 218 76 q 372 311 254 178 z "},"o":{"ha":518,"x_min":-31,"x_max":540,"o":"m 244 24 q 82 -24 151 -24 q 3 15 24 -24 q -8 60 -8 35 q 18 171 -8 117 q -17 142 0 153 q -31 144 -31 129 q -6 175 -31 154 q 68 245 18 196 q 147 319 118 294 q 326 390 232 390 q 397 372 361 390 q 450 281 450 347 q 369 115 450 200 q 281 43 338 79 q 522 181 394 61 q 535 185 529 186 q 540 179 540 185 q 535 168 540 174 q 250 24 382 24 q 244 24 247 24 m 379 169 q 414 259 414 222 q 382 315 414 296 q 340 331 364 331 q 184 264 256 331 q 89 122 113 197 q 79 67 79 96 q 101 27 79 39 q 149 15 122 15 q 225 42 175 15 q 217 44 222 42 q 200 67 200 53 q 254 165 200 115 q 333 200 293 200 q 379 169 374 200 z "},"p":{"ha":518,"x_min":-211,"x_max":528,"o":"m 528 321 q 433 115 528 224 q 281 -6 363 32 q 204 -28 235 -28 q 154 -14 174 -28 q 121 51 121 8 q 144 150 121 94 q -162 -375 -162 -289 q -159 -390 -162 -383 q -161 -397 -156 -396 l -165 -396 q -210 -304 -210 -357 q 38 189 -210 -183 q -29 142 -29 122 q -14 167 -29 153 q 133 326 54 225 q 235 451 213 428 q 292 474 258 474 q 358 439 325 474 q 254 301 331 406 q 389 389 321 364 q 449 401 422 401 q 501 384 475 401 q 528 321 528 367 m 142 63 q 190 0 142 0 q 274 28 218 0 q 384 119 331 56 q 460 233 438 182 q 482 315 482 283 q 438 372 482 372 q 347 343 408 372 q 233 251 286 314 q 142 63 142 146 z "},"q":{"ha":482,"x_min":-15,"x_max":549,"o":"m 333 -25 q 149 -385 149 -300 q 172 -424 149 -410 q 167 -432 178 -428 q 94 -347 107 -422 q 93 -314 93 -335 q 103 -251 93 -293 q 125 -181 113 -210 q 288 108 179 -61 q 183 24 243 60 q 83 -12 124 -12 q 15 12 43 -12 q -14 72 -14 36 q 78 274 -14 175 q 250 378 147 347 q 340 393 296 393 q 424 369 383 393 q 476 311 465 344 q 488 307 486 311 q 549 281 519 301 q 333 -25 467 175 m 92 49 q 119 19 92 19 q 188 51 142 19 q 267 115 235 82 q 349 204 300 149 q 406 269 397 260 q 438 318 438 301 q 390 350 438 350 q 326 333 364 350 q 203 233 261 303 q 92 49 92 103 z "},"r":{"ha":501,"x_min":-28,"x_max":571,"o":"m 382 278 q 283 148 321 207 q 244 65 244 89 q 273 40 244 40 q 390 97 301 40 q 553 225 478 154 q 565 231 560 232 q 571 224 571 229 q 565 211 571 218 q 292 6 386 47 q 232 -11 250 -11 q 141 11 165 -11 q 117 60 117 33 q 138 140 117 113 q 246 303 206 236 q 241 330 258 322 q 198 338 224 338 q 171 339 172 338 q -14 142 78 214 q -26 142 -25 132 q -11 168 -26 153 q 149 344 86 251 q 136 367 136 353 q 138 403 136 382 q 160 458 140 424 q 229 517 193 517 q 260 483 260 517 q 217 383 260 438 q 178 347 196 358 q 328 364 229 364 q 397 328 376 364 q 400 311 400 322 q 382 278 400 300 z "},"s":{"ha":426,"x_min":-82,"x_max":496,"o":"m -81 76 q -82 81 -82 78 q -77 83 -82 83 q -71 78 -72 83 q 11 22 -46 22 q 135 92 82 22 q 203 199 174 143 q 253 289 233 256 q 316 364 274 322 q 393 415 358 406 q 365 419 385 419 q 292 391 346 419 q 186 319 239 363 q 72 219 133 275 q -1 154 11 164 q -17 154 -14 144 q -10 172 -19 164 q 94 267 26 203 q 198 362 163 332 q 278 413 233 392 q 344 435 322 435 q 413 415 400 435 q 353 335 376 400 q 302 183 331 269 q 231 49 274 97 q 342 113 267 63 q 476 224 418 164 q 494 226 489 235 q 494 220 494 224 q 468 190 494 217 q 403 131 442 164 q 308 58 365 99 q 72 -25 190 -25 q -81 76 -47 -25 z "},"t":{"ha":385,"x_min":-21,"x_max":489,"o":"m 249 476 q 264 499 249 476 q 298 549 279 522 q 328 589 317 576 q 378 610 339 601 q 453 619 417 619 q 489 612 489 619 q 429 547 489 604 q 290 396 369 490 q 414 336 385 381 q 417 311 425 317 q 400 315 410 306 q 307 344 371 344 q 244 339 279 344 q 103 103 132 194 q 93 58 93 76 q 133 10 93 10 q 254 69 176 10 q 431 221 356 146 q 449 228 444 236 q 442 210 453 219 q 241 26 322 85 q 92 -33 160 -33 q -1 65 -1 -33 q 25 178 -1 113 l 0 154 q -16 148 -11 143 q -21 157 -21 153 q -10 171 -21 161 q 129 306 92 260 q 94 304 103 296 q 81 326 85 313 q 95 360 78 340 q 147 390 113 381 q 197 400 181 399 q 249 476 218 431 z "},"u":{"ha":636,"x_min":15,"x_max":636,"o":"m 311 214 q 304 203 311 214 q 274 161 297 193 q 229 100 250 129 q 208 56 208 71 q 222 42 208 42 q 296 86 247 42 l 340 129 q 460 271 408 203 l 511 333 q 561 361 535 360 q 636 331 601 361 q 609 294 628 318 q 572 247 590 271 q 528 190 553 222 q 486 131 504 158 q 449 72 468 103 q 422 18 431 40 q 424 -58 401 -43 q 421 -65 431 -65 q 415 -64 418 -65 q 363 22 363 -46 q 407 183 363 90 q 165 -8 258 -8 q 94 58 94 -8 q 104 114 94 82 q 246 311 125 176 q 261 342 261 329 q 244 354 261 354 q 194 329 228 354 q 101 248 161 304 q 28 181 42 192 q 15 186 15 169 q 42 216 15 194 q 114 285 68 238 q 194 359 160 333 q 272 385 228 385 q 340 347 322 385 q 347 311 347 333 q 336 262 347 289 q 311 214 325 235 z "},"v":{"ha":425,"x_min":-35,"x_max":531,"o":"m 529 413 q 531 407 531 410 q 526 406 531 404 q 519 410 521 407 q 493 431 510 431 q 314 225 443 431 q 179 40 233 94 q 114 1 151 13 q 60 -10 76 -10 q 33 -6 43 -10 q 81 98 56 26 q 119 224 106 169 q 131 279 132 279 l 72 221 q -17 140 28 175 q -33 142 -33 126 q -26 157 -33 150 q 1 181 -18 164 q 27 204 21 199 q 51 226 33 210 q 76 251 68 242 q 133 329 115 297 q 140 362 140 346 q 133 383 139 378 q 128 394 126 388 q 151 403 129 411 q 204 339 200 381 q 208 281 208 318 q 194 167 208 244 q 142 28 181 86 q 285 228 204 68 q 413 433 367 389 q 461 453 432 453 q 529 413 513 453 z "},"w":{"ha":719,"x_min":-32,"x_max":760,"o":"m 628 193 q 621 147 621 168 q 638 125 621 125 q 694 157 656 125 q 746 201 733 189 q 758 197 758 214 q 754 186 758 190 q 689 126 710 142 q 622 96 650 96 q 572 146 578 96 q 360 -11 439 -11 q 288 10 311 -11 q 265 54 265 31 q 272 111 265 78 q 90 -11 161 -11 q 18 10 42 -11 q -6 58 -6 32 q 13 139 -6 110 q 74 219 31 168 q -22 139 -14 146 q -31 142 -29 132 q -15 168 -31 154 q 90 265 18 193 q 188 351 161 338 q 233 365 215 365 q 258 360 250 365 q 263 350 267 356 q 183 236 222 310 q 131 72 131 133 q 132 56 131 63 q 186 60 140 29 q 224 90 203 71 q 317 200 246 108 q 418 307 389 292 q 465 322 447 322 q 494 313 483 322 q 499 299 504 304 q 403 106 428 224 q 404 51 394 57 q 423 45 414 44 q 444 53 432 46 q 569 171 500 83 q 626 360 574 301 q 713 388 649 388 q 738 371 740 388 l 729 357 q 628 193 644 253 z "},"x":{"ha":431,"x_min":-154,"x_max":613,"o":"m -126 -131 q -144 -143 -135 -143 q -154 -139 -154 -143 q -150 -129 -154 -135 q 115 176 -26 36 l 114 176 q 93 281 93 232 q 115 372 93 340 q 178 413 131 393 q 224 421 226 433 q 221 415 222 418 q 199 335 199 379 q 203 258 199 290 q 601 471 443 471 q 613 468 613 471 q 610 465 613 465 q 607 465 607 465 q 318 313 513 465 q 210 219 282 283 q 253 93 225 150 q 350 8 296 8 q 392 25 379 8 q 397 26 394 28 q 397 21 400 24 q 342 -7 376 -7 q 129 144 204 -7 q -126 -131 -43 -19 z "},"y":{"ha":579,"x_min":-362,"x_max":686,"o":"m 244 311 q 261 342 261 329 q 244 354 261 354 q 194 329 228 354 q 92 240 160 304 q 10 166 24 176 q -3 165 -3 156 q 14 190 -4 175 q 94 268 32 204 q 192 358 157 332 q 271 385 226 385 q 339 347 321 385 q 347 311 347 333 q 336 262 347 289 q 310 213 325 235 q 273 161 296 192 q 228 100 250 131 q 207 56 207 69 q 218 42 207 42 q 421 222 272 42 q 542 381 492 307 q 619 493 586 483 q 650 497 632 497 q 676 482 668 497 q 685 458 685 467 q 673 445 685 450 q 652 441 661 440 q 640 442 643 442 q 572 383 600 442 q 530 268 556 347 q 482 122 504 189 q 408 -33 460 56 q 283 -200 357 -122 q 109 -331 210 -278 q -97 -383 8 -383 q -274 -335 -203 -383 q -362 -185 -346 -286 q -360 -175 -362 -178 q -353 -175 -357 -172 q -349 -183 -349 -178 q -274 -310 -335 -261 q -135 -358 -214 -358 q 78 -278 -31 -358 q 283 -69 188 -199 q 507 311 378 61 q 431 206 475 263 q 164 -8 257 -8 q 93 58 93 -8 q 103 114 93 82 q 244 311 122 169 z "},"z":{"ha":582,"x_min":-400,"x_max":486,"o":"m 242 194 q 364 266 364 246 q 247 286 364 286 q 81 232 99 286 q 58 271 58 247 q 60 282 58 276 q 286 385 88 385 q 301 385 293 385 q 408 362 378 385 q 439 314 439 339 q 375 228 439 269 q 217 163 332 200 q 293 165 244 165 q 401 142 342 165 q 481 67 461 118 q 486 21 486 50 q 461 -57 486 -8 q 322 -209 424 -129 q 114 -335 221 -289 q -262 -425 -99 -425 q -387 -385 -353 -425 q -399 -358 -399 -371 q -392 -326 -399 -346 q -356 -275 -385 -306 q -137 -147 -290 -206 q 139 -87 17 -87 q 265 -111 228 -87 q 283 -133 283 -124 q 267 -137 283 -142 q 215 -133 251 -133 q 92 -151 178 -133 q -107 -212 7 -169 q -268 -322 -221 -256 q -283 -360 -283 -344 q -208 -399 -283 -399 q 89 -319 -90 -399 q 331 -143 238 -257 q 392 -14 392 -68 q 379 32 392 11 q 214 90 344 90 q 162 90 203 90 q 15 65 121 89 q -10 78 -11 60 q 24 122 -7 101 q 37 130 32 128 q 111 151 42 132 q 242 194 181 169 z "},"{":{"ha":554,"x_min":57,"x_max":825,"o":"m 825 833 q 810 818 825 817 q 706 826 754 826 q 622 815 658 826 q 490 697 553 794 q 167 482 379 522 q 153 478 158 482 q 179 467 171 471 q 206 456 188 464 q 235 443 225 449 q 260 428 246 438 q 281 410 275 419 q 294 392 288 401 q 288 346 306 372 q 197 115 226 258 q 189 33 189 76 q 211 -31 189 -11 q 256 -51 233 -51 q 372 -33 313 -51 q 384 -42 383 -31 q 371 -57 385 -53 q 226 -79 283 -79 q 133 -64 168 -79 q 58 56 58 -31 q 190 344 58 160 q 204 385 204 369 q 143 456 204 432 q 124 485 114 467 q 175 510 133 503 q 268 567 217 518 q 393 731 319 615 q 506 830 438 801 q 639 858 575 858 q 814 844 681 858 q 825 833 825 843 z "},"|":{"ha":319,"x_min":106,"x_max":224,"o":"m 206 924 q 222 685 222 919 q 206 195 222 450 q 161 -153 190 -60 q 122 -203 147 -196 q 117 -203 119 -203 q 106 -190 106 -203 q 107 -183 106 -186 q 149 446 149 -12 q 132 917 149 738 q 149 943 129 943 q 183 933 164 943 q 206 924 203 924 z "},"}":{"ha":590,"x_min":-146,"x_max":622,"o":"m 489 442 q 475 401 475 417 q 536 332 475 356 q 555 302 564 319 q 518 279 546 285 q 411 221 463 269 q 286 56 360 172 q 94 -64 215 -53 q 22 -69 47 -69 q -135 -57 -43 -69 q -146 -44 -146 -56 q -142 -35 -146 -40 q -108 -35 -139 -31 q -29 -39 -78 -39 q 58 -28 19 -39 q 189 90 126 -7 q 513 304 301 268 l 526 308 q 392 383 417 351 q 382 411 382 397 q 392 440 382 425 q 482 672 456 538 q 490 754 490 711 q 467 817 490 797 q 422 838 444 838 q 307 821 364 838 q 294 828 296 817 q 308 844 297 839 q 452 867 394 867 q 546 850 510 867 q 621 725 621 817 q 489 442 621 633 z "},"~":{"ha":811,"x_min":85,"x_max":726,"o":"m 553 256 q 410 303 494 256 q 253 350 325 350 q 135 250 181 350 l 85 328 q 258 447 147 447 q 417 400 313 447 q 551 353 521 353 q 605 369 581 353 q 642 403 629 386 q 676 453 656 421 l 726 375 q 553 256 651 256 z "},"":{"ha":371,"x_min":0,"x_max":0,"o":""},"":{"ha":364,"x_min":-99,"x_max":389,"o":"m 279 429 q 350 464 308 464 q 374 453 361 464 q 388 429 388 442 q 365 363 388 388 q 296 328 332 328 q 266 338 279 328 q 253 361 253 349 q 279 429 253 401 m 276 182 q 219 -25 276 92 q 117 -189 161 -142 q -54 -299 17 -299 q -89 -289 -79 -299 q -99 -267 -99 -279 q -77 -233 -99 -256 q -19 -180 -56 -211 q 35 -132 18 -149 q 151 24 94 -69 q 236 229 236 163 q 222 264 236 254 q 217 270 215 267 q 222 274 219 274 q 228 272 224 274 q 276 182 276 247 z "},"":{"ha":521,"x_min":74,"x_max":556,"o":"m 463 599 q 514 536 514 581 q 504 499 514 519 q 473 478 494 478 q 466 504 451 478 q 481 551 481 531 q 449 579 481 581 q 232 238 338 414 q 264 233 247 233 q 397 281 319 233 l 461 321 q 485 318 486 335 q 468 294 483 304 q 344 227 404 254 q 221 200 283 200 q 210 200 215 200 q 183 149 206 192 q 113 0 128 42 q 92 -18 107 -18 q 85 22 71 -18 q 179 203 99 63 q 103 239 132 210 q 75 317 75 268 q 182 521 75 435 q 406 607 289 607 l 431 606 q 533 744 524 744 q 554 735 554 744 q 526 690 554 725 q 463 599 499 654 m 175 307 q 207 249 175 269 q 406 568 289 385 l 392 561 q 258 461 329 533 q 175 307 175 376 z "},"":{"ha":786,"x_min":-64,"x_max":824,"o":"m -64 -24 q -6 47 -64 15 q 57 74 19 63 q 143 240 89 108 q 210 393 197 372 q 155 411 172 394 q 138 440 138 428 q 219 507 138 485 q 233 510 222 508 q 254 513 243 511 q 268 515 265 515 q 510 860 403 788 q 643 904 575 904 q 758 871 711 904 q 822 768 822 826 q 819 763 822 764 q 813 769 815 761 q 770 824 801 810 q 719 838 739 838 q 615 808 663 838 q 501 696 567 778 q 382 521 436 614 q 522 490 500 508 q 551 460 543 475 q 557 439 560 446 q 539 441 554 432 q 478 450 524 450 q 318 418 433 450 q 293 356 315 415 q 226 222 271 297 q 122 89 182 146 l 175 97 q 313 101 231 101 q 485 85 396 101 q 649 47 575 69 q 757 -13 724 24 q 790 -86 790 -50 q 785 -117 790 -101 q 775 -132 781 -132 q 768 -122 764 -132 q 772 -106 772 -112 q 699 -47 772 -75 q 353 1 565 1 q 158 -17 236 1 q -28 -50 7 -50 q -64 -24 -64 -50 z "},"":{"ha":907,"x_min":119,"x_max":800,"o":"m 125 133 q 121 164 121 133 q 125 218 121 194 q 135 246 129 242 q 251 338 153 257 q 213 472 213 399 q 250 601 213 544 q 135 694 182 656 q 122 733 122 700 q 128 807 122 807 l 297 657 q 460 718 368 718 q 624 654 553 718 l 793 807 q 800 771 800 807 q 785 694 800 701 q 668 603 778 688 q 707 469 707 542 q 668 338 707 396 q 785 246 769 254 q 800 174 800 235 q 794 135 800 133 l 624 286 q 460 224 554 224 q 294 286 365 224 l 125 133 m 336 594 q 310 568 336 594 q 283 468 283 542 q 336 342 283 394 q 463 289 389 289 q 589 342 536 289 q 642 468 642 394 q 589 594 642 542 q 463 647 536 647 q 336 594 389 647 z "},"":{"ha":672,"x_min":71,"x_max":1101,"o":"m 1099 925 q 1100 919 1100 922 q 1090 917 1100 917 q 1074 917 1079 917 q 796 762 963 917 q 492 407 629 607 q 613 397 544 406 q 632 383 631 394 q 615 372 633 372 q 463 364 532 371 q 399 254 431 314 q 529 243 454 251 q 549 229 549 240 q 532 218 550 218 q 379 210 449 217 q 374 196 374 199 q 331 -17 331 61 q 379 -106 331 -94 q 399 -108 386 -108 q 428 -97 413 -108 q 443 -91 443 -85 q 435 -103 443 -97 q 374 -122 410 -122 q 361 -122 368 -122 q 238 21 238 -112 q 269 196 238 86 q 85 171 163 181 q 72 189 72 169 q 74 206 72 196 q 99 244 79 243 q 289 254 194 251 l 318 346 q 167 325 206 329 q 156 360 150 324 q 181 399 163 397 q 336 408 260 406 q 340 420 338 413 q 343 432 342 428 q 368 661 368 536 q 366 740 368 689 q 342 839 364 790 q 271 907 313 907 q 212 876 247 907 q 136 756 176 846 q 96 579 96 667 q 97 551 96 564 q 94 536 99 538 q 88 542 90 535 q 75 603 75 568 q 108 791 75 729 q 190 892 142 853 q 319 949 258 949 q 388 928 356 949 q 467 713 467 876 q 456 542 467 629 q 436 421 444 454 q 663 695 531 565 q 925 903 794 825 q 1054 943 993 943 q 1099 925 1086 943 z "},"":{"ha":319,"x_min":106,"x_max":222,"o":"m 218 465 q 183 443 218 443 q 147 464 149 443 q 132 917 147 694 q 149 943 129 943 q 183 933 164 943 q 206 924 203 924 q 222 767 222 919 q 218 465 222 615 m 147 303 q 180 324 147 324 q 213 299 213 324 q 161 -153 194 -46 q 122 -203 147 -196 q 117 -203 119 -203 q 106 -190 106 -203 q 107 -183 106 -186 q 147 303 143 -40 z "},"":{"ha":768,"x_min":-361,"x_max":1154,"o":"m 1064 800 q 1025 818 1053 818 q 973 811 997 818 q 915 792 949 804 q 828 750 861 769 q 594 594 703 683 q 481 460 486 504 q 518 403 478 425 q 599 363 553 382 q 665 335 644 344 q 754 260 728 303 q 781 178 781 217 q 739 78 781 124 q 645 16 697 32 q 550 -1 593 0 q 470 -1 507 -1 q 388 8 433 -1 q 425 -83 425 -35 q 414 -136 425 -108 q 288 -261 383 -212 q 128 -314 214 -299 q -19 -329 39 -329 q -231 -284 -125 -329 q -361 -143 -336 -239 q -219 -208 -310 -189 q -47 -228 -129 -228 q 134 -208 75 -226 q 237 -166 193 -190 q 317 -109 281 -142 q 354 -37 354 -76 q 301 35 354 3 q 217 69 297 38 q 95 140 138 101 q 53 229 53 179 q 121 368 53 308 q 404 481 240 471 q 403 515 400 494 q 525 700 414 607 q 774 847 636 793 q 1010 901 913 901 q 1115 877 1078 901 q 1153 810 1153 853 q 1153 797 1153 804 q 1001 618 1149 754 q 906 506 947 568 q 865 397 865 444 q 865 389 865 393 q 822 478 822 422 q 865 600 822 528 q 1064 800 928 706 m 131 203 q 147 158 131 174 q 173 133 163 142 q 203 115 183 125 q 235 99 222 104 q 308 65 297 71 q 421 61 353 61 q 552 80 489 61 q 658 138 615 99 q 708 227 708 182 q 651 308 708 272 q 589 335 640 315 q 424 438 464 383 q 390 427 418 435 q 342 413 363 419 q 239 360 286 393 q 131 203 131 286 z "},"":{"ha":436,"x_min":92,"x_max":367,"o":"m 263 555 q 264 565 263 555 q 282 594 265 575 q 313 617 299 614 q 335 621 326 621 q 356 613 344 621 q 367 584 367 606 q 346 542 367 563 q 303 515 324 515 q 272 525 283 515 q 263 555 260 535 m 186 613 q 192 609 186 613 q 197 584 197 606 q 176 539 197 563 q 124 515 156 515 q 103 524 114 515 q 93 552 93 533 q 115 596 93 571 q 167 621 136 621 q 186 613 175 621 z "},"":{"ha":1065,"x_min":31,"x_max":1040,"o":"m 1040 642 q 1006 490 1040 579 q 897 307 972 401 q 706 143 822 213 q 400 58 563 58 q 225 90 308 58 q 94 189 142 122 q 32 396 32 276 q 142 683 32 550 q 647 896 314 896 q 860 864 763 896 q 972 794 921 843 q 1040 642 1040 731 m 892 743 q 727 824 815 803 q 585 846 639 846 q 504 844 531 846 q 306 787 393 836 q 161 663 219 738 q 79 451 79 560 q 165 244 79 328 q 292 172 218 193 q 417 150 365 150 q 753 239 611 150 q 928 408 861 308 q 986 569 986 492 q 892 743 986 671 m 689 538 q 676 553 676 538 q 714 608 676 576 q 751 669 751 640 q 664 725 751 725 q 490 681 576 725 q 343 569 404 636 q 269 416 269 483 q 343 314 269 349 q 435 293 388 293 q 538 303 482 293 q 666 347 594 314 q 776 413 738 381 q 784 414 782 418 q 783 407 786 410 q 660 314 750 365 q 413 235 521 235 q 296 267 344 235 q 221 409 221 315 q 304 590 221 503 q 481 702 368 658 q 676 746 593 746 q 789 704 760 746 q 801 665 801 689 q 771 604 801 640 q 689 538 711 538 z "},"":{"ha":401,"x_min":-11,"x_max":444,"o":"m 318 664 q 247 557 247 586 q 260 542 247 542 q 318 566 274 542 q 432 657 363 590 q 443 658 443 667 l 440 650 q 233 515 297 515 q 200 528 213 515 q 188 558 188 540 q 201 613 188 574 q 121 540 164 567 q 52 514 78 514 q 11 531 26 514 q -4 575 -4 549 q 44 678 -4 626 q 156 750 93 731 q 208 757 182 757 q 258 743 235 757 q 290 708 282 729 q 320 699 308 708 q 318 664 332 689 m -8 410 q -9 410 -8 410 q -11 425 -11 410 q -6 457 -11 440 q 4 474 -1 474 q 136 483 79 483 q 218 480 193 483 q 246 471 243 476 q 247 460 249 465 q 219 454 244 456 q 157 447 193 453 q 69 428 121 440 q -8 410 -4 410 m 250 732 q 124 659 188 732 q 61 561 61 586 q 78 536 61 536 q 186 611 113 536 q 197 621 188 613 q 214 636 206 629 q 272 714 272 696 q 250 732 272 732 z "},"":{"ha":636,"x_min":43,"x_max":632,"o":"m 165 208 q 81 249 119 249 q 43 251 43 249 q 67 271 43 258 q 260 403 169 332 q 371 517 351 475 q 396 532 378 531 q 415 531 414 533 q 414 525 415 528 q 161 303 371 432 q 231 246 196 288 q 281 150 267 204 q 283 125 283 138 q 254 53 283 86 q 221 19 225 19 q 224 38 213 19 q 233 79 233 58 q 165 208 233 149 m 382 239 q 299 279 336 279 q 261 282 261 279 q 331 331 261 290 q 484 439 400 372 q 588 547 568 506 q 621 564 594 563 q 632 556 633 563 q 378 335 585 460 q 448 277 413 319 q 497 181 483 235 q 500 156 500 168 q 471 83 500 117 q 436 50 442 50 q 442 68 429 50 q 450 108 450 88 q 382 239 450 179 z "},"":{"ha":501,"x_min":-28,"x_max":571,"o":"m 382 278 q 283 148 321 207 q 244 65 244 89 q 273 40 244 40 q 390 97 301 40 q 553 225 478 154 q 565 231 560 232 q 571 224 571 229 q 565 211 571 218 q 292 6 386 47 q 232 -11 250 -11 q 141 11 165 -11 q 117 60 117 33 q 138 140 117 113 q 246 303 206 236 q 241 330 258 322 q 198 338 224 338 q 171 339 172 338 q -14 142 78 214 q -26 142 -25 132 q -11 168 -26 153 q 201 439 144 303 q 214 450 206 450 q 224 447 218 450 q 176 346 240 440 q 328 364 222 364 q 397 328 376 364 q 400 311 400 322 q 382 278 400 300 z "},"":{"ha":1065,"x_min":31,"x_max":1040,"o":"m 1040 642 q 1006 490 1040 579 q 897 307 972 401 q 706 143 822 213 q 399 58 561 58 q 251 80 325 58 q 128 153 176 101 q 31 382 31 253 q 65 554 31 468 q 303 818 133 726 q 647 896 446 896 q 860 864 763 896 q 972 794 921 843 q 1040 642 1040 731 m 208 210 q 331 429 208 253 q 326 458 325 446 q 349 488 328 471 q 382 504 369 506 q 517 668 503 668 q 531 650 531 668 q 392 469 463 567 q 393 463 393 468 q 449 467 410 465 q 564 494 489 469 q 758 615 699 539 q 786 676 786 650 q 753 718 786 701 q 651 735 721 735 q 460 701 581 735 q 292 625 339 667 q 282 607 278 614 q 283 599 286 600 q 276 601 281 599 q 252 634 258 613 q 253 661 246 656 q 472 767 294 722 q 657 797 599 797 q 743 792 715 797 q 821 696 821 776 q 816 661 821 683 q 781 604 811 639 q 700 539 751 569 q 425 451 564 461 q 410 451 419 451 q 399 450 401 450 q 506 315 425 383 q 640 246 588 246 q 678 256 663 246 q 696 281 694 265 q 703 279 699 288 q 611 222 696 222 q 453 276 526 222 q 342 400 379 331 q 232 218 254 275 q 218 204 228 207 q 432 150 310 150 q 753 239 611 150 q 928 408 861 308 q 986 569 986 492 q 892 743 986 671 q 557 846 760 846 q 315 792 410 846 q 117 597 176 713 q 76 446 76 519 q 86 378 76 411 q 208 210 113 274 z "},"":{"ha":456,"x_min":72,"x_max":414,"o":"m 397 561 q 323 567 357 567 q 270 565 289 567 q 219 560 251 564 q 173 552 188 556 q 124 542 158 549 q 85 533 90 535 q 76 532 79 532 q 72 550 72 532 q 88 606 72 606 q 220 617 175 617 q 316 614 265 617 q 406 594 367 611 q 414 583 414 593 q 397 561 414 561 z "},"":{"ha":907,"x_min":164,"x_max":449,"o":"m 221 638 q 165 693 165 638 q 169 726 165 706 q 203 785 174 747 q 264 849 233 824 q 364 888 310 888 q 413 878 389 888 q 447 819 447 864 q 400 721 447 774 q 268 644 349 667 q 221 638 240 638 m 372 798 q 372 815 372 798 q 328 832 372 832 q 239 785 283 832 q 194 701 194 739 q 226 664 194 664 q 274 676 243 664 q 338 724 304 689 q 372 798 372 764 z "},"":{"ha":608,"x_min":76,"x_max":624,"o":"m 614 368 q 624 356 624 365 q 617 341 624 347 q 601 335 611 335 q 484 339 540 339 q 376 336 428 339 q 281 100 288 197 q 273 88 281 90 q 258 89 265 85 q 251 103 251 93 q 322 331 258 201 q 147 304 269 325 q 137 322 138 303 q 142 360 136 340 q 158 379 149 379 q 356 390 246 388 q 483 557 417 490 q 505 565 492 565 q 536 560 518 565 q 546 547 554 556 q 413 389 479 481 q 614 368 550 388 m 83 -44 q 80 -44 83 -44 q 76 -26 76 -44 q 83 12 76 -7 q 99 31 89 31 q 280 40 194 40 q 439 29 365 40 q 456 15 456 26 q 442 4 456 4 q 232 -18 342 1 q 83 -44 90 -44 z "},"":{"ha":672,"x_min":21,"x_max":632,"o":"m 242 754 q 200 713 200 731 q 228 694 200 694 q 313 708 256 694 q 408 758 371 722 q 415 751 415 768 q 374 703 415 729 q 207 656 301 656 q 150 679 161 656 q 147 697 147 685 q 181 742 147 710 q 301 801 215 774 q 469 829 388 829 q 619 769 585 829 q 631 733 631 753 q 536 606 631 665 q 276 499 471 564 q 479 465 394 497 q 564 376 564 433 q 558 356 564 356 q 553 361 553 357 q 554 368 554 365 q 501 406 554 388 q 381 425 449 425 q 213 415 257 425 q 127 393 168 406 q 69 377 86 381 q 29 378 53 374 q 22 392 22 382 q 27 414 22 401 q 47 440 32 426 q 176 492 86 476 q 229 507 204 496 q 461 615 407 586 q 532 714 532 654 q 513 763 532 739 q 458 791 493 786 q 396 796 424 796 q 242 754 311 796 z "},"":{"ha":574,"x_min":17,"x_max":549,"o":"m 358 835 q 439 839 393 839 q 516 822 485 839 q 547 775 547 806 q 510 713 547 744 q 431 667 474 682 q 498 642 468 667 q 528 587 528 618 q 517 528 528 556 q 249 361 467 410 q 163 350 200 350 q 97 356 125 350 q 18 419 26 367 q 17 432 17 425 q 132 539 17 492 q 293 561 189 561 q 358 554 350 561 q 350 542 374 542 q 335 542 349 542 q 247 525 322 542 q 114 483 172 508 q 36 419 36 453 q 61 393 36 406 q 146 379 88 379 q 313 428 204 379 q 450 551 450 488 q 418 606 450 579 q 329 640 385 636 q 303 654 303 642 q 349 674 303 671 q 429 695 394 676 q 464 747 464 714 q 419 806 464 789 q 371 814 400 814 q 293 802 342 814 q 238 763 244 790 q 257 737 233 747 q 294 724 281 726 q 307 717 308 722 q 275 714 304 714 q 210 728 246 714 q 190 749 190 738 q 358 835 190 814 z "},"":{"ha":382,"x_min":49,"x_max":389,"o":"m 389 600 q 358 557 389 583 q 251 503 326 531 q 83 474 168 474 q 50 483 50 474 q 72 492 50 488 q 225 549 144 497 q 306 632 306 600 q 303 642 306 638 q 305 647 300 647 q 337 638 310 647 q 386 608 364 629 q 389 600 389 604 z "},"":{"ha":499,"x_min":-240,"x_max":551,"o":"m 235 228 q 177 146 231 221 q 124 56 124 71 q 138 42 124 42 q 211 86 163 42 l 256 129 q 369 262 324 203 q 417 325 414 321 q 425 333 422 328 q 475 361 449 360 q 551 331 517 361 q 524 294 543 318 q 487 247 506 271 q 444 190 468 222 q 401 131 419 158 q 365 72 383 103 q 339 18 346 40 q 339 -58 317 -43 q 336 -65 344 -64 q 331 -64 333 -65 q 278 22 278 -46 q 322 183 278 90 q 79 -8 171 -8 l 67 -8 q -190 -465 -190 -393 q -186 -478 -190 -472 q -192 -486 -181 -486 q -194 -485 -193 -486 q -239 -394 -239 -440 q -76 -33 -239 -300 q 192 338 88 233 q 256 368 222 368 q 324 335 289 368 q 235 228 293 301 z "},"":{"ha":643,"x_min":-203,"x_max":790,"o":"m 646 786 q 772 858 718 858 q 790 849 788 858 q 765 838 786 844 q 735 822 744 831 q 589 645 675 778 q 430 376 503 513 q 274 108 357 239 q 139 -62 192 -22 q 125 -69 132 -69 q 118 -67 118 -72 q 139 -44 124 -57 q 388 369 225 42 q 563 681 493 582 q 631 767 596 726 q 221 214 515 767 q 188 152 210 193 q 106 20 167 111 q -40 -163 46 -71 q -186 -268 -125 -256 q -193 -268 -190 -268 q -203 -261 -203 -268 q -189 -250 -199 -253 q -43 -140 -119 -236 q 90 49 40 -36 q 160 169 139 133 q 253 343 217 269 q 210 340 229 340 q 97 411 97 340 q 100 438 97 424 q 244 633 121 539 q 475 750 368 728 q 535 767 492 754 q 626 786 610 786 q 646 786 643 786 z "},"":{"ha":322,"x_min":132,"x_max":269,"o":"m 175 167 q 147 177 160 167 q 133 200 133 188 q 157 267 133 242 q 225 303 189 303 q 254 292 240 303 q 268 255 268 281 q 240 198 268 229 q 175 167 211 167 z "},"":{"ha":1053,"x_min":147,"x_max":357,"o":"m 357 -53 q 316 -76 336 -56 q 296 -114 296 -97 q 326 -172 296 -131 q 356 -239 356 -214 q 154 -321 356 -321 q 147 -313 147 -321 q 160 -302 147 -306 q 198 -297 174 -299 q 235 -292 222 -294 q 261 -276 247 -290 q 282 -235 282 -254 q 269 -187 282 -215 q 256 -134 256 -158 q 285 -78 256 -110 q 347 -46 314 -46 q 356 -47 354 -46 q 357 -53 358 -49 z "},"":{"ha":469,"x_min":61,"x_max":463,"o":"m 160 695 q 189 717 160 695 q 269 776 218 739 q 362 829 319 813 q 424 846 404 846 q 453 840 443 846 q 463 829 463 833 q 458 826 463 825 q 451 826 454 826 q 392 790 425 826 q 325 689 358 754 q 264 563 292 624 q 208 433 236 503 q 169 343 179 364 q 96 389 115 353 q 90 417 90 399 q 101 465 90 435 q 238 713 149 597 q 78 618 192 681 q 63 619 63 608 q 82 641 63 631 q 160 695 101 651 z "},"":{"ha":311,"x_min":-19,"x_max":325,"o":"m 147 536 q 60 506 92 506 q -4 561 -4 506 q 11 624 -4 599 l -10 607 q -18 608 -18 599 q -3 628 -18 615 q 41 669 11 640 q 86 711 71 699 q 192 757 143 757 q 235 747 214 757 q 269 687 269 732 q 222 590 269 642 q 168 549 200 567 q 313 631 236 557 q 324 629 324 640 q 321 624 324 626 q 150 536 231 536 q 147 536 149 536 m 236 476 q 247 466 247 476 q 238 456 247 456 q 92 433 164 451 q -8 410 -4 410 q -11 425 -11 410 q -6 457 -11 440 q 4 474 -1 474 q 136 483 79 483 q 236 476 193 483 m 185 701 q 133 675 167 701 q 93 601 93 642 q 119 551 93 561 q 169 594 139 563 q 207 667 207 633 q 185 701 207 701 m 10 564 q 43 522 10 522 q 107 543 68 522 q 72 596 72 558 q 104 669 72 638 q 171 710 136 701 q 153 711 163 711 q 71 674 115 711 q 10 564 10 622 z "},"":{"ha":658,"x_min":26,"x_max":657,"o":"m 535 364 q 618 324 581 324 q 656 321 656 324 q 644 306 656 314 q 574 264 632 299 q 433 163 517 229 q 329 56 349 97 q 304 39 322 40 q 285 41 286 38 q 286 47 285 44 q 379 155 308 96 q 539 268 450 214 q 469 326 504 283 q 419 422 433 368 q 417 447 417 435 q 446 519 417 486 q 479 553 475 553 q 476 535 488 553 q 467 493 467 514 q 535 364 467 424 m 276 335 q 360 294 322 294 q 397 292 397 294 q 385 277 397 285 q 316 235 374 269 q 174 134 258 200 q 71 26 90 68 q 38 10 64 11 q 26 18 25 11 q 281 239 72 110 q 210 296 246 254 q 161 392 175 338 q 158 418 158 404 q 188 490 158 457 q 221 524 217 524 q 218 506 229 524 q 208 464 208 485 q 276 335 208 394 z "},"":{"ha":826,"x_min":50,"x_max":806,"o":"m 451 826 q 392 790 425 826 q 325 689 358 754 q 264 563 292 624 q 208 433 236 503 q 169 343 179 364 q 96 389 115 353 q 90 417 90 399 q 101 465 90 435 q 238 713 149 597 q 78 618 192 681 q 63 619 63 608 q 82 641 63 631 q 160 695 101 651 q 269 776 218 739 q 362 829 319 813 q 424 846 404 846 q 454 838 443 846 q 463 828 465 831 q 457 826 460 826 q 451 826 454 826 m 658 894 l 707 901 q 717 875 738 901 q 340 349 536 639 q 85 -81 144 58 q 68 -96 78 -96 q 58 -92 65 -96 q 51 -75 51 -87 q 213 245 51 -17 q 508 701 374 507 q 658 894 643 894 m 572 161 q 535 26 535 65 q 565 -26 535 -12 q 561 -35 571 -31 q 539 -36 550 -36 q 458 13 479 -36 q 451 62 451 29 q 478 157 451 94 q 381 141 435 156 q 306 126 326 126 q 282 136 285 126 q 278 144 278 138 q 290 164 278 150 q 344 207 304 178 q 443 283 383 236 q 550 364 503 331 q 778 490 722 490 q 806 478 806 490 q 801 474 806 474 q 794 474 796 474 q 697 395 753 474 q 590 206 642 317 q 742 128 742 194 q 732 107 742 103 q 731 113 729 108 q 732 119 732 117 q 692 149 732 136 q 572 161 651 161 m 600 367 q 488 284 583 357 q 360 188 392 211 q 501 206 436 204 q 549 287 508 219 q 600 367 589 354 z "},"":{"ha":928,"x_min":50,"x_max":901,"o":"m 451 826 q 392 790 425 826 q 325 689 358 754 q 264 563 292 624 q 208 433 236 503 q 169 343 179 364 q 96 389 115 353 q 90 417 90 399 q 101 465 90 435 q 238 713 149 597 q 78 618 192 681 q 63 619 63 608 q 82 641 63 631 q 160 695 101 651 q 269 776 218 739 q 362 829 319 813 q 424 846 404 846 q 454 838 443 846 q 463 828 465 831 q 457 826 460 826 q 451 826 454 826 m 658 894 l 707 901 q 717 875 738 901 q 340 349 536 639 q 85 -81 144 58 q 68 -96 78 -96 q 58 -92 65 -96 q 51 -75 51 -87 q 213 245 51 -17 q 508 701 374 507 q 658 894 643 894 m 485 374 q 438 327 438 347 q 467 307 438 307 q 540 318 497 307 q 661 378 622 338 q 667 378 665 381 q 668 368 668 374 q 626 318 668 344 q 444 267 546 267 q 382 290 394 267 q 379 303 379 297 q 417 358 379 324 q 547 424 454 393 q 726 454 639 454 q 889 389 851 454 q 901 349 901 371 q 800 213 901 276 q 519 97 722 164 q 786 33 696 94 q 829 -36 829 4 q 821 -58 829 -58 q 819 -46 815 -58 q 799 -19 822 -33 q 635 14 758 7 q 581 17 608 17 q 450 7 494 17 q 376 -12 406 -3 q 326 -28 346 -21 q 253 -33 265 -46 q 246 -18 246 -29 q 251 6 246 -7 q 272 35 257 19 q 413 90 311 71 q 468 106 446 96 q 706 217 653 188 q 796 326 796 265 q 769 384 796 360 q 710 413 742 408 q 650 417 679 417 q 485 374 560 417 z "},"":{"ha":989,"x_min":17,"x_max":985,"o":"m 749 161 q 713 29 713 71 q 743 -26 713 -12 q 739 -35 749 -31 q 717 -36 728 -36 q 636 13 656 -36 q 628 64 628 31 q 654 157 628 97 q 553 140 603 153 q 484 126 504 126 q 458 136 464 126 q 457 147 454 138 q 469 165 460 156 q 518 204 478 174 q 619 283 558 235 q 725 364 681 331 q 956 490 897 490 q 978 485 969 490 q 983 476 983 479 q 978 473 983 472 q 972 474 974 474 q 873 395 929 474 q 768 206 817 317 q 881 179 843 200 q 919 128 919 158 q 910 107 919 103 q 908 112 907 108 q 910 118 910 115 q 870 148 910 135 q 749 161 831 161 m 358 835 q 439 839 393 839 q 516 822 485 839 q 547 775 547 806 q 510 713 547 744 q 431 667 474 682 q 498 642 468 667 q 528 587 528 618 q 517 528 528 556 q 249 361 467 410 q 163 350 200 350 q 97 356 125 350 q 18 419 26 367 q 17 432 17 425 q 132 539 17 492 q 293 561 189 561 q 358 554 350 561 q 350 542 374 542 q 335 542 349 542 q 247 525 322 542 q 114 483 172 508 q 36 419 36 453 q 61 393 36 406 q 146 379 88 379 q 313 428 204 379 q 450 551 450 488 q 418 606 450 579 q 329 640 385 636 q 303 654 303 642 q 349 674 303 671 q 429 695 394 676 q 464 747 464 714 q 419 806 464 789 q 371 814 400 814 q 293 802 342 814 q 238 763 244 790 q 257 737 233 747 q 294 724 281 726 q 307 717 308 722 q 275 714 304 714 q 210 728 246 714 q 190 749 190 738 q 358 835 190 814 m 800 811 l 849 818 q 858 792 879 818 q 482 265 678 556 q 226 -164 286 -25 q 210 -179 219 -179 q 200 -175 207 -179 q 193 -158 193 -171 q 354 162 193 -100 q 650 617 515 424 q 800 811 785 811 m 776 367 q 661 281 757 354 q 538 188 565 208 q 679 206 611 204 q 731 296 696 238 q 776 367 765 354 z "},"":{"ha":364,"x_min":-329,"x_max":450,"o":"m 279 429 q 350 464 308 464 q 374 453 361 464 q 388 429 388 442 q 365 363 388 388 q 296 328 332 328 q 266 338 279 328 q 253 361 253 349 q 279 429 253 401 m -315 -347 q -329 -282 -329 -315 q -311 -214 -329 -249 q -206 -96 -279 -149 q -54 3 -133 -43 q 100 94 25 49 q 219 206 219 165 q 213 223 219 217 q 208 236 207 229 q 221 246 210 246 q 229 243 225 246 q 246 208 246 228 q 110 58 246 151 q -144 -131 6 -17 q -244 -283 -244 -224 q -217 -336 -244 -314 q -86 -369 -174 -369 q 126 -331 33 -369 q 278 -258 219 -293 q 375 -189 338 -224 q 406 -103 444 -125 q 382 -99 397 -99 q 227 -142 324 -99 q 58 -233 131 -186 q -36 -318 -14 -281 q -38 -324 -36 -319 q -45 -322 -40 -328 q -50 -303 -50 -315 q -32 -265 -50 -290 q 175 -81 60 -131 q 356 -33 279 -33 q 442 -71 419 -33 q 450 -99 450 -85 q 442 -137 450 -114 q 392 -204 435 -161 q 283 -287 350 -247 q 149 -354 215 -328 q -165 -432 -51 -432 q -315 -347 -279 -432 z "},"":{"ha":1431,"x_min":-39,"x_max":1896,"o":"m 1836 1063 q 1808 1066 1836 1063 q 1716 1098 1779 1069 q 1630 1151 1653 1126 q 1607 1186 1607 1176 q 1613 1204 1607 1196 q 1648 1220 1618 1213 q 1683 1228 1678 1228 q 1688 1224 1688 1228 q 1683 1210 1683 1217 q 1746 1133 1683 1182 q 1872 1075 1808 1085 q 1890 1067 1889 1072 q 1836 1063 1893 1056 m 1358 -124 q 1361 -129 1361 -125 q 1350 -133 1358 -139 q 1229 115 1229 -49 q 1256 260 1229 183 q 1353 446 1283 338 q 1488 633 1422 554 q 1613 781 1553 713 q 1676 856 1674 850 q 1699 850 1693 881 q 1700 828 1700 840 q 1693 806 1700 815 q 1526 567 1607 700 q 1333 157 1392 342 q 1311 4 1311 83 q 1358 -124 1311 -75 m 203 363 q 751 457 431 457 q 1068 407 910 457 q 1179 523 1106 446 q 1296 644 1253 600 q 1500 835 1421 774 q 1744 939 1633 939 q 1836 923 1794 939 q 1886 898 1878 907 q 1894 888 1894 889 q 1892 883 1894 886 q 1883 886 1889 879 q 1781 911 1857 911 q 1508 799 1651 911 q 1338 647 1406 715 q 1195 501 1269 578 q 1094 397 1121 424 q 1246 263 1233 346 q 1245 251 1247 254 q 1240 251 1243 249 q 1235 260 1236 254 q 1157 301 1224 286 q 1019 322 1097 315 q 521 -24 738 50 q 297 -65 403 -65 q 35 -9 108 -65 q -37 115 -37 47 q -28 169 -37 142 q 203 363 14 283 m 899 328 q 510 289 714 328 q 101 124 196 233 q 72 58 72 89 q 111 -7 72 22 q 270 -42 157 -42 q 515 -4 383 -42 q 985 325 713 57 q 899 328 942 328 z "},"":{"ha":1431,"x_min":-39,"x_max":2019,"o":"m 2017 1186 q 2019 1172 2019 1182 q 1988 1135 2019 1161 q 1882 1081 1957 1108 q 1745 1052 1807 1054 q 1681 1060 1683 1050 q 1703 1069 1679 1068 q 1856 1126 1775 1075 q 1936 1210 1936 1178 q 1933 1220 1936 1215 q 1935 1225 1931 1225 q 1967 1216 1940 1225 q 2017 1186 1994 1207 m 1358 -124 q 1361 -129 1361 -125 q 1350 -133 1358 -139 q 1229 115 1229 -49 q 1256 260 1229 183 q 1353 446 1283 338 q 1488 633 1422 554 q 1613 781 1553 713 q 1676 856 1674 850 q 1699 850 1693 881 q 1700 828 1700 840 q 1693 806 1700 815 q 1526 567 1607 700 q 1333 157 1392 342 q 1311 4 1311 83 q 1358 -124 1311 -75 m 203 363 q 751 457 431 457 q 1068 407 910 457 q 1179 523 1106 446 q 1296 644 1253 600 q 1500 835 1421 774 q 1744 939 1633 939 q 1836 923 1794 939 q 1886 898 1878 907 q 1894 888 1894 889 q 1892 883 1894 886 q 1883 886 1889 879 q 1781 911 1857 911 q 1508 799 1651 911 q 1338 647 1406 715 q 1195 501 1269 578 q 1094 397 1121 424 q 1246 263 1233 346 q 1245 251 1247 254 q 1240 251 1243 249 q 1235 260 1236 254 q 1157 301 1224 286 q 1019 322 1097 315 q 521 -24 738 50 q 297 -65 403 -65 q 35 -9 108 -65 q -37 115 -37 47 q -28 169 -37 142 q 203 363 14 283 m 899 328 q 510 289 714 328 q 101 124 196 233 q 72 58 72 89 q 111 -7 72 22 q 270 -42 157 -42 q 515 -4 383 -42 q 985 325 713 57 q 899 328 942 328 z "},"":{"ha":1431,"x_min":-39,"x_max":1996,"o":"m 203 363 q 751 457 431 457 q 1068 407 910 457 q 1179 523 1106 446 q 1296 644 1253 600 q 1500 835 1421 774 q 1744 939 1633 939 q 1836 923 1794 939 q 1888 897 1878 907 q 1893 883 1897 888 q 1883 886 1889 879 q 1781 911 1857 911 q 1508 799 1651 911 q 1338 647 1406 715 q 1195 501 1269 578 q 1094 397 1121 424 q 1246 263 1233 346 q 1245 251 1247 254 q 1240 251 1243 249 q 1235 260 1236 254 q 1157 301 1224 286 q 1019 322 1097 315 q 521 -24 738 50 q 297 -65 403 -65 q 35 -9 108 -65 q -37 115 -37 47 q -28 169 -37 142 q 203 363 14 283 m 899 328 q 510 289 714 328 q 101 124 196 233 q 72 58 72 89 q 111 -7 72 22 q 270 -42 157 -42 q 515 -4 383 -42 q 985 325 713 57 q 899 328 942 328 m 1358 -124 q 1361 -129 1361 -125 q 1350 -133 1358 -139 q 1229 115 1229 -49 q 1256 260 1229 183 q 1353 446 1283 338 q 1488 633 1422 554 q 1613 781 1553 713 q 1676 856 1674 850 q 1699 850 1693 881 q 1700 828 1700 840 q 1693 806 1700 815 q 1526 567 1607 700 q 1333 157 1392 342 q 1311 4 1311 83 q 1358 -124 1311 -75 m 1969 1067 q 1984 1068 1974 1067 q 1994 1064 1994 1069 q 1968 1049 1994 1057 q 1910 1042 1942 1042 q 1851 1061 1879 1042 q 1807 1136 1807 1090 q 1626 1054 1707 1054 q 1613 1058 1613 1054 q 1618 1071 1613 1063 q 1644 1079 1624 1079 q 1717 1107 1664 1079 q 1819 1175 1771 1135 q 1867 1224 1838 1200 q 1900 1249 1897 1249 q 1894 1231 1903 1249 q 1885 1193 1885 1214 q 1915 1098 1885 1129 q 1969 1067 1944 1067 z "},"":{"ha":1431,"x_min":-39,"x_max":1982,"o":"m 1967 1136 q 1982 1117 1982 1132 q 1953 1074 1982 1097 q 1864 1036 1903 1036 q 1805 1049 1825 1036 q 1760 1081 1785 1063 q 1715 1100 1732 1100 q 1640 1057 1683 1100 q 1624 1051 1629 1044 q 1628 1064 1621 1057 q 1764 1142 1710 1142 q 1855 1121 1818 1142 q 1914 1100 1892 1100 q 1967 1136 1951 1100 m 1358 -124 q 1361 -129 1361 -125 q 1350 -133 1358 -139 q 1229 115 1229 -49 q 1256 260 1229 183 q 1353 446 1283 338 q 1488 633 1422 554 q 1613 781 1553 713 q 1676 856 1674 850 q 1699 850 1693 881 q 1700 828 1700 840 q 1693 806 1700 815 q 1526 567 1607 700 q 1333 157 1392 342 q 1311 4 1311 83 q 1358 -124 1311 -75 m 203 363 q 751 457 431 457 q 1068 407 910 457 q 1179 523 1106 446 q 1296 644 1253 600 q 1500 835 1421 774 q 1744 939 1633 939 q 1836 923 1794 939 q 1886 898 1878 907 q 1894 888 1894 889 q 1892 883 1894 886 q 1883 886 1889 879 q 1781 911 1857 911 q 1508 799 1651 911 q 1338 647 1406 715 q 1195 501 1269 578 q 1094 397 1121 424 q 1246 263 1233 346 q 1245 251 1247 254 q 1240 251 1243 249 q 1235 260 1236 254 q 1157 301 1224 286 q 1019 322 1097 315 q 521 -24 738 50 q 297 -65 403 -65 q 35 -9 108 -65 q -37 115 -37 47 q -28 169 -37 142 q 203 363 14 283 m 899 328 q 510 289 714 328 q 101 124 196 233 q 72 58 72 89 q 111 -7 72 22 q 270 -42 157 -42 q 515 -4 383 -42 q 985 325 713 57 q 899 328 942 328 z "},"":{"ha":1431,"x_min":-39,"x_max":1929,"o":"m 1836 1044 q 1829 1050 1836 1044 q 1825 1076 1822 1056 q 1849 1119 1828 1096 q 1899 1142 1869 1142 q 1919 1133 1908 1142 q 1929 1104 1929 1125 q 1911 1063 1929 1083 q 1872 1038 1893 1043 q 1836 1044 1850 1033 m 1667 1044 q 1660 1050 1667 1044 q 1656 1076 1653 1056 q 1679 1119 1658 1096 q 1731 1142 1700 1142 q 1750 1133 1739 1142 q 1759 1102 1761 1124 q 1740 1062 1757 1081 q 1702 1038 1724 1043 q 1667 1044 1681 1033 m 1358 -124 q 1361 -129 1361 -125 q 1350 -133 1358 -139 q 1229 115 1229 -49 q 1256 260 1229 183 q 1353 446 1283 338 q 1488 633 1422 554 q 1613 781 1553 713 q 1676 856 1674 850 q 1699 850 1693 881 q 1700 828 1700 840 q 1693 806 1700 815 q 1526 567 1607 700 q 1333 157 1392 342 q 1311 4 1311 83 q 1358 -124 1311 -75 m 203 363 q 751 457 431 457 q 1068 407 910 457 q 1179 523 1106 446 q 1296 644 1253 600 q 1500 835 1421 774 q 1744 939 1633 939 q 1836 923 1794 939 q 1886 898 1878 907 q 1894 888 1894 889 q 1892 883 1894 886 q 1883 886 1889 879 q 1781 911 1857 911 q 1508 799 1651 911 q 1338 647 1406 715 q 1195 501 1269 578 q 1094 397 1121 424 q 1246 263 1233 346 q 1245 251 1247 254 q 1240 251 1243 249 q 1235 260 1236 254 q 1157 301 1224 286 q 1019 322 1097 315 q 521 -24 738 50 q 297 -65 403 -65 q 35 -9 108 -65 q -37 115 -37 47 q -28 169 -37 142 q 203 363 14 283 m 899 328 q 510 289 714 328 q 101 124 196 233 q 72 58 72 89 q 111 -7 72 22 q 270 -42 157 -42 q 515 -4 383 -42 q 985 325 713 57 q 899 328 942 328 z "},"":{"ha":1431,"x_min":-39,"x_max":1951,"o":"m 1358 -124 q 1361 -129 1361 -125 q 1350 -133 1358 -139 q 1229 115 1229 -49 q 1256 260 1229 183 q 1353 446 1283 338 q 1488 633 1422 554 q 1613 781 1553 713 q 1676 856 1674 850 q 1699 850 1693 881 q 1700 828 1700 840 q 1693 806 1700 815 q 1526 567 1607 700 q 1333 157 1392 342 q 1311 4 1311 83 q 1358 -124 1311 -75 m 203 363 q 751 457 431 457 q 1068 407 910 457 q 1179 523 1106 446 q 1296 644 1253 600 q 1503 838 1421 774 q 1671 926 1586 903 q 1668 950 1668 939 q 1672 981 1668 961 q 1706 1040 1676 1001 q 1767 1103 1736 1078 q 1868 1142 1813 1142 l 1917 1132 q 1951 1072 1951 1117 q 1903 975 1951 1026 q 1835 925 1878 947 q 1886 899 1875 910 q 1893 883 1897 888 q 1885 883 1889 879 q 1804 910 1867 904 q 1734 890 1760 890 q 1694 897 1708 890 q 1508 799 1606 875 q 1338 647 1406 715 q 1195 501 1269 578 q 1094 397 1121 424 q 1246 263 1233 346 q 1245 251 1247 254 q 1240 251 1243 249 q 1235 260 1236 254 q 1157 301 1224 286 q 1019 322 1097 315 q 521 -24 738 50 q 297 -65 403 -65 q 35 -9 108 -65 q -37 115 -37 47 q -28 169 -37 142 q 203 363 14 283 m 1829 1085 q 1770 1064 1804 1085 q 1717 1008 1736 1043 q 1697 957 1697 972 q 1701 933 1697 942 q 1756 938 1728 938 l 1788 936 q 1839 976 1815 951 q 1875 1051 1875 1017 q 1829 1085 1875 1085 m 899 328 q 510 289 714 328 q 101 124 196 233 q 72 58 72 89 q 111 -7 72 22 q 270 -42 157 -42 q 515 -4 383 -42 q 985 325 713 57 q 899 328 942 328 z "},"":{"ha":2483,"x_min":-75,"x_max":2483,"o":"m 1463 386 q 1315 126 1315 239 q 1347 26 1315 71 q 1586 -64 1406 -50 q 1649 -67 1606 -67 q 1771 -50 1692 -67 q 2174 92 1976 -14 q 2464 333 2371 197 q 2482 346 2482 358 q 2479 331 2482 342 q 2225 83 2442 225 q 1786 -107 2008 -60 q 1639 -125 1694 -125 q 1553 -122 1583 -125 q 1386 -64 1451 -111 q 1272 141 1272 18 q 1349 385 1272 264 q 1067 369 1233 381 q 789 122 918 221 q 271 -65 542 -65 q 32 -7 108 -65 q -75 154 -75 76 q 742 458 -75 379 q 1143 486 954 478 q 1196 541 1156 499 q 1251 599 1236 583 q 1301 651 1267 615 q 1356 705 1336 686 q 1404 750 1375 724 q 1509 840 1449 792 q 1636 915 1569 889 q 1749 940 1703 940 q 1838 931 1794 940 q 1903 894 1875 919 q 1940 831 1931 868 q 2208 879 2076 879 q 2344 842 2288 879 q 2406 728 2406 803 q 2378 625 2406 678 q 2367 615 2369 607 q 2372 642 2364 624 q 2379 682 2379 660 q 2264 746 2379 746 q 1882 646 2121 746 q 1583 486 1711 575 q 1761 471 1667 482 q 2082 351 2082 433 q 2058 303 2082 326 q 2028 288 2035 281 q 2027 294 2025 290 q 2029 301 2029 299 q 1895 353 2029 328 q 1664 382 1761 378 q 1463 386 1567 386 m 1915 821 q 1774 911 1896 911 q 1522 809 1651 911 q 1182 488 1393 707 q 1432 492 1268 492 l 1438 497 q 1660 683 1531 599 q 1915 821 1789 768 m 43 96 q 111 -7 43 44 q 270 -42 157 -42 q 515 -4 383 -42 q 1026 367 726 61 q 772 343 838 350 q 43 96 43 274 z "},"":{"ha":1053,"x_min":24,"x_max":1206,"o":"m 479 451 l 515 446 q 713 505 582 446 q 954 651 844 564 q 1064 806 1064 739 q 1022 865 1064 849 q 929 882 979 882 q 579 789 767 882 q 256 569 392 696 q 63 236 63 386 q 93 130 63 175 q 174 61 124 85 q 386 17 272 17 q 741 85 550 17 q 1079 256 932 154 q 1089 260 1083 260 q 1094 253 1094 260 q 1090 243 1094 247 q 757 36 978 125 q 368 -53 536 -53 l 357 -53 q 316 -76 336 -56 q 296 -114 296 -97 q 326 -172 296 -131 q 356 -239 356 -214 q 154 -321 356 -321 q 147 -313 147 -321 q 160 -302 147 -306 q 198 -297 174 -299 q 235 -292 222 -294 q 261 -276 247 -290 q 282 -235 282 -254 q 269 -187 282 -215 q 256 -137 256 -158 q 276 -87 256 -115 q 322 -50 296 -60 q 110 26 196 -39 q 24 213 24 90 q 233 590 24 400 q 599 825 386 726 q 994 924 811 924 q 1169 869 1107 924 q 1206 788 1206 836 q 1137 651 1206 719 q 972 533 1068 582 q 778 453 875 485 q 579 413 661 413 q 504 422 536 413 q 472 444 472 432 q 479 451 472 451 z "},"":{"ha":1267,"x_min":22,"x_max":1233,"o":"m 1085 1014 q 1057 1017 1085 1014 q 965 1049 1028 1021 q 878 1102 901 1078 q 856 1136 856 1126 q 861 1154 856 1146 q 897 1170 867 1163 q 931 1178 926 1178 q 934 1173 936 1178 q 932 1161 932 1168 q 995 1084 932 1133 q 1121 1025 1058 1035 q 1140 1017 1138 1022 q 1085 1014 1143 1007 m 1129 733 q 1014 797 1129 797 q 625 695 871 797 q 240 465 379 593 q 110 312 156 386 q 64 182 64 238 q 94 83 64 126 q 332 -12 147 3 q 397 -14 353 -14 q 521 1 442 -14 q 924 144 726 39 q 1214 385 1121 250 q 1232 399 1232 411 q 1229 382 1232 393 q 975 135 1192 276 q 361 -74 657 -74 q 89 28 189 -74 q 22 203 22 93 q 71 386 22 297 q 481 779 189 608 q 790 914 653 881 q 957 931 878 931 q 1094 894 1036 931 q 1156 781 1156 854 q 1128 676 1156 733 q 1117 668 1119 660 q 1122 694 1114 676 q 1129 733 1129 711 m 788 421 q 796 405 796 411 q 794 394 796 399 q 765 397 786 383 q 614 432 718 432 q 358 397 485 432 q 283 382 304 382 q 242 411 251 382 q 240 415 240 413 q 267 451 240 431 q 367 486 293 472 q 471 497 413 497 q 597 489 529 497 q 788 421 742 471 z "},"":{"ha":1267,"x_min":22,"x_max":1244,"o":"m 1239 1154 q 1244 1137 1244 1149 q 1214 1099 1244 1125 q 1108 1046 1183 1072 q 947 1017 1033 1019 q 907 1025 910 1014 q 913 1031 906 1028 l 929 1033 q 1082 1090 1001 1039 q 1163 1174 1163 1142 q 1160 1184 1163 1179 q 1162 1189 1157 1189 q 1191 1182 1167 1189 q 1239 1154 1215 1175 m 1129 733 q 1014 797 1129 797 q 625 695 871 797 q 240 465 379 593 q 110 312 156 386 q 64 182 64 238 q 94 83 64 126 q 332 -12 147 3 q 397 -14 353 -14 q 521 1 442 -14 q 924 144 726 39 q 1214 385 1121 250 q 1232 399 1232 411 q 1229 382 1232 393 q 975 135 1192 276 q 361 -74 657 -74 q 89 28 189 -74 q 22 203 22 93 q 71 386 22 297 q 481 779 189 608 q 790 914 653 881 q 957 931 878 931 q 1094 894 1036 931 q 1156 781 1156 854 q 1128 676 1156 733 q 1117 668 1119 660 q 1122 694 1114 676 q 1129 733 1129 711 m 788 421 q 796 405 796 411 q 794 394 796 399 q 765 397 786 383 q 614 432 718 432 q 358 397 485 432 q 283 382 304 382 q 242 411 251 382 q 240 415 240 413 q 267 451 240 431 q 367 486 293 472 q 471 497 413 497 q 597 489 529 497 q 788 421 742 471 z "},"":{"ha":1267,"x_min":22,"x_max":1238,"o":"m 1129 733 q 1014 797 1129 797 q 625 695 871 797 q 240 465 379 593 q 110 312 156 386 q 64 182 64 238 q 94 83 64 126 q 332 -12 147 3 q 397 -14 353 -14 q 521 1 442 -14 q 924 144 726 39 q 1214 385 1121 250 q 1232 399 1232 411 q 1229 382 1232 393 q 975 135 1192 276 q 361 -74 657 -74 q 89 28 189 -74 q 22 203 22 93 q 71 386 22 297 q 481 779 189 608 q 790 914 653 881 q 957 931 878 931 q 1094 894 1036 931 q 1156 781 1156 854 q 1128 676 1156 733 q 1117 668 1119 660 q 1122 694 1114 676 q 1129 733 1129 711 m 358 397 q 283 382 304 382 q 242 411 251 382 q 240 415 240 413 q 267 451 240 431 q 367 486 293 472 q 471 497 413 497 q 597 489 529 497 q 788 421 742 471 q 794 394 801 406 q 765 397 786 383 q 601 432 718 432 q 358 397 485 432 m 1049 1099 q 951 1039 1003 1061 q 876 1017 900 1017 q 853 1022 853 1017 q 858 1035 853 1026 q 869 1043 864 1043 q 875 1043 874 1043 q 958 1071 906 1043 q 1060 1139 1011 1099 q 1106 1187 1074 1160 q 1142 1214 1139 1214 q 1135 1197 1144 1214 q 1125 1149 1125 1179 q 1140 1088 1125 1118 q 1210 1031 1167 1031 q 1226 1032 1215 1031 q 1236 1026 1236 1033 q 1210 1012 1236 1018 q 1153 1006 1185 1006 q 1093 1025 1122 1006 q 1049 1099 1049 1054 z "},"":{"ha":1267,"x_min":22,"x_max":1233,"o":"m 1094 1052 q 1096 1062 1094 1052 q 1114 1092 1097 1072 q 1144 1115 1131 1111 q 1167 1118 1158 1118 q 1188 1109 1176 1118 q 1197 1079 1200 1100 q 1178 1039 1194 1058 q 1140 1015 1161 1019 q 1106 1021 1119 1010 q 1094 1052 1092 1032 m 925 1052 q 926 1062 925 1052 q 944 1092 928 1072 q 975 1115 961 1111 q 998 1118 989 1118 q 1019 1110 1007 1118 q 1028 1079 1031 1101 q 1009 1038 1026 1057 q 971 1015 992 1019 q 936 1021 950 1010 q 925 1052 922 1032 m 1129 733 q 1014 797 1129 797 q 625 695 871 797 q 240 465 379 593 q 110 312 156 386 q 64 182 64 238 q 94 83 64 126 q 332 -12 147 3 q 397 -14 353 -14 q 521 1 442 -14 q 924 144 726 39 q 1214 385 1121 250 q 1232 399 1232 411 q 1229 382 1232 393 q 975 135 1192 276 q 361 -74 657 -74 q 89 28 189 -74 q 22 203 22 93 q 71 386 22 297 q 481 779 189 608 q 790 914 653 881 q 957 931 878 931 q 1094 894 1036 931 q 1156 781 1156 854 q 1128 676 1156 733 q 1117 668 1119 660 q 1122 694 1114 676 q 1129 733 1129 711 m 788 421 q 796 405 796 411 q 794 394 796 399 q 765 397 786 383 q 614 432 718 432 q 358 397 485 432 q 283 382 304 382 q 242 411 251 382 q 240 415 240 413 q 267 451 240 431 q 367 486 293 472 q 471 497 413 497 q 597 489 529 497 q 788 421 742 471 z "},"":{"ha":826,"x_min":10,"x_max":1056,"o":"m 997 971 q 968 974 997 971 q 876 1006 939 978 q 790 1060 813 1035 q 767 1094 767 1085 q 772 1112 767 1104 q 808 1127 778 1119 q 842 1135 838 1135 q 845 1131 847 1135 q 843 1119 843 1126 q 906 1042 843 1092 q 1032 982 969 992 q 1051 975 1049 979 q 997 971 1054 964 m 1044 724 q 978 783 1044 767 q 815 800 911 800 q 563 772 718 800 q 190 644 297 724 q 144 579 144 611 q 189 517 144 547 q 188 510 199 511 q 171 515 178 510 q 121 582 136 539 q 114 625 114 601 q 199 757 114 710 q 465 856 306 819 q 767 893 625 893 q 956 858 861 893 q 1031 804 1006 839 q 1056 731 1056 769 q 1048 699 1056 699 q 1042 708 1040 700 q 1044 724 1044 717 m 897 782 q 910 775 910 782 q 894 744 910 765 q 474 110 689 474 q 633 77 564 100 q 743 9 701 54 q 785 -93 785 -36 q 774 -129 785 -131 q 769 -119 767 -129 q 771 -106 771 -110 q 722 -47 771 -74 q 467 0 635 0 q 410 -1 439 0 q 313 -194 339 -128 q 299 -210 306 -210 q 293 -194 293 -210 q 375 -3 293 -158 q 183 -50 281 -11 q 118 -76 143 -65 q 61 -92 93 -86 q 21 -86 29 -99 q 10 -62 10 -78 q 16 -27 10 -46 q 42 14 22 -8 q 208 97 83 65 q 340 115 276 115 q 440 113 404 115 q 717 553 567 326 q 885 781 868 781 l 897 782 z "},"":{"ha":826,"x_min":10,"x_max":1189,"o":"m 1186 1118 q 1189 1103 1189 1114 q 1158 1065 1189 1092 q 1051 1013 1126 1039 q 915 984 976 986 q 850 992 853 982 q 857 997 850 994 l 872 1000 q 1025 1057 944 1006 q 1106 1140 1106 1108 q 1103 1151 1106 1146 q 1105 1156 1100 1156 q 1137 1147 1110 1156 q 1186 1118 1164 1138 m 1044 724 q 978 783 1044 767 q 815 800 911 800 q 563 772 718 800 q 190 644 297 724 q 144 579 144 611 q 189 517 144 547 q 188 510 199 511 q 171 515 178 510 q 121 582 136 539 q 114 625 114 601 q 199 757 114 710 q 465 856 306 819 q 767 893 625 893 q 956 858 861 893 q 1031 804 1006 839 q 1056 731 1056 769 q 1048 699 1056 699 q 1042 708 1040 700 q 1044 724 1044 717 m 897 782 q 910 775 910 782 q 894 744 910 765 q 474 110 689 474 q 633 77 564 100 q 743 9 701 54 q 785 -93 785 -36 q 774 -129 785 -131 q 769 -119 767 -129 q 771 -106 771 -110 q 722 -47 771 -74 q 467 0 635 0 q 410 -1 439 0 q 313 -194 339 -128 q 299 -210 306 -210 q 293 -194 293 -210 q 375 -3 293 -158 q 183 -50 281 -11 q 118 -76 143 -65 q 61 -92 93 -86 q 21 -86 29 -99 q 10 -62 10 -78 q 16 -27 10 -46 q 42 14 22 -8 q 208 97 83 65 q 340 115 276 115 q 440 113 404 115 q 717 553 567 326 q 885 781 868 781 l 897 782 z "},"":{"ha":826,"x_min":10,"x_max":1160,"o":"m 293 -194 q 375 -3 293 -158 q 183 -50 281 -11 q 118 -76 143 -65 q 61 -92 93 -86 q 21 -86 29 -99 q 10 -62 10 -78 q 16 -27 10 -46 q 42 14 22 -8 q 208 97 83 65 q 340 115 276 115 q 440 113 404 115 q 717 553 567 326 q 885 781 868 781 q 892 781 886 781 q 900 781 897 782 q 906 779 903 781 q 910 774 910 778 q 894 744 910 765 q 474 110 689 474 q 633 77 564 100 q 743 9 701 54 q 785 -93 785 -36 q 774 -129 785 -131 q 769 -119 767 -129 q 771 -106 771 -110 q 722 -47 771 -74 q 467 0 635 0 q 410 -1 439 0 q 313 -194 339 -128 q 299 -210 306 -210 q 293 -194 293 -210 m 1044 724 q 978 783 1044 767 q 815 800 911 800 q 563 772 718 800 q 190 644 297 724 q 144 579 144 611 q 189 517 144 547 q 185 510 200 510 q 171 515 176 510 q 121 582 136 539 q 114 625 114 601 q 199 757 114 710 q 465 856 306 819 q 767 893 625 893 q 956 858 861 893 q 1031 804 1006 839 q 1056 731 1056 769 q 1048 699 1056 699 q 1042 708 1040 700 q 1044 724 1044 717 m 790 956 q 776 960 776 956 q 781 974 776 965 q 791 981 786 982 q 797 981 796 981 q 880 1008 828 981 q 981 1076 932 1036 l 982 1078 q 1030 1126 999 1101 q 1064 1151 1061 1151 q 1057 1135 1067 1151 q 1047 1088 1047 1118 q 1063 1026 1047 1057 q 1133 969 1090 969 q 1148 971 1138 969 q 1158 967 1158 972 q 1132 951 1158 958 q 1074 943 1106 943 q 1017 961 1043 943 q 971 1038 972 992 q 790 956 871 956 z "},"":{"ha":826,"x_min":10,"x_max":1146,"o":"m 1051 960 q 1041 992 1039 971 q 1063 1036 1043 1014 q 1114 1058 1082 1058 q 1134 1049 1124 1058 q 1144 1022 1144 1040 q 1126 982 1144 1003 q 1087 955 1108 961 q 1051 960 1065 949 m 883 960 q 876 965 883 960 q 872 992 869 971 q 893 1036 874 1014 q 944 1058 913 1058 q 966 1049 954 1058 q 975 1019 978 1039 q 956 980 972 999 q 918 955 939 961 q 883 960 897 949 m 1044 724 q 978 783 1044 767 q 815 800 911 800 q 563 772 718 800 q 190 644 297 724 q 144 579 144 611 q 189 517 144 547 q 188 510 199 511 q 171 515 178 510 q 121 582 136 539 q 114 625 114 601 q 199 757 114 710 q 465 856 306 819 q 767 893 625 893 q 956 858 861 893 q 1031 804 1006 839 q 1056 731 1056 769 q 1048 699 1056 699 q 1042 708 1040 700 q 1044 724 1044 717 m 897 782 q 910 775 910 782 q 894 744 910 765 q 474 110 689 474 q 633 77 564 100 q 743 9 701 54 q 785 -93 785 -36 q 774 -129 785 -131 q 769 -119 767 -129 q 771 -106 771 -110 q 722 -47 771 -74 q 467 0 635 0 q 410 -1 439 0 q 313 -194 339 -128 q 299 -210 306 -210 q 293 -194 293 -210 q 375 -3 293 -158 q 183 -50 281 -11 q 118 -76 143 -65 q 61 -92 93 -86 q 21 -86 29 -99 q 10 -62 10 -78 q 16 -27 10 -46 q 42 14 22 -8 q 208 97 83 65 q 340 115 276 115 q 440 113 404 115 q 717 553 567 326 q 885 781 868 781 l 897 782 z "},"":{"ha":1171,"x_min":-8,"x_max":1265,"o":"m 1199 656 q 903 800 1121 768 q 781 810 840 810 q 347 731 560 810 q 103 592 186 671 q 49 500 49 543 q 63 456 49 474 q 69 433 76 438 q 56 436 63 429 q 21 538 21 476 q 100 701 21 638 q 402 845 208 788 q 767 903 596 903 q 1047 856 938 903 q 1264 540 1264 764 q 1104 192 1264 358 q 561 -64 915 -4 q 367 -82 454 -82 q -1 43 63 -82 q -8 60 -8 57 q 14 54 -8 71 q 287 -4 97 -4 q 674 52 476 -4 q 1015 217 872 108 q 1178 379 1122 297 q 1236 533 1236 465 q 1199 656 1236 600 m 625 763 q 631 764 626 764 l 646 764 q 656 760 656 764 q 644 739 656 750 q 414 446 576 664 q 632 471 589 471 q 645 460 646 472 q 631 446 644 449 q 372 388 435 408 q 218 115 263 235 q 210 104 214 104 q 199 110 206 104 q 199 140 193 115 q 328 372 217 215 q 272 356 308 365 q 132 313 199 333 q 124 326 124 310 q 151 389 124 365 q 375 439 279 421 q 413 490 388 456 q 625 763 603 751 z "},"":{"ha":813,"x_min":-107,"x_max":1132,"o":"m -87 -194 q -100 -210 -94 -210 q -106 -196 -106 -210 q 139 274 -106 -115 q 467 763 383 664 q 549 911 503 876 q 578 918 558 918 q 644 900 599 918 q 689 857 689 882 q 678 838 689 846 q 581 639 615 785 q 546 342 546 493 q 588 60 546 161 q 848 549 644 207 q 1075 892 1051 892 q 1088 893 1076 892 q 1131 886 1131 899 q 1121 864 1131 881 q 826 433 979 679 q 601 29 674 188 q 667 -35 629 -17 q 699 -43 683 -43 q 722 -38 714 -43 q 733 -35 731 -33 q 736 -42 736 -37 q 733 -49 736 -46 q 675 -72 701 -72 q 533 8 592 -72 q 446 207 475 88 q 417 433 417 326 q 443 672 417 553 q 133 208 294 471 q -87 -194 -28 -56 m 1019 1018 q 1082 1053 1067 1018 q 1097 1036 1097 1051 q 1067 990 1097 1015 q 980 954 1018 954 q 921 967 942 954 q 875 999 900 981 q 832 1018 847 1018 q 756 974 797 1018 q 740 965 743 961 q 736 972 736 969 q 743 982 736 975 q 872 1060 821 1060 q 958 1045 924 1060 q 1000 1024 992 1031 q 1019 1018 1008 1018 z "},"":{"ha":833,"x_min":13,"x_max":947,"o":"m 856 979 q 828 983 856 979 q 737 1015 800 986 q 651 1068 674 1043 q 628 1103 628 1093 q 634 1121 628 1113 q 670 1137 640 1129 q 705 1144 700 1144 q 707 1139 710 1144 q 704 1126 704 1133 q 767 1049 704 1099 q 892 990 829 1000 q 911 980 911 988 q 856 979 911 972 m 947 715 q 947 651 947 715 q 891 469 947 588 q 738 226 835 350 q 450 -17 617 74 q 274 -62 364 -62 q 76 25 150 -62 q 14 199 14 99 q 115 501 14 338 q 299 715 190 621 q 480 831 408 808 q 603 854 551 854 q 693 819 656 854 q 735 708 735 782 q 719 619 735 665 q 710 611 714 603 q 710 635 706 619 q 715 669 715 651 q 643 731 715 731 q 384 631 539 731 q 151 424 229 531 q 44 158 44 276 q 189 6 44 29 q 232 1 210 1 q 417 40 308 1 q 732 260 613 110 q 892 701 892 458 q 890 764 892 721 q 869 844 888 807 q 797 896 839 908 q 790 897 790 893 q 825 914 792 914 q 892 886 858 914 q 947 715 947 842 z "},"":{"ha":833,"x_min":13,"x_max":947,"o":"m 940 1103 q 943 1088 943 1099 q 912 1051 943 1078 q 806 998 881 1025 q 669 969 731 971 q 604 976 607 967 q 626 986 603 985 q 778 1042 697 990 q 860 1126 860 1094 q 857 1137 860 1132 q 859 1142 854 1142 q 892 1132 864 1142 q 940 1103 919 1122 m 947 715 q 947 651 947 715 q 891 469 947 588 q 738 226 835 350 q 450 -17 617 74 q 274 -62 364 -62 q 76 25 150 -62 q 14 199 14 99 q 115 501 14 338 q 299 715 190 621 q 480 831 408 808 q 603 854 551 854 q 693 819 656 854 q 735 708 735 782 q 719 619 735 665 q 710 611 714 603 q 710 635 706 619 q 715 669 715 651 q 643 731 715 731 q 384 631 539 731 q 151 424 229 531 q 44 158 44 276 q 189 6 44 29 q 232 1 210 1 q 417 40 308 1 q 732 260 613 110 q 892 701 892 458 q 890 764 892 721 q 869 844 888 807 q 797 896 839 908 q 790 897 790 893 q 825 914 792 914 q 892 886 858 914 q 947 715 947 842 z "},"":{"ha":833,"x_min":13,"x_max":1039,"o":"m 947 715 q 947 651 947 715 q 891 469 947 588 q 738 226 835 350 q 450 -17 617 74 q 274 -62 364 -62 q 76 25 150 -62 q 14 199 14 99 q 115 501 14 338 q 299 715 190 621 q 480 831 408 808 q 603 854 551 854 q 693 819 656 854 q 735 708 735 782 q 719 619 735 665 q 710 611 714 603 q 710 635 706 619 q 715 669 715 651 q 643 731 715 731 q 384 631 539 731 q 151 424 229 531 q 44 158 44 276 q 189 6 44 29 q 232 1 210 1 q 417 40 308 1 q 732 260 613 110 q 892 701 892 458 q 890 764 892 721 q 869 844 888 807 q 797 896 839 908 q 790 897 790 893 q 825 914 792 914 q 892 886 858 914 q 947 715 947 842 m 1013 982 q 1027 983 1017 982 q 1038 979 1038 985 q 1011 965 1038 972 q 953 957 985 957 q 894 976 922 957 q 851 1051 850 1007 q 754 992 806 1014 q 667 969 703 969 q 663 969 665 969 q 656 974 656 969 q 660 986 656 978 q 670 994 665 994 q 676 994 675 994 q 760 1022 707 994 q 863 1090 813 1050 q 908 1139 876 1113 q 943 1165 940 1165 q 937 1147 946 1165 q 928 1108 928 1129 q 958 1013 928 1044 q 1013 982 988 982 z "},"":{"ha":833,"x_min":13,"x_max":947,"o":"m 947 715 q 947 651 947 715 q 891 469 947 588 q 738 226 835 350 q 450 -17 617 74 q 274 -62 364 -62 q 76 25 150 -62 q 14 199 14 99 q 115 501 14 338 q 299 715 190 621 q 480 831 408 808 q 603 854 551 854 q 693 819 656 854 q 735 708 735 782 q 719 619 735 665 q 710 611 714 603 q 710 635 706 619 q 715 669 715 651 q 643 731 715 731 q 384 631 539 731 q 151 424 229 531 q 44 158 44 276 q 189 6 44 29 q 232 1 210 1 q 417 40 308 1 q 732 260 613 110 q 892 701 892 458 q 890 764 892 721 q 869 844 888 807 q 797 896 839 908 q 790 897 790 893 q 825 914 792 914 q 892 886 858 914 q 947 715 947 842 z "},"":{"ha":833,"x_min":13,"x_max":975,"o":"m 940 1083 q 975 1046 975 1083 q 957 1005 975 1025 q 917 979 939 985 q 882 985 896 974 q 871 1017 868 996 q 890 1057 874 1038 q 940 1083 913 1083 m 713 984 q 707 989 713 984 q 702 1017 700 994 q 724 1061 704 1039 q 775 1083 743 1083 q 797 1074 785 1083 q 806 1044 808 1064 q 786 1004 803 1024 q 748 979 769 985 q 713 984 726 974 m 947 715 q 947 651 947 715 q 891 469 947 588 q 738 226 835 350 q 450 -17 617 74 q 274 -62 364 -62 q 76 25 150 -62 q 14 199 14 99 q 115 501 14 338 q 299 715 190 621 q 480 831 408 808 q 603 854 551 854 q 693 819 656 854 q 735 708 735 782 q 719 619 735 665 q 710 611 714 603 q 710 635 706 619 q 715 669 715 651 q 643 731 715 731 q 384 631 539 731 q 151 424 229 531 q 44 158 44 276 q 189 6 44 29 q 232 1 210 1 q 417 40 308 1 q 732 260 613 110 q 892 701 892 458 q 890 764 892 721 q 869 844 888 807 q 797 896 839 908 q 790 897 790 893 q 825 914 792 914 q 892 886 858 914 q 947 715 947 842 z "},"":{"ha":431,"x_min":-36,"x_max":433,"o":"m 199 258 q 413 414 374 414 q 428 409 422 414 q 433 399 433 404 q 403 374 433 394 q 210 219 332 328 q 253 93 225 150 q 350 8 296 8 q 392 25 379 8 q 397 26 394 28 q 397 21 400 24 q 342 -7 376 -7 q 129 144 204 -7 q -10 9 3 24 q -29 -2 -22 -6 q -36 5 -36 1 q -32 14 -36 8 q 115 176 1 64 l 114 176 q 82 306 82 261 q 94 372 82 350 q 144 410 107 393 q 189 426 182 426 q 192 409 199 426 q 185 368 185 392 q 199 258 185 288 z "},"":{"ha":833,"x_min":13,"x_max":947,"o":"m 947 715 q 947 651 947 715 q 891 469 947 588 q 738 226 835 350 q 450 -17 617 74 q 274 -62 364 -62 q 76 25 150 -62 q 14 199 14 99 q 115 501 14 338 q 299 715 190 621 q 480 831 408 808 q 603 854 551 854 q 693 819 656 854 q 735 708 735 782 q 719 619 735 665 q 710 611 714 603 q 710 635 706 619 q 715 669 715 651 q 643 731 715 731 q 384 631 539 731 q 151 424 229 531 q 44 158 44 276 q 189 6 44 29 q 232 1 210 1 q 417 40 308 1 q 732 260 613 110 q 892 701 892 458 q 890 764 892 721 q 869 844 888 807 q 797 896 839 908 q 790 897 790 893 q 825 914 792 914 q 892 886 858 914 q 947 715 947 842 z "},"":{"ha":936,"x_min":26,"x_max":1072,"o":"m 990 774 q 852 812 915 783 q 766 865 789 840 q 743 900 743 890 q 749 918 743 910 q 784 934 754 926 q 819 942 814 942 q 822 936 825 942 q 819 924 819 931 q 882 847 819 896 q 1008 788 944 797 q 1026 781 1025 785 q 990 774 1029 771 m 1069 628 q 800 -81 817 186 q 797 -138 797 -112 q 811 -199 797 -164 q 872 -242 828 -242 q 906 -230 893 -242 q 920 -224 919 -218 q 913 -237 921 -231 q 851 -257 892 -257 q 842 -257 847 -257 q 701 -85 701 -246 q 724 68 701 -21 q 782 203 739 121 q 521 -40 640 18 q 444 -60 478 -60 q 386 -33 411 -60 q 361 30 361 -6 q 372 110 361 65 q 464 372 382 156 q 567 710 567 643 q 446 803 567 803 q 163 722 325 803 q 90 681 110 697 q 60 664 69 664 q 35 685 44 664 q 26 726 26 706 q 37 763 26 746 q 56 786 47 779 q 286 867 121 839 q 456 882 369 882 q 606 846 542 882 q 671 739 671 810 q 667 703 671 722 q 540 417 653 633 q 407 140 428 201 q 386 45 386 78 q 401 -8 386 13 q 446 -29 415 -29 q 528 -2 476 -29 q 634 74 579 25 q 728 169 689 124 q 819 288 767 214 q 894 403 871 363 q 1029 625 990 558 q 1052 649 1043 649 q 1066 644 1061 649 q 1071 635 1071 639 q 1069 628 1071 631 z "},"":{"ha":936,"x_min":26,"x_max":1110,"o":"m 1110 893 q 1078 849 1110 875 q 972 796 1047 822 q 811 767 897 769 q 771 775 774 764 q 776 781 769 778 l 793 783 q 946 840 865 789 q 1026 924 1026 892 q 1024 934 1026 929 q 1026 939 1021 939 q 1058 930 1031 939 q 1107 901 1085 921 q 1110 893 1110 897 m 1069 628 q 800 -81 817 186 q 797 -138 797 -112 q 811 -199 797 -164 q 872 -242 828 -242 q 906 -230 893 -242 q 920 -224 919 -218 q 913 -237 921 -231 q 851 -257 892 -257 q 842 -257 847 -257 q 701 -85 701 -246 q 724 68 701 -21 q 782 203 739 121 q 521 -40 640 18 q 444 -60 478 -60 q 386 -33 411 -60 q 361 30 361 -6 q 372 110 361 65 q 464 372 382 156 q 567 710 567 643 q 446 803 567 803 q 163 722 325 803 q 90 681 110 697 q 60 664 69 664 q 35 685 44 664 q 26 726 26 706 q 37 763 26 746 q 56 786 47 779 q 286 867 121 839 q 456 882 369 882 q 606 846 542 882 q 671 739 671 810 q 667 703 671 722 q 540 417 653 633 q 407 140 428 201 q 386 45 386 78 q 401 -8 386 13 q 446 -29 415 -29 q 528 -2 476 -29 q 634 74 579 25 q 728 169 689 124 q 819 288 767 214 q 894 403 871 363 q 1029 625 990 558 q 1052 649 1043 649 q 1066 644 1061 649 q 1071 635 1071 639 q 1069 628 1071 631 z "},"":{"ha":936,"x_min":26,"x_max":1114,"o":"m 1069 628 q 800 -81 817 186 q 797 -138 797 -112 q 811 -199 797 -164 q 872 -242 828 -242 q 906 -230 893 -242 q 920 -224 919 -218 q 913 -237 921 -231 q 851 -257 892 -257 q 842 -257 847 -257 q 701 -85 701 -246 q 724 68 701 -21 q 782 203 739 121 q 521 -40 640 18 q 444 -60 478 -60 q 386 -33 411 -60 q 361 30 361 -6 q 372 110 361 65 q 464 372 382 156 q 567 710 567 643 q 446 803 567 803 q 163 722 325 803 q 90 681 110 697 q 60 664 69 664 q 35 685 44 664 q 26 726 26 706 q 37 763 26 746 q 56 786 47 779 q 286 867 121 839 q 456 882 369 882 q 606 846 542 882 q 671 739 671 810 q 667 703 671 722 q 540 417 653 633 q 407 140 428 201 q 386 45 386 78 q 401 -8 386 13 q 446 -29 415 -29 q 528 -2 476 -29 q 634 74 579 25 q 728 169 689 124 q 819 288 767 214 q 894 403 871 363 q 1029 625 990 558 q 1052 649 1043 649 q 1067 642 1061 649 q 1069 628 1074 636 m 926 893 q 829 832 881 854 q 754 810 778 810 q 731 815 731 810 q 736 828 731 819 q 747 835 742 836 q 753 835 751 835 q 834 862 782 835 q 935 928 886 889 q 985 981 954 956 q 1019 1006 1017 1006 q 1012 988 1022 1006 q 1001 941 1001 971 q 1017 881 1001 911 q 1088 824 1044 824 q 1102 825 1092 824 q 1113 821 1113 826 q 1086 805 1113 813 q 1028 797 1060 797 q 969 817 997 797 q 926 893 926 847 z "},"":{"ha":936,"x_min":26,"x_max":1072,"o":"m 957 844 q 958 854 957 844 q 976 883 960 864 q 1007 906 993 903 q 1030 910 1021 910 q 1051 901 1039 910 q 1060 871 1063 893 q 1041 830 1058 849 q 1003 806 1024 811 q 968 813 982 801 q 957 844 954 824 m 788 844 q 789 854 788 844 q 807 883 790 864 q 838 906 824 903 q 860 910 851 910 q 881 901 869 910 q 891 871 893 893 q 872 830 889 849 q 834 806 856 811 q 799 813 813 801 q 788 844 785 824 m 1069 628 q 800 -81 817 186 q 797 -138 797 -112 q 811 -199 797 -164 q 872 -242 828 -242 q 906 -230 893 -242 q 920 -224 919 -218 q 913 -237 921 -231 q 851 -257 892 -257 q 842 -257 847 -257 q 701 -85 701 -246 q 724 68 701 -21 q 782 203 739 121 q 521 -40 640 18 q 444 -60 478 -60 q 386 -33 411 -60 q 361 30 361 -6 q 372 110 361 65 q 464 372 382 156 q 567 710 567 643 q 446 803 567 803 q 163 722 325 803 q 90 681 110 697 q 60 664 69 664 q 35 685 44 664 q 26 726 26 706 q 37 763 26 746 q 56 786 47 779 q 286 867 121 839 q 456 882 369 882 q 606 846 542 882 q 671 739 671 810 q 667 703 671 722 q 540 417 653 633 q 407 140 428 201 q 386 45 386 78 q 401 -8 386 13 q 446 -29 415 -29 q 528 -2 476 -29 q 634 74 579 25 q 728 169 689 124 q 819 288 767 214 q 894 403 871 363 q 1029 625 990 558 q 1052 649 1043 649 q 1066 644 1061 649 q 1071 635 1071 639 q 1069 628 1071 631 z "},"":{"ha":1267,"x_min":11,"x_max":1225,"o":"m 1222 1049 q 1225 1034 1225 1044 q 1194 997 1225 1024 q 1088 944 1163 971 q 951 915 1013 917 q 888 922 889 913 q 897 931 885 929 q 910 932 908 932 q 1062 989 982 938 q 1142 1072 1142 1040 q 1139 1083 1142 1078 q 1141 1088 1136 1088 q 1174 1078 1146 1088 q 1222 1049 1201 1068 m 797 658 q 786 634 797 658 q 754 572 775 610 q 650 394 733 535 q 524 166 567 254 q 481 35 481 78 q 515 -8 481 -8 q 635 60 554 -8 q 783 208 715 129 q 881 331 851 288 q 1158 833 1106 657 q 1179 868 1168 865 q 1199 860 1192 879 q 1225 678 1225 789 q 1181 399 1225 568 q 985 -62 1104 99 q 772 -267 892 -189 q 528 -346 653 -346 q 320 -274 404 -346 q 217 -49 236 -201 q 219 -33 215 -37 q 227 -33 222 -29 q 233 -46 232 -37 q 322 -236 251 -162 q 485 -310 392 -310 q 764 -144 619 -310 q 1111 440 1011 138 q 1176 771 1176 635 q 1176 797 1176 785 q 1064 543 1143 685 q 813 194 951 344 q 492 -39 596 -39 q 439 17 439 -39 q 465 123 439 54 q 522 250 492 192 q 652 483 581 363 q 738 652 724 603 q 753 729 753 701 q 604 831 753 831 q 206 747 456 831 q 33 638 33 688 q 58 601 33 619 q 57 597 65 597 q 43 600 49 596 q 13 656 13 621 q 97 783 13 733 q 343 878 199 842 q 625 918 499 918 q 833 813 822 918 q 833 784 833 801 q 826 737 833 767 q 797 658 819 707 z "},"":{"ha":749,"x_min":-22,"x_max":1008,"o":"m 606 635 q 738 644 681 644 q 859 626 794 644 q 961 567 924 608 q 1008 436 1008 513 q 917 229 1008 333 q 789 125 864 169 q 511 8 674 58 q 233 -42 349 -42 q 174 -39 203 -42 q 17 -304 49 -224 q -11 -328 8 -328 q -21 -314 -21 -328 q 128 -32 -21 -260 q 36 11 72 -18 q -6 81 -6 44 q 19 140 -6 117 q 31 142 31 150 q 24 123 32 135 q 15 99 15 111 q 142 -11 15 14 q 310 249 189 60 q 478 511 431 439 q 117 365 214 449 q 100 335 93 347 q 103 322 107 324 q 92 326 99 321 q 54 369 63 344 q 46 406 46 394 q 53 425 46 418 q 240 544 96 489 q 554 626 385 599 q 733 882 724 882 q 744 869 739 882 q 749 851 750 857 q 606 635 685 758 m 219 -18 q 513 38 343 -18 q 769 152 682 93 q 899 272 857 211 q 940 383 940 332 q 908 475 940 435 q 708 544 853 544 q 536 524 625 544 q 190 -17 246 61 q 219 -18 204 -18 z "},"":{"ha":893,"x_min":-231,"x_max":978,"o":"m 978 785 q 911 668 978 728 q 636 514 807 574 q 606 493 606 504 q 632 482 608 483 q 815 440 747 478 q 897 311 897 394 q 786 96 897 201 q 308 -81 601 -81 q 173 -65 232 -81 q 96 -37 114 -49 q 52 -4 78 -25 q 40 17 26 17 q 82 4 47 17 q 210 -8 117 -8 q 411 13 304 -8 q 594 78 518 35 q 715 175 671 121 q 769 307 769 240 q 750 381 769 343 q 672 438 731 418 q 568 458 614 458 q 497 456 522 458 q 472 472 472 453 q 519 517 474 499 l 546 525 q 888 756 888 608 q 725 876 888 876 q 553 808 640 876 q -28 -28 360 657 q -104 -154 -89 -136 l -137 -192 q -203 -236 -162 -219 q -215 -237 -208 -237 q -226 -233 -222 -237 q -231 -225 -231 -228 q -214 -208 -231 -217 q -33 32 -153 -181 q 50 183 -8 75 q 235 510 179 426 q 306 618 290 594 q 358 691 321 642 q 421 766 396 740 q 487 828 446 792 q 564 883 528 864 q 746 929 656 929 q 978 785 978 929 z "},"":{"ha":669,"x_min":-8,"x_max":740,"o":"m 515 474 q 486 478 515 474 q 394 510 457 482 q 308 563 331 539 q 285 597 285 588 q 290 615 285 607 q 326 631 296 624 q 360 639 356 639 q 363 634 365 639 q 361 622 361 629 q 424 545 361 594 q 550 486 488 496 q 569 478 567 483 q 515 474 572 467 m 510 214 q 502 205 510 214 q 478 175 494 196 q 438 118 463 154 q 414 57 414 82 q 435 32 414 32 q 506 58 457 32 q 721 225 603 114 q 739 229 735 239 q 739 224 739 228 q 733 214 739 219 q 386 -11 494 -11 q 333 10 354 -11 q 311 61 311 32 q 336 150 311 90 q 202 30 274 72 q 90 -12 131 -12 q 22 12 50 -12 q -7 72 -7 36 q 85 274 -7 175 q 257 378 154 347 q 347 393 303 393 q 431 369 390 393 q 483 311 472 344 q 543 281 525 311 q 546 267 546 276 q 535 244 546 257 q 510 214 525 232 m 408 351 q 339 333 379 351 q 204 228 268 303 q 103 53 103 108 q 126 24 103 24 q 191 49 146 24 q 310 147 236 74 q 342 178 314 151 q 389 224 369 204 q 454 322 454 292 q 408 351 454 351 z "},"":{"ha":669,"x_min":-8,"x_max":740,"o":"m 622 594 q 628 577 628 589 q 597 539 628 565 q 490 486 565 513 q 353 458 415 460 q 290 465 292 456 q 313 475 288 474 q 465 531 385 479 q 544 614 544 582 q 542 626 544 621 q 544 631 540 631 q 574 623 549 631 q 622 594 599 615 m 510 214 q 502 205 510 214 q 478 175 494 196 q 438 118 463 154 q 414 57 414 82 q 435 32 414 32 q 506 58 457 32 q 721 225 603 114 q 739 229 735 239 q 739 224 739 228 q 733 214 739 219 q 386 -11 494 -11 q 333 10 354 -11 q 311 61 311 32 q 336 150 311 90 q 202 30 274 72 q 90 -12 131 -12 q 22 12 50 -12 q -7 72 -7 36 q 85 274 -7 175 q 257 378 154 347 q 347 393 303 393 q 431 369 390 393 q 483 311 472 344 q 543 281 525 311 q 546 267 546 276 q 535 244 546 257 q 510 214 525 232 m 408 351 q 339 333 379 351 q 204 228 268 303 q 103 53 103 108 q 126 24 103 24 q 191 49 146 24 q 310 147 236 74 q 342 178 314 151 q 389 224 369 204 q 454 322 454 292 q 408 351 454 351 z "},"":{"ha":669,"x_min":-8,"x_max":740,"o":"m 510 214 q 502 205 510 214 q 478 175 494 196 q 438 118 463 154 q 414 57 414 82 q 435 32 414 32 q 506 58 457 32 q 721 225 603 114 q 739 229 735 239 q 739 224 739 228 q 733 214 739 219 q 386 -11 494 -11 q 333 10 354 -11 q 311 61 311 32 q 336 150 311 90 q 202 30 274 72 q 90 -12 131 -12 q 22 12 50 -12 q -7 72 -7 36 q 85 274 -7 175 q 257 378 154 347 q 347 393 303 393 q 431 369 390 393 q 483 311 472 344 q 543 281 525 311 q 546 267 546 276 q 535 244 546 257 q 510 214 525 232 m 103 53 q 126 24 103 24 q 191 49 146 24 q 310 147 236 74 q 342 178 314 151 q 388 224 369 204 q 420 259 407 243 q 444 293 433 275 q 444 342 461 325 q 404 351 429 351 q 339 333 379 351 q 204 228 268 303 q 103 53 103 108 m 599 485 q 613 486 603 485 q 624 482 624 488 q 597 467 624 475 q 540 460 571 460 q 481 478 508 460 q 438 554 438 508 q 340 494 392 517 q 253 472 289 472 q 249 472 251 472 q 242 476 242 472 q 247 489 242 481 q 258 497 253 497 q 264 497 263 497 q 346 524 294 497 q 446 590 397 550 q 449 594 446 592 q 495 642 464 617 q 529 668 526 668 q 523 650 532 668 q 514 611 514 632 q 544 516 514 547 q 599 485 574 485 z "},"":{"ha":669,"x_min":-8,"x_max":740,"o":"m 594 503 q 486 465 544 465 q 448 478 468 465 q 403 510 428 492 q 358 529 375 529 q 283 486 326 529 q 267 480 272 474 q 271 494 263 486 q 402 572 353 572 q 483 558 451 572 q 528 536 514 543 q 553 529 543 529 q 575 533 564 529 q 610 565 601 547 q 625 553 622 563 q 594 503 629 531 m 510 214 q 502 205 510 214 q 478 175 494 196 q 438 118 463 154 q 414 57 414 82 q 435 32 414 32 q 506 58 457 32 q 721 225 603 114 q 739 229 735 239 q 739 224 739 228 q 733 214 739 219 q 386 -11 494 -11 q 333 10 354 -11 q 311 61 311 32 q 336 150 311 90 q 202 30 274 72 q 90 -12 131 -12 q 22 12 50 -12 q -7 72 -7 36 q 85 274 -7 175 q 257 378 154 347 q 347 393 303 393 q 431 369 390 393 q 483 311 472 344 q 543 281 525 311 q 546 267 546 276 q 535 244 546 257 q 510 214 525 232 m 408 351 q 339 333 379 351 q 204 228 268 303 q 103 53 103 108 q 126 24 103 24 q 191 49 146 24 q 310 147 236 74 q 342 178 314 151 q 389 224 369 204 q 454 322 454 292 q 408 351 454 351 z "},"":{"ha":669,"x_min":-8,"x_max":740,"o":"m 515 535 q 568 561 538 561 q 590 551 578 561 q 599 522 601 542 q 579 483 596 501 q 542 458 563 464 q 507 463 521 451 q 495 495 493 474 q 515 535 497 517 m 326 494 q 328 505 326 494 q 346 535 329 515 q 376 558 363 554 q 399 561 390 561 q 420 552 408 561 q 430 522 432 543 q 410 482 428 500 q 372 458 393 464 q 338 463 351 451 q 326 494 324 474 m 510 214 q 502 205 510 214 q 478 175 494 196 q 438 118 463 154 q 414 57 414 82 q 435 32 414 32 q 506 58 457 32 q 721 225 603 114 q 739 229 735 239 q 739 224 739 228 q 733 214 739 219 q 386 -11 494 -11 q 333 10 354 -11 q 311 61 311 32 q 336 150 311 90 q 202 30 274 72 q 90 -12 131 -12 q 22 12 50 -12 q -7 72 -7 36 q 85 274 -7 175 q 257 378 154 347 q 347 393 303 393 q 431 369 390 393 q 483 311 472 344 q 543 281 525 311 q 546 267 546 276 q 535 244 546 257 q 510 214 525 232 m 408 351 q 339 333 379 351 q 204 228 268 303 q 103 53 103 108 q 126 24 103 24 q 191 49 146 24 q 310 147 236 74 q 342 178 314 151 q 389 224 369 204 q 454 322 454 292 q 408 351 454 351 z "},"":{"ha":669,"x_min":-8,"x_max":740,"o":"m 503 682 q 586 615 586 682 q 538 515 586 567 q 408 439 489 463 q 358 431 379 431 q 306 471 313 431 q 342 581 296 519 q 400 644 371 619 q 503 682 447 682 m 510 214 q 502 205 510 214 q 478 175 494 196 q 438 118 463 154 q 414 57 414 82 q 435 32 414 32 q 506 58 457 32 q 721 225 603 114 q 739 229 735 239 q 739 224 739 228 q 733 214 739 219 q 386 -11 494 -11 q 333 10 354 -11 q 311 61 311 32 q 336 150 311 90 q 202 30 274 72 q 90 -12 131 -12 q 22 12 50 -12 q -7 72 -7 36 q 85 274 -7 175 q 257 378 154 347 q 347 393 303 393 q 431 369 390 393 q 483 311 472 344 q 543 281 525 311 q 546 267 546 276 q 535 244 546 257 q 510 214 525 232 m 463 626 q 378 579 422 626 q 333 495 333 532 q 365 458 333 458 q 413 471 382 458 q 475 517 443 483 q 511 585 511 556 q 497 618 511 615 q 463 626 481 626 m 408 351 q 339 333 379 351 q 204 228 268 303 q 103 53 103 108 q 126 24 103 24 q 191 49 146 24 q 310 147 236 74 q 342 178 314 151 q 389 224 369 204 q 454 322 454 292 q 408 351 454 351 z "},"":{"ha":814,"x_min":-8,"x_max":882,"o":"m 739 300 q 689 340 739 340 q 518 226 615 340 q 442 75 442 136 q 463 31 442 49 q 525 14 485 14 q 694 85 592 14 q 864 224 796 156 q 881 224 881 239 q 872 206 881 214 q 682 49 742 88 q 482 -24 576 -22 q 439 -26 460 -26 q 345 1 378 -26 q 313 61 313 29 q 336 150 313 92 q 202 30 274 72 q 90 -12 131 -12 q 22 12 50 -12 q -7 72 -7 36 q 85 274 -7 175 q 257 378 154 347 q 347 393 303 393 q 427 372 390 393 q 478 325 464 350 q 661 383 568 383 q 767 350 740 383 q 778 315 778 333 q 765 274 778 296 q 672 198 740 231 q 542 165 603 165 q 515 169 518 165 q 518 176 513 174 l 535 178 q 665 217 590 178 q 739 300 739 257 m 408 351 q 339 333 379 351 q 204 228 268 303 q 103 53 103 108 q 126 24 103 24 q 191 49 146 24 q 310 147 236 74 q 342 178 314 151 q 389 224 369 204 q 454 322 454 292 q 408 351 454 351 z "},"":{"ha":475,"x_min":-76,"x_max":539,"o":"m 403 329 q 375 356 403 356 q 302 334 351 356 q 192 242 253 313 q 118 86 118 154 q 157 17 118 35 q 186 11 169 11 q 320 60 243 11 q 519 221 397 108 q 539 221 539 240 q 531 206 539 213 q 281 13 361 50 q 138 -24 200 -24 q 104 -21 121 -24 q 74 -72 74 -43 q 103 -128 74 -86 q 133 -196 133 -171 q 132 -206 133 -201 q -68 -276 114 -276 q -75 -271 -75 -276 q -39 -253 -75 -257 q 10 -247 -3 -250 q 38 -231 24 -244 q 60 -189 60 -208 q 47 -142 60 -169 q 33 -103 33 -115 q 81 -15 33 -49 q -6 94 -6 7 q 101 298 -6 213 q 322 383 207 383 q 419 350 394 383 q 435 315 435 333 q 425 276 435 296 q 394 256 415 256 q 388 283 372 256 q 403 329 403 310 z "},"":{"ha":475,"x_min":-7,"x_max":540,"o":"m 381 474 q 352 478 381 474 q 260 510 324 482 q 174 563 197 539 q 151 597 151 588 q 157 615 151 607 q 192 631 163 624 q 227 639 222 639 q 232 635 232 639 q 228 621 228 628 q 291 544 228 593 q 417 486 354 496 q 435 479 433 483 q 381 474 438 467 m 324 217 q 397 299 397 257 q 347 340 397 340 q 297 328 324 340 q 185 236 239 301 q 118 86 118 156 q 133 37 118 60 q 185 14 147 14 q 350 83 250 14 q 522 221 450 151 q 539 222 539 238 q 531 206 539 213 q 462 142 479 158 q 393 85 444 126 q 310 28 342 44 q 142 -24 211 -24 q 34 8 74 -24 q -6 94 -6 39 q 100 298 -6 213 q 321 383 206 383 q 425 350 399 383 q 436 315 436 333 q 424 274 436 296 q 330 198 399 231 q 200 165 261 165 q 174 169 176 165 q 178 176 172 174 q 193 178 183 178 q 324 217 249 178 z "},"":{"ha":475,"x_min":-7,"x_max":561,"o":"m 558 592 q 561 576 561 588 q 530 539 561 565 q 424 486 499 513 q 287 458 349 460 q 222 465 225 456 q 229 472 222 469 l 244 475 q 349 505 290 478 q 443 563 408 532 q 478 615 478 594 q 476 626 478 621 q 478 631 474 631 q 510 621 482 631 q 558 592 538 611 m 324 217 q 397 299 397 257 q 347 340 397 340 q 297 328 324 340 q 185 236 239 301 q 118 86 118 156 q 133 37 118 60 q 185 14 147 14 q 350 83 250 14 q 522 221 450 151 q 539 222 539 238 q 531 206 539 213 q 462 142 479 158 q 393 85 444 126 q 310 28 342 44 q 142 -24 211 -24 q 34 8 74 -24 q -6 94 -6 39 q 100 298 -6 213 q 321 383 206 383 q 425 350 399 383 q 436 315 436 333 q 424 274 436 296 q 330 198 399 231 q 200 165 261 165 q 174 169 176 165 q 178 176 172 174 q 193 178 183 178 q 324 217 249 178 z "},"":{"ha":475,"x_min":-7,"x_max":653,"o":"m 324 217 q 397 299 397 257 q 347 340 397 340 q 297 328 324 340 q 185 236 239 301 q 118 86 118 156 q 133 37 118 60 q 185 14 147 14 q 350 83 250 14 q 522 221 450 151 q 540 226 539 238 q 531 206 540 214 q 462 142 479 158 q 393 85 444 126 q 310 28 342 44 q 142 -24 211 -24 q 34 8 74 -24 q -6 94 -6 39 q 100 298 -6 213 q 321 383 206 383 q 425 350 399 383 q 436 315 436 333 q 424 274 436 296 q 330 198 399 231 q 200 165 261 165 q 174 169 176 165 q 178 176 172 174 q 193 178 183 178 q 324 217 249 178 m 653 485 q 557 468 594 476 q 488 460 519 460 q 431 478 457 460 q 385 553 386 507 q 204 472 283 472 q 189 476 189 472 q 194 489 189 481 q 205 497 200 497 q 211 497 210 497 q 293 524 242 497 q 393 590 344 550 q 396 594 393 592 q 445 644 415 621 q 478 668 475 668 q 475 658 481 668 q 469 629 469 649 q 497 573 469 610 q 574 510 525 536 q 653 485 622 485 z "},"":{"ha":475,"x_min":-7,"x_max":540,"o":"m 429 494 q 431 505 429 494 q 449 535 432 515 q 479 558 465 554 q 502 561 493 561 q 523 552 511 561 q 533 522 535 543 q 513 482 531 500 q 475 458 496 464 q 440 463 454 451 q 429 494 426 474 m 260 494 q 261 505 260 494 q 279 535 263 515 q 310 558 296 554 q 333 561 324 561 q 353 552 342 561 q 363 522 365 543 q 344 482 361 500 q 306 458 328 464 q 271 463 285 451 q 260 494 257 474 m 324 217 q 397 299 397 257 q 347 340 397 340 q 297 328 324 340 q 185 236 239 301 q 118 86 118 156 q 133 37 118 60 q 185 14 147 14 q 350 83 250 14 q 522 221 450 151 q 539 222 539 238 q 531 206 539 213 q 462 142 479 158 q 393 85 444 126 q 310 28 342 44 q 142 -24 211 -24 q 34 8 74 -24 q -6 94 -6 39 q 100 298 -6 213 q 321 383 206 383 q 425 350 399 383 q 436 315 436 333 q 424 274 436 296 q 330 198 399 231 q 200 165 261 165 q 174 169 176 165 q 178 176 172 174 q 193 178 183 178 q 324 217 249 178 z "},"":{"ha":378,"x_min":-33,"x_max":422,"o":"m 318 465 q 290 469 318 465 q 198 501 261 472 q 112 554 135 529 q 89 589 89 579 q 94 607 89 599 q 130 623 100 615 q 165 631 160 631 q 168 625 171 631 q 165 613 165 619 q 228 536 165 585 q 354 478 290 488 q 372 469 371 475 q 318 465 375 458 m 263 350 q 167 202 206 292 q 129 76 129 113 q 158 40 129 40 q 252 82 186 40 q 403 200 318 124 q 421 196 421 217 q 418 190 421 193 q 306 94 351 132 q 197 23 260 57 q 93 -11 133 -11 q 19 11 43 -11 q -6 60 -6 33 q 13 139 -6 110 q 74 219 31 168 q 26 178 58 207 q -19 139 -7 149 q -32 144 -32 129 q -10 172 -32 154 q 87 264 13 190 q 188 351 161 338 q 233 365 215 365 q 258 360 250 365 q 263 350 267 356 z "},"":{"ha":378,"x_min":-33,"x_max":540,"o":"m 535 594 q 540 577 540 589 q 509 539 540 565 q 403 486 478 513 q 266 458 328 460 q 201 465 204 456 q 208 472 201 469 l 224 475 q 328 505 269 478 q 422 563 388 532 q 457 615 457 594 q 455 626 457 621 q 457 631 453 631 q 486 623 461 631 q 535 594 511 615 m 263 350 q 167 202 206 292 q 129 76 129 113 q 158 40 129 40 q 252 82 186 40 q 403 200 318 124 q 421 196 421 217 q 418 190 421 193 q 306 94 351 132 q 197 23 260 57 q 93 -11 133 -11 q 19 11 43 -11 q -6 60 -6 33 q 13 139 -6 110 q 74 219 31 168 q 26 178 58 207 q -19 139 -7 149 q -32 144 -32 129 q -10 172 -32 154 q 87 264 13 190 q 188 351 161 338 q 233 365 215 365 q 258 360 250 365 q 263 350 267 356 z "},"":{"ha":378,"x_min":-33,"x_max":474,"o":"m 263 350 q 167 202 206 292 q 129 76 129 113 q 158 40 129 40 q 252 82 186 40 q 403 200 318 124 q 421 199 417 213 q 418 190 422 193 q 306 94 351 132 q 197 23 260 57 q 93 -11 133 -11 q 19 11 43 -11 q -6 60 -6 33 q 13 139 -6 110 q 74 219 31 168 q 26 178 58 207 q -19 139 -7 149 q -32 144 -32 129 q -10 172 -32 154 q 87 264 13 190 q 188 351 161 338 q 233 365 215 365 q 258 360 250 365 q 263 350 267 356 m 446 485 q 462 486 451 485 q 472 482 472 488 q 446 467 472 475 q 388 460 419 460 q 329 478 357 460 q 285 554 285 508 q 188 494 239 517 q 100 472 136 472 q 89 476 89 472 q 94 489 89 481 q 105 497 100 497 q 111 497 110 497 q 193 524 142 497 q 293 590 244 550 q 296 594 293 592 q 343 642 311 617 q 378 668 375 668 q 371 651 381 668 q 361 603 361 633 q 376 542 361 572 q 446 485 403 485 z "},"":{"ha":378,"x_min":-33,"x_max":435,"o":"m 331 494 q 332 505 331 494 q 350 535 333 515 q 381 558 367 554 q 403 561 394 561 q 424 553 413 561 q 435 524 435 544 q 417 483 435 503 q 377 458 399 464 q 342 463 356 451 q 331 494 328 474 m 161 494 q 163 505 161 494 q 181 535 164 515 q 211 558 197 554 q 234 561 225 561 q 255 552 243 561 q 265 522 267 543 q 246 482 263 500 q 208 458 229 464 q 172 463 186 451 q 161 494 158 474 m 263 350 q 167 202 206 292 q 129 76 129 113 q 158 40 129 40 q 252 82 186 40 q 403 200 318 124 q 421 196 421 217 q 418 190 421 193 q 306 94 351 132 q 197 23 260 57 q 93 -11 133 -11 q 19 11 43 -11 q -6 60 -6 33 q 13 139 -6 110 q 74 219 31 168 q 26 178 58 207 q -19 139 -7 149 q -32 144 -32 129 q -10 172 -32 154 q 87 264 13 190 q 188 351 161 338 q 233 365 215 365 q 258 360 250 365 q 263 350 267 356 z "},"":{"ha":556,"x_min":-83,"x_max":546,"o":"m -83 685 q 28 765 -83 765 q 163 729 101 765 q 288 613 224 693 q 433 601 339 613 q 446 594 442 600 q 447 582 450 588 q 435 576 444 576 q 321 568 374 575 q 411 432 350 528 q 490 303 472 336 q 527 221 508 271 q 546 133 546 171 q 525 55 546 96 q 457 -18 504 14 q 399 -35 433 -35 q 319 -14 365 -35 q 161 111 233 26 q 65 321 65 224 q 103 404 65 374 q 158 419 128 419 q 224 406 189 419 q 364 307 294 376 q 297 433 340 347 q 233 556 254 518 q 81 529 97 532 q 72 564 67 526 q 92 603 76 601 q 199 611 150 608 q 49 728 129 711 q 18 733 35 733 q -54 685 -54 733 q -62 672 -54 675 q -76 672 -69 668 q -83 685 -83 675 m 472 54 q 472 92 472 54 q 422 206 472 129 q 313 314 372 283 q 256 332 278 332 q 190 257 190 332 q 240 105 190 182 q 350 -3 290 28 q 406 -21 383 -21 q 472 54 472 -21 z "},"":{"ha":594,"x_min":-31,"x_max":663,"o":"m 594 503 q 486 465 544 465 q 448 478 468 465 q 403 510 428 492 q 358 529 375 529 q 283 486 326 529 q 267 480 272 474 q 271 494 263 486 q 402 572 353 572 q 483 558 451 572 q 528 536 514 543 q 553 529 543 529 q 575 533 564 529 q 610 565 601 547 q 625 553 622 563 q 594 503 629 531 m 421 311 q 440 346 440 333 q 415 358 440 358 q 333 310 389 358 l 300 278 q 185 138 256 232 q 101 18 150 74 q 44 -17 69 -17 q 39 -17 42 -17 q -31 13 3 -17 q 47 110 -26 18 q 197 367 197 300 q 197 376 197 372 q 125 281 176 343 q 21 172 74 219 q 7 172 8 161 q 11 189 6 183 q 188 399 99 264 q 190 406 181 406 q 196 404 193 406 q 242 314 242 386 q 217 203 242 264 q 299 304 271 274 q 441 385 371 385 q 522 325 511 385 q 524 300 524 317 q 509 253 524 283 q 447 157 494 222 q 392 74 400 92 q 387 49 385 57 q 399 39 389 40 q 646 226 451 32 q 663 226 663 244 q 654 210 663 218 q 411 13 514 61 q 292 0 335 -26 q 265 47 265 17 q 276 107 265 76 q 421 311 303 178 z "},"":{"ha":518,"x_min":-32,"x_max":540,"o":"m 406 474 q 377 478 406 474 q 285 510 349 482 q 199 563 222 539 q 176 597 176 588 q 182 615 176 607 q 217 631 188 624 q 252 639 247 639 q 257 635 257 639 q 253 621 253 628 q 316 544 253 593 q 442 486 379 496 q 460 479 458 483 q 406 474 463 467 m 244 24 q 82 -24 151 -24 q 3 15 24 -24 q -8 60 -8 35 q 18 171 -8 117 q -17 142 0 153 q -31 146 -31 129 q -5 176 -31 156 q 71 247 21 196 q 150 321 121 297 q 326 390 233 390 q 397 372 361 390 q 450 281 450 347 q 369 115 450 200 q 281 43 338 79 q 522 181 394 61 q 535 185 529 186 q 540 179 540 185 q 535 168 540 174 q 250 24 382 24 q 244 24 247 24 m 306 300 q 221 254 275 300 q 156 121 156 199 q 200 49 156 65 q 278 114 240 74 q 344 249 344 189 q 326 294 344 278 q 306 300 317 300 m 256 315 q 119 253 193 315 q 22 117 44 192 q 15 60 15 90 q 40 8 15 29 q 86 1 56 1 q 179 36 117 1 q 122 124 122 61 q 174 247 122 193 q 286 313 226 300 q 256 315 271 315 z "},"":{"ha":518,"x_min":-32,"x_max":611,"o":"m 606 611 q 611 594 611 606 q 580 556 611 582 q 474 503 549 529 q 337 474 399 476 q 274 482 275 472 q 306 492 271 490 q 399 522 340 494 q 493 580 458 549 q 528 632 528 611 q 526 642 528 638 q 528 647 524 647 q 557 640 532 647 q 606 611 582 632 m 244 24 q 82 -24 151 -24 q 3 15 24 -24 q -8 60 -8 35 q 18 171 -8 117 q -17 142 0 153 q -31 146 -31 129 q -5 176 -31 156 q 71 247 21 196 q 150 321 121 297 q 326 390 233 390 q 397 372 361 390 q 450 281 450 347 q 369 115 450 200 q 281 43 338 79 q 522 181 394 61 q 535 185 529 186 q 540 179 540 185 q 535 168 540 174 q 250 24 382 24 q 244 24 247 24 m 306 300 q 221 254 275 300 q 156 121 156 199 q 200 49 156 65 q 278 114 240 74 q 344 249 344 189 q 326 294 344 278 q 306 300 317 300 m 256 315 q 119 253 193 315 q 22 117 44 192 q 15 60 15 90 q 40 8 15 29 q 86 1 56 1 q 179 36 117 1 q 122 124 122 61 q 174 247 122 193 q 286 313 226 300 q 256 315 271 315 z "},"":{"ha":518,"x_min":-32,"x_max":574,"o":"m 244 24 q 82 -24 151 -24 q 3 15 24 -24 q -8 60 -8 35 q 18 171 -8 117 q -17 142 0 153 q -31 146 -31 129 q -5 176 -31 156 q 71 247 21 196 q 150 321 121 297 q 326 390 233 390 q 397 372 361 390 q 450 281 450 347 q 369 115 450 200 q 281 43 338 79 q 522 181 394 61 q 535 185 529 186 q 540 179 540 185 q 535 168 540 174 q 250 24 382 24 q 244 24 247 24 m 306 300 q 221 254 275 300 q 156 121 156 199 q 200 49 156 65 q 278 114 240 74 q 344 249 344 189 q 326 294 344 278 q 306 300 317 300 m 256 315 q 119 253 193 315 q 22 117 44 192 q 15 60 15 90 q 40 8 15 29 q 86 1 56 1 q 179 36 117 1 q 122 124 122 61 q 174 247 122 193 q 286 313 226 300 q 256 315 271 315 m 546 485 q 562 486 551 485 q 572 482 572 488 q 546 467 572 475 q 488 460 519 460 q 431 478 457 460 q 385 553 386 507 q 204 472 283 472 q 189 476 189 472 q 194 489 189 481 q 205 497 200 497 q 211 497 210 497 q 293 524 242 497 q 393 590 344 550 q 396 594 393 592 q 445 644 415 621 q 478 668 475 668 q 471 651 481 668 q 461 603 461 633 q 476 542 461 572 q 546 485 503 485 z "},"":{"ha":518,"x_min":-32,"x_max":540,"o":"m 244 24 q 82 -24 151 -24 q 3 15 24 -24 q -8 60 -8 35 q 18 171 -8 117 q -17 142 0 153 q -31 146 -31 129 q -5 176 -31 156 q 71 247 21 196 q 150 321 121 297 q 326 390 233 390 q 397 372 361 390 q 450 281 450 347 q 369 115 450 200 q 281 43 338 79 q 522 181 394 61 q 535 185 529 186 q 540 179 540 185 q 535 168 540 174 q 250 24 382 24 q 244 24 247 24 m 306 300 q 221 254 275 300 q 156 121 156 199 q 200 49 156 65 q 278 114 240 74 q 344 249 344 189 q 326 294 344 278 q 306 300 317 300 m 256 315 q 119 253 193 315 q 22 117 44 192 q 15 60 15 90 q 40 8 15 29 q 86 1 56 1 q 179 36 117 1 q 122 124 122 61 q 174 247 122 193 q 286 313 226 300 q 256 315 271 315 z "},"":{"ha":518,"x_min":-32,"x_max":567,"o":"m 463 494 q 464 505 463 494 q 482 535 465 515 q 513 558 499 554 q 535 561 526 561 q 556 553 544 561 q 567 524 567 544 q 549 483 567 503 q 509 458 531 464 q 474 463 488 451 q 463 494 460 474 m 304 463 q 297 468 304 463 q 293 494 290 474 q 316 538 296 515 q 367 560 336 560 q 388 551 376 560 q 397 522 399 543 q 378 482 394 500 q 340 458 361 464 q 304 463 318 451 m 244 24 q 82 -24 151 -24 q 3 15 24 -24 q -8 60 -8 35 q 18 171 -8 117 q -17 142 0 153 q -31 146 -31 129 q -5 176 -31 156 q 71 247 21 196 q 150 321 121 297 q 326 390 233 390 q 397 372 361 390 q 450 281 450 347 q 369 115 450 200 q 281 43 338 79 q 522 181 394 61 q 535 185 529 186 q 540 179 540 185 q 535 168 540 174 q 250 24 382 24 q 244 24 247 24 m 306 300 q 221 254 275 300 q 156 121 156 199 q 200 49 156 65 q 278 114 240 74 q 344 249 344 189 q 326 294 344 278 q 306 300 317 300 m 256 315 q 119 253 193 315 q 22 117 44 192 q 15 60 15 90 q 40 8 15 29 q 86 1 56 1 q 179 36 117 1 q 122 124 122 61 q 174 247 122 193 q 286 313 226 300 q 256 315 271 315 z "},"":{"ha":608,"x_min":121,"x_max":532,"o":"m 439 392 q 427 379 439 392 q 397 362 415 367 q 367 357 379 357 q 341 367 354 357 q 328 404 328 378 q 356 462 328 431 q 425 493 385 493 q 449 482 436 493 q 463 458 463 471 q 439 392 463 417 m 132 217 q 121 235 121 215 q 127 273 121 254 q 143 292 133 292 q 342 303 249 303 q 515 290 435 303 q 532 276 532 288 q 518 265 532 265 q 354 253 414 263 q 223 231 294 243 q 132 217 151 219 m 186 40 q 156 51 169 40 q 143 75 143 63 q 167 140 143 114 q 236 176 200 176 q 265 166 251 176 q 278 128 278 156 q 249 71 278 101 q 186 40 221 40 z "},"":{"ha":518,"x_min":-31,"x_max":540,"o":"m 382 511 l 414 515 q 425 511 424 515 l 419 499 l 338 389 q 444 315 424 381 q 450 276 450 299 q 435 211 450 254 q 378 124 419 168 q 281 43 338 79 q 522 181 394 61 q 535 185 529 186 q 540 179 540 185 q 535 168 540 174 q 250 24 382 24 q 244 24 247 24 q 89 -25 154 -25 q 61 -22 74 -25 q 15 -109 24 -89 q 1 -129 6 -129 q -8 -124 -3 -129 q 32 -14 -21 -110 q -8 65 -8 8 q 18 171 -8 117 q -17 142 0 153 q -31 144 -31 129 q -6 175 -31 154 q 68 245 18 196 q 143 315 118 294 q 285 386 210 372 q 382 511 372 511 m 326 294 q 303 299 318 299 q 264 285 289 299 q 156 128 233 242 q 200 49 154 67 q 278 114 240 74 q 344 249 344 189 q 326 294 344 278 m 122 139 l 124 147 q 214 281 136 229 l 236 314 q 99 233 165 303 q 14 68 14 144 q 40 8 14 29 l 43 7 q 122 139 72 57 m 179 36 q 129 86 140 53 q 76 3 107 53 q 179 36 124 6 z "},"":{"ha":636,"x_min":15,"x_max":636,"o":"m 310 213 q 303 201 310 213 q 275 163 296 190 q 231 103 254 135 q 208 56 208 71 q 222 42 208 42 q 296 86 247 42 l 340 129 q 453 262 408 203 q 511 333 499 321 q 560 361 533 360 q 636 331 601 361 q 609 294 628 318 q 572 247 590 271 q 528 190 553 222 q 486 131 504 158 q 449 72 468 103 q 422 18 431 40 q 424 -58 401 -43 q 421 -65 431 -65 q 415 -64 418 -65 q 363 22 363 -46 q 407 183 363 90 q 164 -8 256 -8 q 94 57 94 -8 q 109 126 94 81 q 244 311 124 172 q 261 342 261 329 q 244 354 261 354 q 194 329 228 354 q 103 249 161 304 q 30 182 44 194 q 15 186 15 169 q 25 201 15 194 q 113 285 67 238 q 194 358 160 332 q 272 385 228 385 q 340 347 322 385 q 347 311 347 333 q 336 262 347 289 q 310 213 325 235 m 558 468 q 576 459 576 465 q 563 453 576 453 q 414 487 489 453 q 316 546 339 521 q 293 581 293 571 q 299 598 293 590 q 334 613 304 606 q 369 621 364 621 q 372 617 374 621 q 369 606 369 613 q 433 528 369 578 q 558 468 496 478 z "},"":{"ha":636,"x_min":15,"x_max":699,"o":"m 310 213 q 303 201 310 213 q 275 163 296 190 q 231 103 254 135 q 208 56 208 71 q 222 42 208 42 q 296 86 247 42 l 340 129 q 453 262 408 203 q 511 333 499 321 q 560 361 533 360 q 636 331 601 361 q 609 294 628 318 q 572 247 590 271 q 528 190 553 222 q 486 131 504 158 q 449 72 468 103 q 422 18 431 40 q 424 -58 401 -43 q 421 -65 431 -65 q 415 -64 418 -65 q 363 22 363 -46 q 407 183 363 90 q 164 -8 256 -8 q 94 57 94 -8 q 109 126 94 81 q 244 311 124 172 q 261 342 261 329 q 244 354 261 354 q 194 329 228 354 q 103 249 161 304 q 30 182 44 194 q 15 186 15 169 q 25 201 15 194 q 113 285 67 238 q 194 358 160 332 q 272 385 228 385 q 340 347 322 385 q 347 311 347 333 q 336 262 347 289 q 310 213 325 235 m 693 586 q 699 569 699 581 q 667 531 699 558 q 561 478 636 504 q 393 449 478 449 q 360 458 360 449 q 383 467 360 465 q 535 522 456 471 q 615 606 615 574 q 613 617 615 613 q 615 622 611 622 q 644 615 619 622 q 693 586 669 607 z "},"":{"ha":636,"x_min":15,"x_max":681,"o":"m 310 213 q 303 201 310 213 q 275 163 296 190 q 231 103 254 135 q 208 56 208 71 q 222 42 208 42 q 296 86 247 42 l 340 129 q 453 262 408 203 q 511 333 499 321 q 560 361 533 360 q 636 331 601 361 q 609 294 628 318 q 572 247 590 271 q 528 190 553 222 q 486 131 504 158 q 449 72 468 103 q 422 18 431 40 q 424 -58 401 -43 q 421 -65 431 -65 q 415 -64 418 -65 q 363 22 363 -46 q 407 183 363 90 q 164 -8 256 -8 q 94 57 94 -8 q 109 126 94 81 q 244 311 124 172 q 261 342 261 329 q 244 354 261 354 q 194 329 228 354 q 103 249 161 304 q 30 182 44 194 q 15 186 15 169 q 25 201 15 194 q 113 285 67 238 q 194 358 160 332 q 272 385 228 385 q 340 347 322 385 q 347 311 347 333 q 336 262 347 289 q 310 213 325 235 m 653 485 q 669 486 658 485 q 679 482 679 488 q 653 467 679 475 q 595 460 626 460 q 536 478 564 460 q 492 554 492 508 q 394 494 446 517 q 307 472 343 472 q 303 472 306 472 q 296 476 296 472 q 301 489 296 481 q 312 497 307 497 q 318 497 317 497 q 400 524 349 497 q 500 590 451 550 q 503 594 500 592 q 550 642 518 617 q 585 668 582 668 q 578 651 588 668 q 568 603 568 633 q 583 542 568 572 q 653 485 610 485 z "},"":{"ha":636,"x_min":15,"x_max":636,"o":"m 310 213 q 303 201 310 213 q 275 163 296 190 q 231 103 254 135 q 208 56 208 71 q 222 42 208 42 q 296 86 247 42 l 340 129 q 453 262 408 203 q 511 333 499 321 q 560 361 533 360 q 636 331 601 361 q 609 294 628 318 q 572 247 590 271 q 528 190 553 222 q 486 131 504 158 q 449 72 468 103 q 422 18 431 40 q 424 -58 401 -43 q 421 -65 431 -65 q 415 -64 418 -65 q 363 22 363 -46 q 407 183 363 90 q 164 -8 256 -8 q 94 57 94 -8 q 109 126 94 81 q 244 311 124 172 q 261 342 261 329 q 244 354 261 354 q 194 329 228 354 q 103 249 161 304 q 30 182 44 194 q 15 186 15 169 q 25 201 15 194 q 113 285 67 238 q 194 358 160 332 q 272 385 228 385 q 340 347 322 385 q 347 311 347 333 q 336 262 347 289 q 310 213 325 235 m 434 522 q 433 511 434 522 q 415 482 432 500 q 384 460 399 464 q 360 456 369 456 q 340 464 350 456 q 331 492 331 472 q 349 533 331 511 q 392 561 372 561 q 424 552 413 561 q 434 522 436 543 m 593 553 q 599 549 593 553 q 604 524 604 544 q 581 479 604 503 q 529 456 558 456 q 510 464 519 456 q 500 492 500 472 q 521 536 500 511 q 572 561 542 561 q 593 553 582 561 z "},"":{"ha":579,"x_min":-362,"x_max":686,"o":"m 664 683 q 669 667 669 678 q 638 628 669 656 q 532 575 607 601 q 395 547 457 549 q 332 554 333 544 q 354 564 329 563 q 506 619 426 568 q 586 703 586 671 q 584 715 586 710 q 586 719 582 719 q 615 712 590 719 q 664 683 640 704 m 244 311 q 261 342 261 329 q 244 354 261 354 q 194 329 228 354 q 92 240 160 304 q 10 166 24 176 q -3 165 -3 156 q 14 190 -4 175 q 94 268 32 204 q 192 358 157 332 q 271 385 226 385 q 339 347 321 385 q 347 311 347 333 q 336 262 347 289 q 310 213 325 235 q 273 161 296 192 q 228 100 250 131 q 207 56 207 69 q 218 42 207 42 q 421 222 272 42 q 542 381 492 307 q 619 493 586 483 q 650 497 632 497 q 676 482 668 497 q 685 458 685 467 q 673 445 685 450 q 652 441 661 440 q 640 442 643 442 q 572 383 600 442 q 530 268 556 347 q 482 122 504 189 q 408 -33 460 56 q 283 -200 357 -122 q 109 -331 210 -278 q -97 -383 8 -383 q -274 -335 -203 -383 q -362 -185 -346 -286 q -360 -175 -362 -178 q -353 -175 -357 -172 q -349 -183 -349 -178 q -274 -310 -335 -261 q -135 -358 -214 -358 q 78 -278 -31 -358 q 283 -69 188 -199 q 507 311 378 61 q 431 206 465 249 q 164 -8 257 -8 q 93 58 93 -8 q 103 114 93 82 q 244 311 122 169 z "},"":{"ha":518,"x_min":-218,"x_max":546,"o":"m -204 -361 q -218 -324 -218 -361 q -148 -123 -218 -265 q 38 189 -78 19 q -29 142 -29 122 q -14 167 -29 153 q 109 295 54 225 q 308 539 164 365 q 468 728 453 713 q 506 744 485 744 q 546 726 528 744 q 386 532 546 725 q 199 301 226 339 q 333 389 265 364 q 393 401 367 401 q 446 384 419 401 q 472 321 472 367 q 378 115 472 224 q 225 -6 307 32 q 149 -28 179 -28 q 92 -10 118 -28 q 67 54 67 8 q 90 150 67 100 q -196 -337 -196 -254 q -194 -351 -196 -346 q -197 -358 -192 -356 q -204 -361 -201 -361 m 88 61 q 133 1 88 1 q 218 28 161 1 q 329 119 275 56 q 406 233 383 182 q 428 316 428 285 q 411 365 428 347 q 376 374 400 374 q 306 350 353 374 q 167 239 231 315 q 106 140 124 189 q 88 61 88 92 z "},"":{"ha":579,"x_min":-362,"x_max":686,"o":"m 553 561 q 546 567 553 561 q 542 592 539 572 q 565 635 544 613 q 615 658 586 658 q 636 650 625 658 q 645 619 647 642 q 626 578 643 597 q 588 555 608 560 q 553 561 567 550 m 383 561 q 376 567 383 561 q 372 592 369 572 q 396 635 375 613 q 446 658 417 658 q 467 650 456 658 q 476 619 478 642 q 457 578 474 597 q 419 555 440 560 q 383 561 397 550 m 244 311 q 261 342 261 329 q 244 354 261 354 q 194 329 228 354 q 92 240 160 304 q 10 166 24 176 q -3 165 -3 156 q 14 190 -4 175 q 94 268 32 204 q 192 358 157 332 q 271 385 226 385 q 339 347 321 385 q 347 311 347 333 q 336 262 347 289 q 310 213 325 235 q 273 161 296 192 q 228 100 250 131 q 207 56 207 69 q 218 42 207 42 q 421 222 272 42 q 542 381 492 307 q 619 493 586 483 q 650 497 632 497 q 676 482 668 497 q 685 458 685 467 q 673 445 685 450 q 652 441 661 440 q 640 442 643 442 q 572 383 600 442 q 530 268 556 347 q 482 122 504 189 q 408 -33 460 56 q 283 -200 357 -122 q 109 -331 210 -278 q -97 -383 8 -383 q -274 -335 -203 -383 q -362 -185 -346 -286 q -360 -175 -362 -178 q -353 -175 -357 -172 q -349 -183 -349 -178 q -274 -310 -335 -261 q -135 -358 -214 -358 q 78 -278 -31 -358 q 283 -69 188 -199 q 507 311 378 61 q 431 206 465 249 q 164 -8 257 -8 q 93 58 93 -8 q 103 114 93 82 q 244 311 122 169 z "},"":{"ha":557,"x_min":-26,"x_max":750,"o":"m 382 339 q 356 357 382 357 q 240 290 308 357 q 180 221 224 274 q 94 100 136 168 l 60 24 l 64 38 q 58 21 61 32 l 58 21 q 18 -7 51 4 q 6 -10 11 -10 q 3 11 -8 -10 q 42 110 8 25 q 96 247 75 196 q -6 150 42 188 q -25 147 -19 139 q -26 153 -26 149 q -14 168 -26 157 q 119 304 71 242 q 278 576 168 418 q 108 536 140 549 q 113 549 106 535 q 138 575 119 563 q 307 618 163 588 q 449 789 381 721 q 597 881 518 857 q 665 892 633 892 q 723 874 696 892 q 750 810 750 857 q 708 683 750 747 q 561 541 667 619 q 365 424 456 463 q 346 426 349 417 q 360 442 343 435 q 541 556 440 478 q 676 688 642 633 q 710 777 710 743 q 681 811 710 811 q 585 763 647 811 q 463 650 524 715 q 571 667 556 667 q 579 653 579 667 q 566 628 579 631 q 502 618 553 626 q 421 604 451 610 q 149 204 268 425 q 219 296 188 260 q 371 383 297 383 q 453 322 440 383 q 454 299 454 314 q 444 253 454 283 q 385 144 433 224 q 338 47 338 64 q 349 31 338 31 q 394 50 364 31 q 597 214 472 99 q 613 219 614 231 q 604 199 613 208 q 392 22 501 93 q 299 -11 340 -11 q 278 -8 288 -11 q 224 52 224 3 q 263 163 224 101 q 314 228 269 172 q 382 339 382 311 z "},"":{"ha":826,"x_min":10,"x_max":1161,"o":"m 1044 724 q 978 783 1044 767 q 815 800 911 800 q 563 772 718 800 q 190 644 297 724 q 144 579 144 611 q 189 517 144 547 q 188 510 199 511 q 171 515 178 510 q 121 582 136 539 q 114 625 114 601 q 199 757 114 710 q 465 856 306 819 q 767 893 625 893 q 956 858 861 893 q 1031 804 1006 839 q 1056 731 1056 769 q 1048 699 1056 699 q 1042 708 1040 700 q 1044 724 1044 717 m 293 -194 q 375 -3 293 -158 q 183 -50 281 -11 q 118 -76 143 -65 q 61 -92 93 -86 q 21 -86 29 -99 q 10 -62 10 -78 q 16 -27 10 -46 q 42 14 22 -8 q 208 97 83 65 q 340 115 276 115 q 440 113 404 115 q 717 553 567 326 q 885 781 868 781 q 892 781 886 781 q 900 781 897 782 q 906 779 903 781 q 910 774 910 778 q 894 744 910 765 q 474 110 689 474 q 633 77 564 100 q 743 9 701 54 q 785 -93 785 -36 q 774 -129 785 -131 q 769 -119 767 -129 q 771 -106 771 -110 q 722 -47 771 -74 q 467 0 635 0 q 410 -1 439 0 q 313 -194 339 -128 q 299 -210 306 -210 q 293 -194 293 -210 m 1131 1051 q 1042 1014 1081 1014 q 984 1027 1004 1014 q 939 1058 964 1040 q 894 1078 911 1078 q 819 1035 863 1078 q 805 1026 808 1022 q 801 1034 801 1031 q 807 1043 801 1038 q 938 1121 889 1121 q 1019 1106 988 1121 q 1065 1085 1050 1092 q 1090 1078 1079 1078 q 1111 1082 1100 1078 q 1146 1114 1138 1096 q 1161 1094 1161 1111 q 1131 1051 1161 1076 z "},"":{"ha":378,"x_min":-33,"x_max":422,"o":"m 263 350 q 167 202 206 292 q 129 76 129 113 q 158 40 129 40 q 252 82 186 40 q 403 200 318 124 q 421 196 421 217 q 418 190 421 193 q 306 94 351 132 q 197 23 260 57 q 93 -11 133 -11 q 19 11 43 -11 q -6 60 -6 33 q 13 139 -6 110 q 74 219 31 168 q 26 178 58 207 q -19 139 -7 149 q -32 144 -32 129 q -10 172 -32 154 q 87 264 13 190 q 188 351 161 338 q 233 365 215 365 q 258 360 250 365 q 263 350 267 356 m 338 503 q 249 465 288 465 q 191 478 211 465 q 146 510 171 492 q 101 529 118 529 q 26 486 69 529 q 12 478 15 474 q 8 485 8 482 q 14 494 8 489 q 145 572 96 572 q 226 558 194 572 q 272 536 257 543 q 297 529 286 529 q 318 533 307 529 q 353 565 344 547 q 368 545 368 563 q 338 503 368 528 z "},"":{"ha":378,"x_min":-33,"x_max":422,"o":"m 263 350 q 167 202 206 292 q 129 76 129 113 q 158 40 129 40 q 252 82 186 40 q 403 200 318 124 q 421 196 421 217 q 418 190 421 193 q 306 94 351 132 q 197 23 260 57 q 93 -11 133 -11 q 19 11 43 -11 q -6 60 -6 33 q 13 139 -6 110 q 74 219 31 168 q 26 178 58 207 q -19 139 -7 149 q -32 144 -32 129 q -10 172 -32 154 q 87 264 13 190 q 188 351 161 338 q 233 365 215 365 q 258 360 250 365 q 263 350 267 356 z "},"":{"ha":1764,"x_min":10,"x_max":1874,"o":"m 293 -194 q 375 -3 293 -158 q 183 -50 281 -11 q 118 -76 143 -65 q 61 -92 93 -86 q 21 -86 29 -99 q 10 -62 10 -78 q 16 -27 10 -46 q 42 14 22 -8 q 208 97 83 65 q 340 115 276 115 q 440 113 404 115 q 717 553 567 326 q 885 781 868 781 q 892 781 886 781 q 900 781 897 782 q 906 779 903 781 q 910 774 910 778 q 894 744 910 765 q 474 110 689 474 q 736 17 660 90 q 1035 254 858 153 q 1201 619 1058 436 q 1518 892 1343 803 q 1672 932 1597 932 q 1803 892 1747 932 q 1874 744 1874 839 q 1799 496 1874 650 q 1592 172 1724 342 q 1289 -154 1460 1 q 749 -446 969 -446 q 597 -356 638 -446 q 585 -293 585 -328 q 693 -33 585 -183 q 465 0 597 0 q 410 -1 439 0 q 313 -194 339 -128 q 294 -206 301 -218 q 293 -194 293 -201 m 1139 71 q 1058 106 1088 71 q 781 -122 869 -22 q 768 -137 781 -124 q 681 -311 681 -235 q 742 -386 681 -365 q 789 -393 767 -393 q 928 -364 860 -393 q 1315 -78 1106 -290 q 1655 356 1525 133 q 1785 708 1785 579 q 1717 850 1785 815 q 1647 864 1690 864 q 1540 844 1604 864 q 1235 629 1354 781 q 1090 283 1115 478 q 1356 353 1232 353 q 1488 289 1472 353 q 1490 271 1492 274 q 1483 271 1489 268 q 1444 276 1471 276 q 1094 129 1324 276 q 1143 86 1111 89 q 1153 78 1153 85 q 1139 71 1153 71 m 1044 724 q 978 783 1044 767 q 815 800 911 800 q 563 772 718 800 q 190 644 297 724 q 144 579 144 611 q 189 517 144 547 q 185 510 200 510 q 171 515 176 510 q 121 582 136 539 q 114 625 114 601 q 199 757 114 710 q 465 856 306 819 q 767 893 625 893 q 956 858 861 893 q 1031 804 1006 839 q 1056 731 1056 769 q 1048 699 1056 699 q 1042 708 1040 700 q 1044 724 1044 717 z "},"":{"ha":597,"x_min":-367,"x_max":649,"o":"m 263 350 q 167 202 206 292 q 129 76 129 113 q 158 40 129 40 q 242 75 183 40 q 379 179 300 110 q 382 183 379 181 q 490 328 479 261 q 474 356 490 350 q 472 365 467 360 q 486 369 478 369 q 538 321 525 369 q 540 292 540 308 q 458 49 540 213 q 302 -194 376 -115 q 117 -328 228 -272 q -100 -383 6 -383 q -278 -335 -206 -383 q -365 -181 -365 -275 q -359 -174 -365 -174 q -351 -183 -353 -175 q -278 -310 -337 -261 q -131 -358 -218 -358 q 82 -260 -44 -358 q 307 -25 208 -162 q 465 238 410 113 q 396 169 439 206 q 90 -11 188 -11 q 19 11 43 -11 q -6 60 -6 33 q 13 139 -6 110 q 74 219 31 168 q 26 178 58 207 q -18 140 -7 149 q -32 142 -29 131 q -11 172 -35 153 q 87 264 13 190 q 188 351 161 338 q 233 365 215 365 q 258 360 250 365 q 263 350 267 356 m 539 426 q 533 431 539 426 q 529 460 526 436 q 554 510 532 483 q 614 536 576 536 q 636 526 625 536 q 647 506 647 517 q 646 481 647 494 q 625 444 644 467 q 567 415 599 415 q 539 426 551 415 m 386 506 q 361 443 386 471 q 301 415 336 415 q 279 425 290 415 q 268 457 268 435 q 292 508 268 479 q 353 536 315 536 q 375 526 364 536 q 386 506 386 517 z "},"":{"ha":938,"x_min":-243,"x_max":1169,"o":"m 1047 744 q 1047 697 1047 744 q 972 496 1047 650 q 765 172 897 342 q 463 -154 633 1 q -78 -446 143 -446 q -231 -356 -189 -446 q -242 -297 -242 -328 q -174 -92 -242 -199 q 208 254 -43 110 q 374 619 232 436 q 692 892 517 803 q 846 932 771 932 q 976 892 921 932 q 1047 744 1047 839 m 313 71 q 232 106 261 71 q -140 -272 -94 -117 q -146 -314 -146 -294 q -83 -386 -146 -365 q -37 -393 -60 -393 q 101 -364 33 -393 q 489 -78 279 -290 q 828 356 699 133 q 958 708 958 579 q 890 850 958 815 q 821 864 864 864 q 714 844 778 864 q 408 629 528 781 q 264 283 289 478 q 529 353 406 353 q 661 289 646 353 q 664 271 665 274 q 656 271 663 268 q 618 276 644 276 q 268 129 497 276 q 317 86 285 89 q 326 78 326 85 q 313 71 326 71 m 1140 1024 q 1156 1026 1144 1024 q 1168 1019 1168 1028 q 1138 1002 1168 1010 q 1072 994 1108 994 q 1004 1017 1036 994 q 951 1104 953 1051 q 839 1035 897 1060 q 742 1010 781 1010 q 725 1015 725 1010 q 731 1028 725 1019 q 750 1038 738 1038 q 847 1071 786 1038 q 965 1150 908 1104 q 1017 1205 979 1174 q 1058 1236 1056 1236 q 1053 1215 1064 1236 q 1042 1169 1042 1193 q 1082 1053 1042 1097 q 1140 1024 1110 1024 z "},"":{"ha":219,"x_min":-744,"x_max":386,"o":"m 163 292 q 81 49 163 213 q -76 -194 -1 -115 q -261 -328 -150 -272 q -478 -383 -372 -383 q -656 -335 -583 -383 q -743 -181 -743 -275 q -737 -174 -743 -174 q -729 -183 -731 -175 q -656 -310 -715 -261 q -509 -358 -596 -358 q -296 -260 -422 -358 q -71 -25 -169 -162 q 88 238 32 113 q 14 167 64 207 q 7 167 11 164 q 4 183 -3 174 q 113 328 101 261 q 96 356 113 350 q 94 365 89 360 q 108 369 100 369 q 160 321 147 369 q 163 292 163 308 m 357 474 q 373 476 361 474 q 385 469 385 478 q 355 452 385 460 q 289 444 325 444 q 221 467 253 444 q 168 554 169 501 q 56 485 114 510 q -42 460 -3 460 q -58 465 -58 460 q -53 479 -58 469 q -41 488 -47 489 q -33 488 -35 488 q 64 521 3 488 q 182 600 125 554 q 234 655 196 624 q 275 686 272 686 q 269 665 281 686 q 258 619 258 643 q 299 503 258 547 q 357 474 326 474 z "},"":{"ha":463,"x_min":-64,"x_max":739,"o":"m 74 126 q 36 -28 36 35 q 54 -111 36 -90 q 55 -119 58 -117 q 47 -119 51 -122 q -3 -37 3 -82 q -6 -4 -6 -22 q 42 194 -6 76 q -31 142 -28 125 q -11 170 -29 154 q 71 264 7 186 q 435 779 210 572 q 646 888 551 888 q 736 824 724 888 q 739 803 739 814 q 503 525 739 685 q 353 440 421 469 q 333 442 336 433 q 347 458 331 451 q 493 546 411 488 q 640 673 575 604 q 706 779 706 742 q 679 803 706 803 q 603 772 653 803 q 299 475 464 688 q 129 233 196 343 q 329 404 226 363 q 394 418 368 418 q 440 410 421 418 q 478 354 478 393 q 396 224 478 285 q 288 176 349 190 q 197 161 228 161 q 146 169 167 161 q 262 71 190 113 q 378 29 333 29 q 424 43 407 29 q 440 66 440 57 q 444 75 440 75 q 447 72 447 75 q 374 6 447 24 q 297 -1 343 -1 q 192 28 250 -1 q 74 126 103 69 m 381 313 q 335 361 381 361 q 217 303 282 361 q 122 207 153 244 q 133 186 125 200 q 172 176 150 176 q 242 190 193 176 q 335 237 290 203 q 381 313 381 271 m 97 -176 q 114 -176 97 -176 q 144 -196 132 -176 q 156 -237 156 -215 q 136 -304 156 -258 q 61 -399 117 -350 q -54 -451 6 -447 q -64 -446 -62 -451 q -58 -442 -61 -443 q 53 -384 3 -436 q 111 -271 103 -332 l 104 -276 q 33 -311 69 -311 q 6 -301 17 -311 q -4 -280 -4 -292 q 0 -250 -4 -268 q 31 -206 4 -232 q 97 -176 61 -176 z "},"":{"ha":686,"x_min":-42,"x_max":804,"o":"m 789 607 q 802 601 800 608 q 804 590 804 594 q 800 575 804 585 q 789 563 796 565 q 510 432 653 515 q 264 269 368 349 q 425 299 353 299 q 551 268 497 299 q 624 164 624 231 q 447 -32 624 50 q 421 -40 421 -46 q 459 1 421 -33 q 514 75 497 35 q 531 136 531 115 q 492 232 531 197 q 389 272 449 272 q 281 259 329 272 q 224 246 233 246 q 214 249 214 246 q 224 261 214 253 q 506 468 306 338 q 789 607 707 599 m 344 675 q 413 690 364 690 q 463 665 463 690 q 451 642 463 656 q 211 297 319 469 q -22 -112 36 24 q -35 -129 -29 -129 q -40 -115 -40 -129 q -32 -75 -40 -100 q 149 351 22 82 q 344 675 275 619 z "},"":{"ha":1022,"x_min":3,"x_max":1342,"o":"m 1342 790 q 1153 556 1342 667 q 988 479 1081 513 q 579 400 769 400 q 465 407 506 400 q 433 359 457 396 q 401 309 410 322 q 373 267 392 296 q 343 225 354 239 q 279 153 310 183 q 150 106 231 106 q 113 112 133 106 q 88 124 92 118 q 86 132 85 131 q 92 131 88 133 q 113 127 97 128 q 153 131 129 126 q 275 200 210 138 q 435 411 313 238 q 297 500 318 435 q 299 510 294 510 q 306 504 303 511 q 408 479 322 479 q 481 482 440 479 l 485 482 q 658 691 569 600 q 842 836 746 782 q 1150 924 999 924 q 1264 901 1222 924 q 1342 790 1342 861 m 1017 -67 q 1004 -104 1017 -104 q 997 -94 993 -104 q 1000 -79 1000 -85 q 925 -17 1000 -43 q 604 26 806 26 q 231 -22 390 26 q 144 -50 178 -39 q 56 -68 86 -68 q 4 -32 4 -68 q 125 86 4 36 q 474 139 257 139 q 944 50 806 139 q 1017 -67 1017 3 m 1226 783 q 1242 838 1242 810 q 1097 900 1242 900 q 1002 882 1072 900 q 864 829 932 864 q 519 486 699 742 q 911 586 699 508 q 1226 783 1164 678 m 858 228 q 830 238 843 228 q 817 261 817 249 q 840 328 817 303 q 908 364 872 364 q 938 353 924 364 q 951 316 951 342 q 923 259 951 290 q 858 228 894 228 z "},"":{"ha":731,"x_min":-11,"x_max":678,"o":"m 104 57 q 142 19 104 19 q 212 38 164 19 q 336 117 260 56 q 439 205 413 178 q 471 231 465 232 q 475 223 476 231 q 468 210 474 215 q 272 36 350 89 q 128 -17 194 -17 q 49 10 71 -17 q 26 71 26 36 q 71 221 26 133 q -10 165 -10 135 q -1 178 -10 171 q 139 331 64 231 q 354 646 276 510 q 368 685 368 672 q 336 696 368 714 q 297 682 300 678 q 301 693 294 686 q 393 740 335 718 q 489 764 451 763 q 547 728 547 764 q 527 672 547 707 q 412 534 507 638 q 296 404 317 431 q 114 106 153 217 q 104 57 104 76 m 583 167 q 555 177 568 167 q 542 200 542 188 q 565 267 542 242 q 633 303 597 303 q 663 292 649 303 q 676 255 676 281 q 648 198 676 229 q 583 167 619 167 z "},"":{"ha":1022,"x_min":3,"x_max":1342,"o":"m 561 349 q 569 333 569 349 q 554 310 569 313 q 382 281 513 304 q 286 160 322 196 q 150 106 231 106 q 113 112 133 106 q 88 124 92 118 q 86 132 85 131 q 92 131 88 133 q 113 127 97 128 q 153 131 129 126 q 275 200 210 138 q 336 272 310 238 q 99 218 146 236 q 103 231 96 217 q 128 257 110 244 q 368 315 163 274 l 435 411 q 297 500 318 435 q 299 510 294 510 q 306 504 303 511 q 408 479 322 479 q 481 482 440 479 l 485 482 q 658 691 569 600 q 842 836 746 782 q 1150 924 999 924 q 1264 901 1222 924 q 1342 790 1342 861 q 1153 556 1342 667 q 988 479 1081 513 q 579 400 769 400 q 465 407 506 400 l 411 324 q 551 349 540 349 q 561 349 561 349 m 1226 783 q 1242 838 1242 810 q 1097 900 1242 900 q 1002 882 1072 900 q 864 829 932 864 q 519 486 699 742 q 911 586 699 508 q 1226 783 1164 678 m 1017 -67 q 1004 -104 1017 -104 q 997 -94 993 -104 q 1000 -79 1000 -85 q 925 -17 1000 -43 q 604 26 806 26 q 231 -22 390 26 q 144 -50 178 -39 q 56 -68 86 -68 q 4 -32 4 -68 q 125 86 4 36 q 474 139 257 139 q 944 50 806 139 q 1017 -67 1017 3 z "},"":{"ha":408,"x_min":-69,"x_max":549,"o":"m 218 294 q 390 346 381 346 q 402 338 399 346 q 402 319 406 329 q 388 307 399 310 q 189 249 285 279 q 103 56 103 111 q 140 19 103 19 q 212 38 164 19 q 336 117 260 56 q 439 205 413 178 q 471 231 465 232 q 475 223 476 231 q 468 210 474 215 q 272 36 350 89 q 128 -17 194 -17 q 108 -15 118 -17 q 25 72 25 -4 q 65 211 25 126 l 60 208 q -10 161 -3 146 q -1 178 -12 168 l 19 194 q -58 167 -47 172 q -69 163 -69 161 q -37 203 -69 179 q 68 246 -14 217 q 139 331 100 279 q 354 646 276 510 q 368 685 368 672 q 336 696 368 714 q 297 682 300 678 q 301 693 294 686 q 393 740 335 718 q 489 764 451 763 q 547 728 547 764 q 527 672 547 707 q 412 534 507 638 q 296 404 317 431 q 218 294 247 339 z "},"":{"ha":813,"x_min":-107,"x_max":1132,"o":"m -87 -194 q -100 -210 -94 -210 q -106 -196 -106 -210 q 139 274 -106 -115 q 467 763 383 664 q 549 911 503 876 q 578 918 558 918 q 644 900 599 918 q 689 857 689 882 q 678 838 689 846 q 581 639 615 785 q 546 342 546 493 q 588 60 546 161 q 848 549 644 207 q 1075 892 1051 892 q 1088 893 1076 892 q 1131 886 1131 899 q 1121 864 1131 881 q 826 433 979 679 q 601 29 674 188 q 667 -35 629 -17 q 699 -43 683 -43 q 722 -38 714 -43 q 733 -35 731 -33 q 736 -42 736 -37 q 733 -49 736 -46 q 675 -72 701 -72 q 533 8 592 -72 q 446 207 475 88 q 417 433 417 326 q 443 672 417 553 q 133 208 294 471 q -87 -194 -28 -56 m 1074 1074 q 1042 1031 1074 1057 q 936 978 1011 1004 q 768 947 853 947 q 735 957 735 947 q 757 965 735 964 q 910 1022 829 971 q 990 1106 990 1074 q 988 1116 990 1111 q 990 1121 985 1121 q 1022 1112 994 1121 q 1071 1082 1049 1103 q 1074 1074 1074 1078 z "},"":{"ha":547,"x_min":-79,"x_max":593,"o":"m 372 311 q 392 346 392 333 q 366 358 392 358 q 285 310 340 358 q 160 161 233 265 q 55 20 88 57 q -3 -17 22 -17 q -8 -17 -6 -17 q -79 13 -44 -17 q -39 67 -71 25 q 85 233 32 153 q -17 140 25 174 q -33 139 -31 129 q -26 156 -35 149 q 1 181 -18 164 q 27 204 21 199 q 51 226 33 210 q 76 251 68 242 q 133 329 115 297 q 140 362 140 346 q 133 383 139 378 q 128 394 126 388 q 151 403 129 411 q 194 326 194 383 q 169 203 194 268 q 251 304 224 274 q 393 385 324 385 q 474 326 461 385 q 475 301 475 318 q 462 254 475 283 q 400 158 449 225 q 344 74 351 92 q 339 49 336 57 q 351 39 342 40 q 408 61 368 36 q 556 185 465 101 q 569 183 569 199 q 564 168 571 175 q 364 13 429 43 q 244 0 288 -26 q 218 47 218 17 q 229 107 218 76 q 372 311 254 178 m 593 600 q 562 557 593 583 q 456 503 531 531 q 288 474 372 474 q 254 483 254 474 q 276 492 254 488 q 429 549 349 497 q 510 632 510 600 q 507 642 510 638 q 509 647 504 647 q 541 638 514 647 q 590 608 568 629 q 593 600 593 604 z "},"":{"ha":1894,"x_min":13,"x_max":1900,"o":"m 1797 736 q 1682 801 1797 801 q 1292 699 1539 801 q 908 468 1046 596 l 876 438 q 739 229 831 346 q 732 175 732 201 q 833 31 732 81 q 1008 -10 914 -10 q 1589 147 1297 -10 q 1881 389 1786 253 q 1900 403 1900 415 q 1896 386 1900 397 q 1642 138 1858 281 q 1204 -51 1426 -4 q 1019 -71 1113 -71 q 846 -33 926 -71 q 692 172 708 33 q 450 -17 578 51 q 274 -62 364 -62 q 76 25 150 -62 q 14 199 14 99 q 115 501 14 338 q 299 715 190 621 q 480 831 408 808 q 603 854 551 854 q 693 819 656 854 q 735 708 735 782 q 719 619 735 665 q 710 611 714 603 q 710 635 706 619 q 715 669 715 651 q 643 731 715 731 q 384 631 539 731 q 151 424 229 531 q 44 158 44 276 q 189 6 44 29 q 232 1 210 1 q 417 40 308 1 q 689 211 576 96 q 881 579 692 390 q 892 679 892 639 q 890 763 892 719 q 869 844 888 807 q 797 896 839 908 q 790 897 790 893 q 825 914 792 914 q 892 886 858 914 q 946 729 946 843 q 940 635 946 686 q 1201 814 1058 738 q 1445 913 1344 890 q 1625 935 1546 935 q 1762 898 1704 935 q 1822 800 1819 861 q 1796 681 1825 739 q 1788 672 1792 672 q 1788 692 1778 669 q 1797 736 1797 715 m 1456 425 q 1464 408 1464 414 q 1461 397 1464 401 q 1433 401 1454 388 q 1281 435 1385 435 q 1026 400 1142 435 q 954 385 974 385 q 908 414 918 385 q 908 418 908 417 q 935 454 908 432 q 1020 488 961 476 q 1137 500 1079 500 q 1264 492 1194 500 q 1456 425 1410 474 z "},"":{"ha":760,"x_min":-31,"x_max":826,"o":"m 685 300 q 635 340 685 340 q 585 328 611 340 q 472 236 526 301 q 404 86 404 156 q 419 37 404 60 q 471 14 433 14 q 638 84 536 14 q 808 224 739 154 q 826 224 826 240 q 817 206 826 214 q 594 28 658 60 q 424 -24 496 -24 q 289 49 318 -24 q 117 -22 214 -7 q 88 -25 101 -25 q 19 -2 46 -25 q -8 65 -8 21 q 18 171 -8 117 q -17 142 0 153 q -31 144 -31 129 q -6 175 -31 154 q 68 245 18 196 q 147 319 118 294 q 317 390 232 390 q 436 333 401 390 q 607 383 522 383 q 711 350 686 383 q 724 315 724 333 q 711 274 724 296 q 617 198 685 231 q 489 165 550 165 q 461 169 464 165 q 464 176 458 174 l 481 178 q 610 217 535 178 q 685 300 685 257 m 344 254 q 306 300 342 300 q 221 254 275 300 q 156 121 156 199 q 200 49 156 65 q 283 119 233 69 q 344 254 292 192 m 256 315 q 119 253 193 315 q 22 117 44 192 q 15 60 15 90 q 40 8 15 29 q 86 1 56 1 q 179 36 117 1 q 122 124 122 61 q 174 247 122 193 q 286 313 226 300 q 256 315 271 315 z "},"":{"ha":815,"x_min":-22,"x_max":1057,"o":"m -21 -51 q 179 307 -21 15 q 172 353 172 332 q 207 401 172 374 q 260 429 242 429 q 264 429 263 429 q 410 619 346 542 q 485 697 474 697 q 502 688 496 697 q 508 669 508 679 q 281 372 397 532 l 283 363 l 333 367 q 563 415 439 374 q 765 508 686 456 q 929 713 929 619 q 875 781 929 753 q 706 808 821 808 q 392 752 590 808 q 117 629 194 696 q 101 599 94 610 q 103 586 107 588 q 90 590 99 585 q 53 632 61 607 q 46 669 46 657 q 53 688 46 682 q 258 813 99 754 q 551 891 417 872 q 751 910 686 910 q 858 901 815 910 q 933 864 900 893 q 985 743 985 821 q 928 601 985 667 q 781 484 871 536 q 564 390 692 432 q 290 342 415 342 q 469 117 335 231 q 690 4 603 4 q 751 21 725 4 q 782 63 778 38 q 789 67 782 69 q 792 60 792 63 q 633 -33 781 -33 q 457 11 549 -33 q 301 122 365 56 q 199 260 236 189 q 17 -42 51 46 q -6 -64 8 -64 q -21 -51 -21 -64 m 1057 1118 q 1026 1075 1057 1101 q 919 1022 994 1049 q 751 992 836 992 q 718 1001 718 992 q 740 1010 718 1008 q 893 1067 813 1015 q 974 1150 974 1118 q 971 1160 974 1156 q 973 1165 968 1165 q 1005 1156 978 1165 q 1054 1126 1032 1147 q 1057 1118 1057 1122 z "},"":{"ha":815,"x_min":-22,"x_max":986,"o":"m -21 -51 q 179 307 -21 15 q 172 353 172 332 q 207 401 172 374 q 260 429 242 429 q 264 429 263 429 q 410 619 346 542 q 485 697 474 697 q 502 688 496 697 q 508 669 508 679 q 281 372 397 532 l 283 363 l 333 367 q 563 415 439 374 q 765 508 686 456 q 929 713 929 619 q 875 781 929 753 q 706 808 821 808 q 392 752 590 808 q 117 629 194 696 q 101 599 94 610 q 103 586 107 588 q 90 590 99 585 q 53 632 61 607 q 46 669 46 657 q 53 688 46 682 q 258 813 99 754 q 551 891 417 872 q 751 910 686 910 q 858 901 815 910 q 933 864 900 893 q 985 743 985 821 q 928 601 985 667 q 781 484 871 536 q 564 390 692 432 q 290 342 415 342 q 469 117 335 231 q 690 4 603 4 q 751 21 725 4 q 782 63 778 38 q 789 67 782 69 q 792 60 792 63 q 633 -33 781 -33 q 457 11 549 -33 q 301 122 365 56 q 199 260 236 189 q 17 -42 51 46 q -6 -64 10 -61 q -21 -51 -21 -67 m 192 -174 q 210 -174 192 -174 q 240 -193 228 -174 q 251 -234 251 -212 q 232 -301 251 -256 q 157 -396 213 -347 q 42 -449 101 -444 q 32 -443 33 -449 q 38 -439 35 -440 q 149 -381 99 -433 q 207 -268 199 -329 l 200 -274 q 129 -308 165 -308 q 102 -299 113 -308 q 92 -277 92 -289 q 96 -247 92 -265 q 126 -203 100 -229 q 192 -174 157 -174 z "},"":{"ha":501,"x_min":-28,"x_max":571,"o":"m 382 278 q 283 148 321 207 q 244 65 244 89 q 273 40 244 40 q 390 97 301 40 q 553 225 478 154 q 565 231 560 232 q 571 224 571 229 q 565 211 571 218 q 292 6 386 47 q 232 -11 250 -11 q 141 11 165 -11 q 117 60 117 33 q 138 140 117 113 q 246 303 206 236 q 241 330 258 322 q 198 338 224 338 q 171 339 172 338 q -14 142 78 214 q -26 142 -25 132 q -11 168 -26 153 q 149 344 86 251 q 136 367 136 353 q 138 403 136 382 q 160 458 140 424 q 229 517 193 517 q 260 483 260 517 q 217 383 260 438 q 178 347 196 358 q 328 364 229 364 q 397 328 376 364 q 400 311 400 322 q 382 278 400 300 z "},"":{"ha":815,"x_min":-22,"x_max":1075,"o":"m -21 -51 q 179 307 -21 15 q 172 353 172 332 q 207 401 172 374 q 260 429 242 429 q 264 429 263 429 q 410 619 346 542 q 485 697 474 697 q 502 688 496 697 q 508 669 508 679 q 281 372 397 532 l 283 363 l 333 367 q 563 415 439 374 q 765 508 686 456 q 929 713 929 619 q 875 781 929 753 q 706 808 821 808 q 392 752 590 808 q 117 629 194 696 q 101 599 94 610 q 103 586 107 588 q 90 590 99 585 q 53 632 61 607 q 46 669 46 657 q 53 688 46 682 q 258 813 99 754 q 551 891 417 872 q 751 910 686 910 q 858 901 815 910 q 933 864 900 893 q 985 743 985 821 q 928 601 985 667 q 781 484 871 536 q 564 390 692 432 q 290 342 415 342 q 469 117 335 231 q 690 4 603 4 q 751 21 725 4 q 782 63 778 38 q 789 67 782 69 q 792 60 792 63 q 633 -33 781 -33 q 457 11 549 -33 q 301 122 365 56 q 199 260 236 189 q 17 -42 51 46 q -6 -64 8 -64 q -21 -51 -21 -64 m 658 1181 q 642 1178 654 1181 q 631 1185 631 1176 q 661 1202 631 1194 q 727 1210 692 1210 q 794 1188 763 1210 q 847 1100 846 1153 q 960 1169 901 1144 q 1057 1194 1018 1194 q 1074 1190 1074 1194 q 1068 1176 1074 1185 q 1049 1167 1061 1167 q 951 1133 1013 1167 q 833 1054 890 1100 q 781 999 819 1031 q 740 968 743 968 q 746 990 735 968 q 757 1035 757 1011 q 717 1150 757 1107 q 658 1181 689 1181 z "},"":{"ha":501,"x_min":-28,"x_max":700,"o":"m 382 278 q 283 148 321 207 q 244 65 244 89 q 273 40 244 40 q 390 97 301 40 q 553 225 478 154 q 565 231 560 232 q 571 224 571 229 q 565 211 571 218 q 292 6 386 47 q 232 -11 250 -11 q 141 11 165 -11 q 117 60 117 33 q 138 140 117 113 q 246 303 206 236 q 241 330 258 322 q 198 338 224 338 q 171 339 172 338 q -14 142 78 214 q -26 142 -25 132 q -11 168 -26 153 q 149 344 86 251 q 136 367 136 353 q 138 403 136 382 q 160 458 140 424 q 229 517 193 517 q 260 483 260 517 q 217 383 260 438 q 178 347 196 358 q 328 364 229 364 q 397 328 376 364 q 400 311 400 322 q 382 278 400 300 m 283 650 q 267 648 279 650 q 256 655 256 646 q 286 672 256 664 q 352 679 317 679 q 419 657 388 679 q 472 569 471 622 q 585 639 526 614 q 682 664 643 664 q 699 659 699 664 q 693 644 699 654 q 681 635 688 635 q 674 636 675 636 q 576 603 638 636 q 458 524 515 569 q 406 469 444 500 q 365 438 368 438 q 371 459 360 438 q 382 504 382 481 q 342 619 382 576 q 283 650 314 650 z "},"":{"ha":819,"x_min":-11,"x_max":1253,"o":"m 1102 1036 q 1130 1044 1102 1036 q 1197 1076 1157 1051 q 1244 1100 1236 1100 q 1251 1094 1251 1100 q 1167 1035 1251 1075 q 960 972 1029 972 q 856 1057 860 972 q 881 1078 856 1065 q 935 1096 918 1096 q 956 1090 953 1096 q 1029 1021 958 1021 q 1102 1036 1047 1021 m 1064 800 q 1025 818 1053 818 q 973 811 997 818 q 915 792 949 804 q 828 750 861 769 q 594 594 703 683 q 481 460 486 504 q 518 403 478 425 q 599 363 553 382 q 665 335 644 344 q 776 188 776 279 q 753 110 776 147 q 640 13 715 51 q 478 -40 564 -25 q 331 -56 389 -56 q 119 -10 225 -56 q -11 131 14 35 q 131 65 40 85 q 303 46 221 46 q 484 65 425 47 q 587 108 543 83 q 667 165 631 132 q 704 237 704 197 q 651 308 704 276 q 567 343 647 311 q 445 414 488 375 q 403 503 403 453 q 519 695 403 597 q 774 847 636 793 q 1010 901 913 901 q 1115 877 1078 901 q 1153 810 1153 853 q 1153 797 1153 804 q 1001 618 1149 754 q 906 506 947 568 q 865 397 865 444 q 865 389 865 393 q 822 478 822 422 q 865 600 822 528 q 1064 800 928 706 z "},"":{"ha":392,"x_min":-82,"x_max":643,"o":"m 492 599 q 520 606 492 599 q 587 638 547 614 q 634 663 626 663 q 642 656 642 663 q 635 644 642 650 q 406 542 547 578 q 349 533 375 533 q 246 618 250 533 q 272 640 246 628 q 326 658 308 658 q 346 653 343 658 q 419 583 349 583 q 492 599 438 583 m 352 329 q 341 294 352 329 q 298 171 329 260 q 210 28 267 82 q 60 -26 154 -26 q -6 -11 31 -26 q -81 76 -60 14 q -82 81 -82 78 q -77 83 -82 83 q -71 78 -72 83 q 11 22 -46 22 q 135 92 82 22 q 204 200 174 143 q 375 413 306 393 q 350 417 365 417 q 304 405 335 417 q 230 360 274 393 q 151 295 186 326 q 79 228 115 264 q 38 189 43 193 q 15 181 18 172 q 22 199 13 190 q 108 281 53 225 q 198 369 164 338 q 274 418 232 400 q 339 436 315 436 q 386 430 363 436 q 413 415 410 424 q 352 329 375 399 z "},"":{"ha":1267,"x_min":11,"x_max":1225,"o":"m 1063 963 q 1064 974 1063 963 q 1082 1003 1065 985 q 1113 1025 1099 1021 q 1138 1029 1128 1029 q 1158 1020 1147 1029 q 1167 990 1169 1011 q 1147 950 1164 969 q 1110 926 1131 931 q 1075 931 1089 921 q 1063 963 1061 942 m 894 963 q 895 974 894 963 q 913 1003 896 985 q 944 1025 929 1021 q 968 1029 958 1029 q 989 1020 978 1029 q 997 990 1000 1011 q 978 950 994 969 q 940 926 961 931 q 906 931 919 921 q 894 963 892 942 m 797 658 q 786 634 797 658 q 754 572 775 610 q 650 394 733 535 q 524 166 567 254 q 481 35 481 78 q 515 -8 481 -8 q 635 60 554 -8 q 783 208 715 129 q 881 331 851 288 q 1158 833 1106 657 q 1179 868 1168 865 q 1199 860 1192 879 q 1225 678 1225 789 q 1181 399 1225 568 q 985 -62 1104 99 q 772 -267 892 -189 q 528 -346 653 -346 q 320 -274 404 -346 q 217 -49 236 -201 q 219 -33 215 -37 q 227 -33 222 -29 q 233 -46 232 -37 q 322 -236 251 -162 q 485 -310 392 -310 q 764 -144 619 -310 q 1111 440 1011 138 q 1176 771 1176 635 q 1176 797 1176 785 q 1064 543 1143 685 q 813 194 951 344 q 492 -39 596 -39 q 439 17 439 -39 q 465 123 439 54 q 522 250 492 192 q 652 483 581 363 q 738 652 724 603 q 753 729 753 701 q 604 831 753 831 q 206 747 456 831 q 33 638 33 688 q 58 601 33 619 q 57 597 65 597 q 43 600 49 596 q 13 656 13 621 q 97 783 13 733 q 343 878 199 842 q 625 918 499 918 q 833 813 822 918 q 833 784 833 801 q 826 737 833 767 q 797 658 819 707 z "},"":{"ha":349,"x_min":-443,"x_max":653,"o":"m 651 569 q 647 564 651 564 q 640 571 642 564 q 608 620 632 603 q 567 638 585 638 q 536 639 550 639 q 443 611 486 639 q 253 411 361 558 q 356 383 329 404 q 397 326 407 344 q 372 333 394 319 q 304 346 350 346 q 197 329 258 346 q 142 203 196 328 q -129 -189 11 -94 q -260 -232 -192 -232 q -380 -197 -329 -232 q -442 -97 -431 -162 q -442 -94 -442 -96 q -439 -90 -442 -92 q -432 -97 -435 -92 q -400 -147 -424 -129 q -359 -165 -376 -164 q -328 -165 -342 -165 q -44 63 -200 -165 q 25 179 -14 104 q 81 285 64 254 q 70 285 74 282 q 62 297 67 288 q 54 322 57 307 q 55 351 51 336 q 75 381 58 365 q 140 407 94 397 q 339 663 243 597 q 470 706 401 706 q 588 672 539 706 q 651 569 651 628 z "},"":{"ha":463,"x_min":1,"x_max":447,"o":"m 418 474 q 434 476 422 474 q 446 469 446 478 q 416 452 446 460 q 350 444 386 444 q 282 467 314 444 q 229 554 231 501 q 117 485 175 510 q 19 460 58 460 q 3 465 3 460 q 8 479 3 469 q 20 488 14 489 q 28 488 26 488 q 125 521 64 488 q 243 600 186 554 q 295 655 257 624 q 336 686 333 686 q 331 665 342 686 q 319 619 319 643 q 360 503 319 547 q 418 474 388 474 z "},"":{"ha":363,"x_min":31,"x_max":476,"o":"m 60 538 q 44 535 56 538 q 32 542 32 533 q 62 559 32 551 q 128 567 92 567 q 196 544 164 567 q 249 457 247 510 q 361 526 303 501 q 458 551 419 551 q 475 547 475 551 q 469 532 475 542 q 458 523 464 522 q 450 524 451 524 q 353 490 414 524 q 235 411 292 457 q 183 356 221 388 q 142 325 144 325 q 147 347 136 325 q 158 392 158 368 q 118 508 158 464 q 60 538 90 538 z "},"":{"ha":1389,"x_min":110,"x_max":506,"o":"m 354 529 q 382 537 354 529 q 449 569 410 544 q 497 593 489 593 q 504 587 504 593 q 481 563 504 581 q 394 517 457 544 q 213 464 278 464 q 110 549 114 464 q 135 569 110 557 q 182 586 160 582 q 208 582 204 590 q 279 514 210 514 q 354 529 299 514 z "},"":{"ha":907,"x_min":164,"x_max":449,"o":"m 221 638 q 165 693 165 638 q 169 726 165 706 q 203 785 174 747 q 264 849 233 824 q 364 888 310 888 q 413 878 389 888 q 447 818 447 863 q 400 721 447 774 q 268 644 349 667 q 221 638 240 638 m 372 798 q 372 815 372 798 q 328 832 372 832 q 239 785 283 832 q 194 701 194 739 q 226 664 194 664 q 274 676 243 664 q 338 724 304 689 q 372 798 372 764 z "},"":{"ha":399,"x_min":26,"x_max":388,"o":"m 357 503 q 269 465 307 465 q 210 478 231 465 q 165 510 190 492 q 121 529 138 529 q 46 486 89 529 q 31 478 35 474 q 28 485 28 482 q 33 494 28 489 q 165 572 115 572 q 245 558 214 572 q 291 536 276 543 q 316 529 306 529 q 338 533 326 529 q 372 565 364 547 q 388 545 388 563 q 357 503 388 528 z "},"":{"ha":608,"x_min":121,"x_max":607,"o":"m 585 247 q 467 253 519 253 q 383 250 415 253 q 333 246 351 247 q 279 240 315 244 q 231 233 243 235 q 179 224 218 231 q 136 217 140 218 q 131 217 132 217 q 121 235 121 217 q 127 273 121 254 q 143 292 133 292 q 329 301 264 301 q 597 281 519 301 q 607 269 607 278 q 601 254 607 261 q 585 247 594 247 z "},"":{"ha":956,"x_min":121,"x_max":947,"o":"m 938 281 q 947 269 947 278 q 941 254 947 261 q 925 247 935 247 q 758 253 858 253 q 449 243 657 253 q 132 217 240 233 q 131 217 132 217 q 121 235 121 217 q 127 273 121 254 q 143 292 133 292 q 390 301 263 301 q 938 281 861 301 z "},"":{"ha":207,"x_min":13,"x_max":236,"o":"m 61 497 q 143 538 94 538 q 166 528 156 538 q 176 508 176 519 q 172 478 176 496 q 142 433 168 460 q 75 403 110 403 q 27 423 40 403 q 14 463 14 443 q 64 575 14 507 q 226 678 136 672 q 231 678 228 678 q 235 674 233 678 q 229 669 233 671 q 119 610 168 663 q 61 497 69 558 z "},"":{"ha":207,"x_min":6,"x_max":226,"o":"m 166 589 q 184 589 166 589 q 213 569 201 589 q 225 528 225 550 q 206 461 225 507 q 131 367 186 415 q 11 314 68 314 q 6 318 6 314 q 11 324 6 322 q 121 381 71 329 q 179 494 171 433 q 101 454 147 454 q 74 464 85 454 q 64 485 64 474 q 96 554 64 522 q 166 589 131 589 z "},"":{"ha":318,"x_min":-14,"x_max":207,"o":"m 147 125 q 164 125 147 125 q 194 106 182 125 q 206 65 206 86 q 186 -3 206 43 q 111 -97 167 -49 q -4 -150 56 -146 q -14 -144 -12 -150 q -8 -140 -11 -142 q 103 -83 53 -135 q 161 31 153 -31 l 154 25 q 83 -10 119 -10 q 56 0 67 -10 q 46 22 46 10 q 50 51 46 33 q 81 94 54 69 q 147 125 111 125 z "},"":{"ha":574,"x_min":47,"x_max":461,"o":"m 94 686 q 176 726 126 726 q 199 717 189 726 q 210 696 210 707 q 178 626 210 658 q 108 592 143 592 q 60 611 72 592 q 49 652 49 631 q 68 719 49 674 q 144 814 88 765 q 263 867 206 867 q 268 861 268 867 q 263 857 265 858 q 153 799 203 851 q 94 686 103 747 m 344 799 q 319 773 344 799 q 286 686 294 747 q 364 726 326 726 q 391 717 381 726 q 401 695 401 707 q 397 666 401 683 q 367 622 393 649 q 301 592 336 592 q 253 611 265 592 q 242 652 242 631 q 261 719 242 674 q 336 814 281 765 q 454 867 397 867 q 461 861 460 867 q 456 857 458 858 q 344 799 394 851 z "},"":{"ha":574,"x_min":144,"x_max":560,"o":"m 558 757 q 508 643 558 713 q 346 540 436 546 q 338 545 338 540 q 343 550 338 550 q 453 609 404 557 q 511 722 503 661 q 451 683 489 693 q 429 682 442 682 q 406 692 417 682 q 396 713 396 701 q 428 781 396 751 q 497 815 463 815 q 550 790 532 815 q 558 757 558 776 m 319 722 q 240 682 279 682 q 215 691 225 682 q 204 712 204 700 q 208 742 204 724 q 239 786 213 760 q 306 815 272 815 q 357 790 339 815 q 365 757 365 776 q 314 643 365 713 q 153 540 243 546 q 144 545 144 540 q 150 550 144 550 q 261 609 211 557 q 319 722 311 661 z "},"":{"ha":456,"x_min":-14,"x_max":424,"o":"m 376 31 q 299 -10 336 -10 q 272 0 282 -10 q 261 22 261 10 q 265 51 261 33 q 296 94 269 69 q 362 125 326 125 q 415 100 397 125 q 422 65 422 86 q 403 -3 422 43 q 327 -97 383 -49 q 211 -150 271 -146 q 203 -144 203 -150 q 208 -140 204 -142 q 318 -83 268 -135 q 376 31 368 -31 m 147 125 q 164 125 147 125 q 194 106 182 125 q 206 65 206 86 q 186 -3 206 43 q 111 -97 167 -49 q -4 -150 56 -146 q -14 -144 -12 -150 q -8 -140 -11 -142 q 103 -83 53 -135 q 161 31 153 -31 l 154 25 q 83 -10 119 -10 q 56 0 67 -10 q 46 22 46 10 q 50 51 46 33 q 81 94 54 69 q 147 125 111 125 z "},"":{"ha":436,"x_min":-51,"x_max":629,"o":"m -15 -353 q -51 -294 -51 -353 q -49 -268 -51 -282 q 40 31 -11 -81 q 258 397 90 143 q 192 379 246 394 q 126 364 138 364 q 106 369 114 364 q 98 383 97 375 q 108 397 99 390 q 131 407 117 403 q 163 415 146 411 q 199 423 179 419 q 233 428 219 426 q 283 435 278 435 q 318 487 285 436 q 365 555 351 538 q 406 611 378 572 q 501 717 453 675 q 551 735 515 728 q 608 743 588 743 q 629 733 629 743 q 626 729 629 732 q 549 644 624 726 q 388 444 475 561 q 506 460 479 460 q 536 451 532 460 q 397 414 515 431 q 360 407 365 408 q 253 249 332 364 q 147 92 174 135 q 74 -31 119 49 q -12 -311 -19 -187 q -11 -351 -11 -339 q -15 -353 -12 -353 z "},"":{"ha":436,"x_min":-50,"x_max":629,"o":"m -11 -351 q -14 -353 -12 -353 q -49 -283 -49 -353 q -49 -268 -49 -276 q 175 267 -32 -79 q 123 250 164 264 q 67 236 82 236 q 36 257 33 236 q 199 303 38 285 q 258 397 238 367 q 192 379 246 394 q 126 364 138 364 q 106 369 114 364 q 98 383 97 375 q 108 397 99 390 q 131 407 117 403 q 163 415 146 411 q 199 423 179 419 q 233 428 219 426 q 283 435 278 435 q 318 487 285 436 q 365 555 351 538 q 406 611 378 572 q 501 717 453 675 q 551 735 515 728 q 608 743 588 743 q 629 733 629 743 q 626 729 629 732 q 549 644 624 726 q 388 444 475 561 q 506 460 479 460 q 536 451 532 460 q 397 414 515 431 q 360 407 365 408 l 293 313 q 443 332 417 332 q 474 324 469 332 q 268 275 453 301 q 203 179 251 250 q 128 65 156 108 q 67 -42 101 22 q -12 -311 -18 -192 q -11 -351 -11 -339 z "},"":{"ha":696,"x_min":85,"x_max":636,"o":"m 556 481 q 596 440 556 481 q 636 285 636 400 q 556 89 636 169 q 360 8 475 8 q 165 90 246 8 q 85 285 85 171 q 165 480 85 399 q 360 561 246 561 q 556 481 475 561 z "},"":{"ha":761,"x_min":64,"x_max":690,"o":"m 597 -10 q 568 1 582 -10 q 554 25 554 13 q 578 92 554 67 q 647 126 611 126 q 676 116 663 126 q 689 78 689 106 q 661 21 689 51 q 597 -10 633 -10 m 414 25 q 344 -10 385 -10 q 318 1 332 -10 q 304 39 304 13 q 333 96 304 65 q 401 126 361 126 q 427 116 414 126 q 440 93 440 106 q 414 25 440 53 m 108 -10 q 78 1 92 -10 q 65 25 65 13 q 89 92 65 67 q 158 126 122 126 q 187 116 174 126 q 200 78 200 106 q 172 21 200 51 q 108 -10 143 -10 z "},"":{"ha":1292,"x_min":67,"x_max":1281,"o":"m 1229 372 q 1279 285 1279 346 q 1212 145 1279 217 q 1036 38 1144 74 q 942 19 986 19 q 878 57 897 19 q 868 97 868 75 q 874 149 868 118 q 923 236 881 181 q 1010 328 965 292 q 1160 386 1079 386 q 1229 372 1194 386 m 822 372 q 872 285 872 346 q 806 146 872 217 q 632 38 740 75 q 537 19 581 19 q 472 54 493 19 q 461 96 461 74 q 467 149 461 118 q 516 236 474 181 q 603 328 558 292 q 753 386 672 386 q 822 372 788 386 m 454 747 q 494 742 467 742 q 593 764 521 742 q 692 786 665 786 q 718 775 718 786 q 704 744 718 764 q 369 249 553 543 q 122 -194 186 -44 q 109 -210 115 -210 q 103 -194 103 -210 q 305 220 103 -125 q 608 700 507 565 q 553 689 586 689 q 474 717 521 689 q 481 679 481 699 q 410 536 481 615 q 239 431 346 467 q 143 413 188 413 q 78 450 99 413 q 68 490 68 468 q 74 544 68 513 q 124 631 81 575 q 211 722 167 688 q 358 779 279 779 l 429 765 q 454 747 446 756 m 894 94 q 947 43 894 43 q 1026 65 975 43 q 1129 143 1076 86 q 1188 263 1188 208 q 1163 308 1188 296 q 1110 321 1138 321 q 981 258 1049 321 q 897 119 913 194 q 894 94 894 106 m 308 714 q 181 652 249 714 q 97 515 114 590 q 94 489 94 500 q 119 443 94 456 q 152 438 131 438 q 224 458 174 438 q 319 528 275 479 q 388 657 388 600 q 362 702 388 690 q 308 714 336 714 m 488 94 q 540 43 488 43 q 618 65 567 43 q 722 143 669 86 q 781 263 781 208 q 756 308 781 296 q 703 321 731 321 q 574 258 642 321 q 490 119 506 194 q 488 94 488 106 z "},"":{"ha":411,"x_min":43,"x_max":415,"o":"m 165 208 q 81 249 119 249 q 43 251 43 249 q 67 271 43 258 q 260 403 169 332 q 371 517 351 475 q 397 533 378 533 q 415 530 415 533 q 414 525 415 526 q 161 303 371 432 q 231 246 196 288 q 281 150 267 204 q 283 125 283 138 q 254 53 283 86 q 221 19 225 19 q 224 38 213 19 q 233 79 233 58 q 165 208 233 149 z "},"":{"ha":408,"x_min":26,"x_max":399,"o":"m 276 335 q 360 294 322 294 q 397 292 397 294 q 385 277 397 285 q 316 235 374 269 q 174 134 258 200 q 71 26 90 68 q 38 10 64 11 q 26 18 25 11 q 281 239 72 110 q 210 296 246 254 q 161 392 175 338 q 158 418 158 404 q 188 490 158 457 q 221 524 217 524 q 218 506 229 524 q 208 464 208 485 q 276 335 208 394 z "},"":{"ha":826,"x_min":14,"x_max":690,"o":"m 622 811 l 671 818 q 690 808 690 818 q 682 792 689 801 q 307 269 504 561 q 50 -164 110 -24 q 33 -179 43 -179 q 22 -175 29 -179 q 15 -158 15 -171 q 176 162 15 -100 q 472 617 338 424 q 622 811 607 811 z "},"":{"ha":1267,"x_min":17,"x_max":1356,"o":"m 833 479 q 779 479 822 479 q 436 461 658 479 q 332 346 368 396 q 726 326 707 338 q 733 315 733 322 q 692 292 733 290 q 644 293 682 293 q 289 274 588 293 q 264 169 264 219 q 294 81 264 119 q 372 24 324 43 q 549 -12 463 -12 q 721 1 635 -12 q 1201 190 949 42 q 1224 196 1213 196 q 1235 186 1235 196 q 1215 161 1235 176 q 986 31 1124 92 q 571 -74 758 -74 q 324 -4 426 -74 q 221 203 221 65 q 228 268 221 233 q 119 257 163 263 q 47 251 76 251 q 17 274 17 251 q 251 344 17 342 q 308 451 272 397 q 257 444 307 451 q 176 438 207 438 q 146 460 146 438 q 371 531 146 524 q 668 772 490 665 q 1135 932 936 932 q 1318 874 1256 932 q 1356 783 1356 839 q 1340 753 1356 753 q 1331 767 1333 753 q 1193 800 1324 800 q 866 719 1063 800 q 522 531 669 639 q 857 513 835 526 q 863 503 863 508 q 833 479 863 479 z "},"":{"ha":886,"x_min":44,"x_max":853,"o":"m 539 615 q 583 513 539 513 q 783 714 628 513 q 842 782 836 782 q 851 771 851 782 q 732 400 851 715 q 686 381 725 381 q 676 392 675 381 q 687 416 676 394 q 737 542 697 438 q 783 663 776 647 q 720 599 735 614 q 681 560 706 583 q 636 524 656 538 q 567 488 588 488 q 496 647 506 488 q 442 543 479 622 q 385 441 404 464 q 346 418 365 418 q 335 426 335 418 q 398 548 336 438 q 470 678 460 658 q 499 724 481 699 q 533 749 518 749 q 535 749 533 749 q 544 724 544 749 l 539 615 m 638 743 q 464 794 638 794 q 343 788 410 794 q 86 733 158 771 q 58 704 58 719 q 65 690 58 696 q 67 683 71 683 l 58 686 q 46 712 46 697 q 53 742 46 726 q 283 833 85 810 q 385 842 343 842 q 479 836 426 842 q 583 811 532 831 q 657 742 657 782 q 650 717 657 729 q 626 701 639 703 q 626 717 615 701 q 638 743 638 733 m 258 499 q 238 418 238 440 q 239 389 238 396 q 260 351 240 357 q 283 355 275 349 q 291 359 290 361 q 288 353 292 357 q 264 344 274 344 q 192 411 192 344 q 254 583 192 486 q 385 771 285 631 q 398 782 393 782 q 404 779 403 782 q 406 775 406 776 l 258 499 z "},"":{"ha":556,"x_min":-83,"x_max":546,"o":"m -83 685 q 28 765 -83 765 q 256 650 157 765 q 353 523 322 572 q 410 433 385 474 q 454 364 436 392 q 490 303 472 336 q 527 221 508 271 q 546 133 546 171 q 525 55 546 96 q 457 -18 504 14 q 399 -35 433 -35 q 319 -14 365 -35 q 161 111 233 26 q 65 321 65 224 q 103 404 65 374 q 158 419 128 419 q 224 406 189 419 q 364 307 294 376 q 309 411 342 346 q 253 521 276 476 q 197 614 229 565 q 49 728 132 711 q 18 733 35 733 q -54 685 -54 733 q -62 672 -54 675 q -76 672 -69 668 q -83 685 -83 675 m 388 -4 q 468 71 468 -4 q 420 208 468 133 q 313 314 372 283 q 256 332 278 332 q 190 257 190 332 q 244 99 190 182 q 314 25 275 51 q 388 -4 354 -4 z "},"":{"ha":608,"x_min":121,"x_max":500,"o":"m 128 217 q 124 217 128 217 q 121 235 121 217 q 127 273 121 254 q 143 292 133 292 q 324 301 239 301 q 483 290 410 301 q 500 276 500 288 q 486 265 500 265 q 276 243 386 263 q 128 217 135 217 z "},"":{"ha":669,"x_min":40,"x_max":610,"o":"m 569 454 q 608 415 608 454 q 599 368 608 397 q 493 223 568 283 q 365 163 418 163 q 331 168 347 163 q 303 233 303 178 q 306 275 303 251 l 242 229 q 96 165 147 165 q 59 178 76 165 q 42 228 42 190 q 74 329 42 265 q 163 437 106 393 q 257 481 219 481 q 292 472 275 481 q 335 385 335 451 q 332 349 335 368 q 569 454 504 454 m 83 292 q 125 257 83 257 q 236 293 167 257 l 314 339 q 314 356 314 347 q 243 453 314 453 q 138 394 192 453 q 97 338 111 367 q 83 292 83 308 m 549 357 q 559 372 549 357 q 568 399 568 388 q 556 410 568 410 q 331 290 499 410 q 381 247 339 247 q 479 287 428 247 q 549 357 531 326 z "},"":{"ha":608,"x_min":71,"x_max":500,"o":"m 371 322 l 483 313 q 500 298 500 310 q 486 286 500 286 q 336 274 404 285 q 261 164 271 179 q 306 164 269 164 q 435 154 343 164 q 449 147 444 153 q 449 134 453 140 q 436 128 446 128 q 222 104 338 126 q 118 -76 143 -17 q 110 -86 114 -86 q 100 -81 106 -86 q 104 -47 94 -75 q 182 97 114 -18 l 82 81 q 71 98 71 79 q 77 135 71 117 q 93 156 83 154 q 224 164 168 163 q 289 267 272 242 q 223 255 279 265 q 132 239 167 244 q 122 256 122 238 q 127 293 121 274 q 143 314 133 313 q 328 322 235 322 q 443 476 431 476 l 471 481 q 476 465 488 481 l 371 322 z "},"":{"ha":411,"x_min":43,"x_max":415,"o":"m 165 208 q 81 249 119 249 q 43 251 43 249 q 97 289 43 258 q 270 409 189 344 q 371 517 351 474 q 397 533 378 533 q 415 530 415 533 q 414 525 415 526 q 161 303 371 432 q 232 246 197 288 q 281 150 267 204 q 283 125 283 138 q 254 53 283 86 q 221 19 225 19 q 224 38 213 19 q 233 79 233 58 q 165 208 233 149 m 356 -68 q 344 -76 356 -76 q 175 -95 263 -79 q 58 -115 88 -111 q 50 -100 50 -115 q 55 -69 50 -85 q 67 -54 60 -54 q 211 -47 142 -47 q 353 -61 343 -47 q 356 -68 356 -65 z "},"":{"ha":408,"x_min":-10,"x_max":399,"o":"m 276 335 q 360 294 322 294 q 397 292 397 294 q 385 277 397 285 q 315 234 374 269 q 174 133 257 199 q 71 26 90 68 q 38 10 64 11 q 26 18 25 11 q 281 239 72 110 q 210 296 246 254 q 161 392 175 338 q 158 418 158 406 q 188 491 158 458 q 221 524 217 524 q 218 506 229 524 q 208 464 208 485 q 276 335 208 394 m 297 -64 q 286 -72 297 -72 q 118 -90 200 -75 q -2 -111 4 -111 q -8 -100 -8 -111 q 8 -51 -8 -53 q 158 -44 89 -44 q 294 -58 285 -44 q 297 -64 297 -61 z "},"":{"ha":585,"x_min":24,"x_max":561,"o":"m 355 115 q 344 122 355 115 q 301 129 333 129 q 247 115 269 129 q 190 100 225 100 q 101 165 154 100 q 31 331 47 231 q 25 408 25 361 q 55 513 25 454 q 133 589 85 571 q 181 600 164 600 q 215 592 199 600 q 288 569 264 569 q 397 596 340 569 q 424 600 407 600 q 544 532 503 600 q 472 404 472 492 q 498 321 472 356 q 561 271 524 286 q 499 152 539 204 q 417 100 458 100 q 355 115 376 100 m 303 607 q 326 686 303 651 q 377 735 350 721 q 413 750 404 750 q 425 749 422 750 q 436 707 436 732 q 414 647 436 682 q 314 589 378 589 q 306 589 310 589 q 303 607 303 597 m 144 513 q 141 513 144 513 q 139 509 139 513 q 140 501 139 506 q 144 500 142 501 l 147 501 l 149 501 q 147 499 147 500 l 146 497 l 143 497 l 143 499 l 139 499 q 147 494 143 494 q 151 499 150 494 l 151 510 q 144 513 149 513 m 137 510 q 136 511 137 510 q 131 513 136 513 q 125 508 125 513 q 126 501 125 503 q 131 500 128 501 l 133 501 l 133 499 q 131 497 133 497 l 129 497 l 129 499 l 125 499 q 131 494 125 494 q 137 497 136 494 q 138 504 138 500 q 137 510 138 508 m 288 372 l 286 375 l 283 375 q 276 368 276 375 q 281 361 276 361 q 289 365 289 361 l 286 365 l 285 364 l 281 364 l 279 367 l 289 367 l 289 369 q 288 372 289 372 m 346 458 q 340 456 340 458 q 344 450 340 450 l 347 450 l 349 451 l 349 450 l 353 450 l 353 460 q 348 464 353 464 q 342 463 343 464 q 341 461 342 461 q 340 460 340 461 l 344 460 l 344 461 l 349 461 l 349 458 l 346 458 m 149 507 l 146 503 q 144 503 144 503 q 143 504 144 504 l 143 507 q 144 510 143 508 l 146 510 q 147 508 147 510 l 149 507 m 132 504 l 132 503 l 129 504 l 129 510 l 131 510 q 133 508 133 510 l 133 507 q 132 504 133 504 m 281 371 q 283 372 281 372 q 286 369 286 372 l 279 369 l 281 371 m 349 456 q 347 453 349 453 l 344 453 l 344 456 l 347 456 l 349 457 l 349 456 z "},"":{"ha":690,"x_min":-6,"x_max":735,"o":"m 631 594 q 543 639 604 639 q 443 611 482 639 q 253 411 361 558 q 356 383 329 404 q 397 326 407 344 q 372 333 394 319 q 304 346 350 346 q 197 329 258 346 q 56 42 101 189 q 36 -64 36 -22 q 54 -126 36 -106 q 56 -133 60 -132 q 50 -135 51 -135 q 47 -133 49 -135 q -4 -1 -4 -92 q 81 285 -4 89 q 70 285 74 282 q 62 297 67 288 q 54 322 57 307 q 55 351 51 336 q 75 381 58 365 q 140 407 94 397 q 339 663 243 597 q 470 706 401 706 q 590 671 539 706 q 651 571 640 636 l 651 568 q 651 560 651 564 q 631 510 651 535 q 586 480 611 486 q 546 486 561 474 q 533 523 531 499 q 553 567 535 547 q 594 594 572 588 q 631 594 615 601 m 575 350 q 481 201 519 292 q 442 76 442 111 q 471 40 442 40 q 565 81 500 40 q 715 200 631 122 q 733 196 733 217 q 731 190 733 193 q 618 94 664 132 q 509 23 572 57 q 406 -11 446 -11 q 331 11 356 -11 q 307 60 307 33 q 326 141 307 110 q 388 219 346 172 q 296 140 317 161 q 282 142 285 131 q 296 167 281 154 q 401 265 328 192 q 501 351 474 338 q 545 365 528 365 q 571 360 563 365 q 575 350 579 356 z "},"":{"ha":742,"x_min":-6,"x_max":882,"o":"m 438 57 q 475 19 438 19 q 545 38 497 19 q 669 117 593 56 q 772 205 746 178 q 804 231 799 232 q 808 223 810 231 q 801 210 807 215 q 606 36 683 89 q 460 -17 528 -17 q 382 10 404 -17 q 360 71 360 36 q 404 221 360 133 q 324 161 332 143 q 332 178 321 168 q 482 342 397 231 q 640 569 567 453 l 640 571 q 597 626 629 613 q 546 640 565 640 q 443 611 488 640 q 253 411 361 558 q 356 383 329 404 q 397 326 407 344 q 372 333 394 319 q 304 346 350 346 q 197 329 258 346 q 56 42 101 189 q 36 -64 36 -22 q 54 -126 36 -106 q 56 -133 60 -132 q 50 -135 51 -135 q 47 -133 49 -135 q -4 -1 -4 -92 q 81 285 -4 89 q 70 285 74 282 q 62 297 67 288 q 54 322 57 307 q 55 351 51 336 q 75 381 58 365 q 140 407 94 397 q 339 663 243 597 q 469 706 400 706 q 525 699 497 706 q 649 582 626 675 l 688 646 q 701 685 701 672 q 669 696 701 714 q 631 682 633 678 q 635 693 628 686 q 726 740 668 718 q 822 764 785 763 q 881 728 881 764 q 860 672 881 707 q 745 534 840 638 q 629 404 650 431 q 447 106 486 217 q 438 57 438 76 z "}}}
